<svg width="478" height="357" viewBox="0 0 478 357" fill="none" xmlns="http://www.w3.org/2000/svg">
  <style>
    @keyframes fade {
      from {
        opacity: 0;
      }

      to {
        opacity: 1;
      }
    }

    @keyframes float {
      0% {
        transform: translatey(0px);
      }

      50% {
        transform: translatey(-10px);
      }

      100% {
        transform: translatey(0px);
      }
    }

    .left-bottom-rect {
      animation: float ease-in-out 4s infinite;
    }

    .left-top-rect {
      animation: float ease-in-out 5s infinite;
    }

    .middle-center-rect {
      animation: fade cubic-bezier(0.3, 0.1, 0.9, 1) 2s infinite alternate-reverse;
    }

    .right-bottom-rect {
      animation: float ease-in-out 6s infinite;
    }

    .right-top-rect {
      animation: fade cubic-bezier(0.3, 0.1, 0.9, 1) 1.5s infinite alternate-reverse;

      animation-delay: 1s;
    }

    .cup {
      animation: float ease-in-out 8s infinite;
    }
  </style>
  <path class="left-bottom-rect float" fill-rule="evenodd" clip-rule="evenodd"
    d="M26.8731 308.007C28.1548 308.007 29.4364 307.659 30.5579 306.902L43.1074 299.051C43.855 298.585 44.2822 297.771 44.2822 296.841C44.2822 295.968 43.855 295.154 43.1074 294.689L30.5579 286.779C28.2616 285.325 25.4313 285.325 23.135 286.779L10.5855 294.689C9.89127 295.154 9.464 295.968 9.464 296.841C9.464 297.771 9.89127 298.585 10.5855 299.051L23.135 306.902C24.3098 307.659 25.5915 308.007 26.8731 308.007ZM26.8731 287.884C27.781 287.884 28.7422 288.116 29.5966 288.64L42.0927 296.55C42.2529 296.608 42.3063 296.782 42.3063 296.841C42.3063 296.957 42.2529 297.073 42.0927 297.19L29.5966 305.041C27.8878 306.088 25.8051 306.088 24.1496 305.041L11.6001 297.19C11.4399 297.073 11.4399 296.957 11.4399 296.841C11.4399 296.782 11.4399 296.608 11.6001 296.55L24.1496 288.64C24.9507 288.116 25.9119 287.884 26.8731 287.884Z"
    fill="#80D4FF" />
  <path class="left-top-rect float" fill-rule="evenodd" clip-rule="evenodd"
    d="M62.1381 266.047C64.2348 266.047 66.3315 265.497 68.2132 264.397L89.933 251.581C90.9544 250.976 91.5996 249.876 91.5996 248.61C91.5996 247.4 90.9544 246.3 89.933 245.695L68.2132 232.879C64.4498 230.679 59.8263 230.679 56.0629 232.879L34.3431 245.695C33.3216 246.3 32.6765 247.4 32.6765 248.61C32.6765 249.876 33.3216 250.976 34.3431 251.581L56.0629 264.397C57.9446 265.497 60.0413 266.047 62.1381 266.047ZM67.2454 262.637C64.0735 264.452 60.2026 264.452 57.0844 262.637L35.3646 249.765C34.7732 249.435 34.7194 248.885 34.7194 248.61C34.7194 248.39 34.7732 247.84 35.3646 247.51L57.0844 234.639C60.2026 232.824 64.0735 232.824 67.2454 234.639L88.9653 247.51C89.5029 247.84 89.6104 248.39 89.6104 248.61C89.6104 248.885 89.5029 249.435 88.9653 249.765L67.2454 262.637Z"
    fill="#80D4FF" />
  <path class="right-bottom-rect float" fill-rule="evenodd" clip-rule="evenodd"
    d="M448.29 284.795C450.356 284.795 452.423 284.273 454.278 283.23L475.688 271.071C476.695 270.497 477.278 269.453 477.278 268.253C477.278 267.105 476.695 266.061 475.688 265.487L454.278 253.328C450.568 251.241 445.958 251.241 442.248 253.328L420.838 265.487C419.831 266.061 419.248 267.105 419.248 268.305C419.248 269.453 419.831 270.497 420.838 271.071L442.248 283.23C444.103 284.273 446.17 284.795 448.29 284.795ZM448.29 253.693C449.985 253.693 451.734 254.163 453.271 254.998L474.682 267.209C475.264 267.522 475.317 268.044 475.317 268.305C475.317 268.514 475.264 269.036 474.682 269.349L453.271 281.56C450.197 283.282 446.329 283.282 443.255 281.56L421.845 269.349C421.262 269.036 421.209 268.514 421.209 268.305C421.209 268.044 421.262 267.522 421.845 267.209L443.255 254.998C444.792 254.163 446.541 253.693 448.29 253.693Z"
    fill="#80D4FF" />
  <path class="middle-center-rect" fill-rule="evenodd" clip-rule="evenodd"
    d="M226.648 356.217C228.459 356.217 230.218 355.843 231.497 355.043L407.189 253.443C408.628 252.589 409.427 251.414 409.427 250.079C409.427 248.531 408.362 247.036 406.497 245.969L286.704 175.655C283.453 173.733 278.604 173.573 275.726 175.228L100.034 276.827C98.5951 277.682 97.849 278.856 97.849 280.244C97.849 281.739 98.9148 283.288 100.78 284.355L220.519 354.669C222.331 355.683 224.516 356.217 226.648 356.217ZM280.576 176.082C282.334 176.082 284.253 176.509 285.745 177.363L405.484 247.677C406.71 248.371 407.456 249.279 407.456 250.079C407.456 250.827 406.763 251.414 406.177 251.735L230.538 353.334C228.3 354.669 224.143 354.455 221.532 352.907L101.792 282.647C100.567 281.899 99.8207 281.045 99.8207 280.244C99.8207 279.444 100.46 278.91 101.046 278.589L276.739 176.936C277.751 176.349 279.084 176.082 280.576 176.082Z"
    fill="#80D4FF" />
  <path class="right-top-rect" fill-rule="evenodd" clip-rule="evenodd"
    d="M363.45 195.518C366.369 195.518 369.287 194.78 371.882 193.357L402.801 175.915C404.153 175.177 404.964 173.807 404.964 172.332C404.964 170.804 404.153 169.486 402.801 168.696L371.882 151.307C366.693 148.356 360.206 148.356 355.017 151.307L324.098 168.696C322.746 169.486 321.936 170.804 321.936 172.332C321.936 173.86 322.746 175.177 324.098 175.915L355.017 193.357C357.612 194.78 360.531 195.518 363.45 195.518ZM370.909 191.618C366.314 194.2 360.585 194.2 355.99 191.618L325.125 174.229C324.368 173.86 323.99 173.122 323.99 172.332C323.99 171.541 324.368 170.804 325.125 170.435L355.99 152.993C360.585 150.411 366.314 150.411 370.909 152.993L401.828 170.435C402.531 170.804 402.964 171.541 402.964 172.332C402.964 173.122 402.531 173.86 401.828 174.229L370.909 191.618Z"
    fill="#80D4FF" />
  <path opacity="0.8"
    d="M387.902 249.125L294.021 195.076C292.546 194.207 289.933 194.341 288.191 195.343L130.917 285.871C129.174 286.873 128.973 288.343 130.515 289.211L224.329 343.261C225.871 344.129 228.484 343.996 230.159 342.994L387.5 252.466C389.176 251.463 389.377 249.994 387.902 249.125Z"
    fill="#0C0F38" />
  <path
    d="M288.526 161.805L268.623 44.2184L270.232 43.4835L267.819 42.1472C267.35 41.88 266.68 41.88 265.943 42.2809L107.061 133.744C105.721 134.479 104.782 136.417 104.983 137.753L125.02 256.341C125.154 256.942 125.422 257.343 125.891 257.544H125.824L128.236 258.88L128.638 256.742H128.504L286.448 165.813C287.721 165.078 288.727 163.141 288.526 161.805Z"
    fill="url(#paint0_linear_716_35)" />
  <path
    d="M107.932 136.951L105.318 135.815C105.05 136.483 104.849 137.218 104.983 137.753L125.019 256.341C125.153 256.942 125.422 257.343 125.891 257.544H125.824L128.236 258.88L128.638 256.742H128.504L136.478 252.132L107.932 136.951Z"
    fill="#3A9BD5" />
  <path
    d="M291.005 163.208L270.969 44.6861C270.701 43.4167 269.695 43.0158 268.422 43.6839L109.54 135.214C108.2 135.949 107.262 137.886 107.463 139.223L127.499 257.744C127.7 259.014 128.772 259.414 129.978 258.746L288.927 167.283C290.201 166.481 291.206 164.611 291.005 163.208Z"
    fill="url(#paint1_linear_716_35)" />
  <path
    d="M291.005 163.208L270.969 44.6861C270.701 43.4167 269.695 43.0158 268.422 43.6839L109.54 135.214C108.2 135.949 107.262 137.886 107.463 139.223L127.499 257.744C127.7 259.014 128.772 259.414 129.978 258.746L288.927 167.283C290.201 166.481 291.206 164.611 291.005 163.208Z"
    fill="url(#paint2_linear_716_35)" />
  <path d="M268.154 50.2312L111.215 140.626L130.179 252.266L287.051 161.938L268.154 50.2312Z"
    fill="url(#paint3_linear_716_35)" />
  <path
    d="M388.84 223.404L380.129 227.88L293.149 177.839C291.742 176.971 289.196 177.104 287.52 178.106L137.55 264.425C136.568 263.891 133.887 262.577 129.509 260.483L132.726 268.701C132.86 269.102 133.128 269.436 133.597 269.703L225.2 322.417C226.675 323.218 229.221 323.151 230.896 322.149L384.351 233.826C385.021 233.425 385.49 232.958 385.624 232.49H385.691L388.84 223.404Z"
    fill="url(#paint4_linear_716_35)" />
  <path
    d="M387.902 221.466L294.02 167.416C292.546 166.548 289.933 166.682 288.19 167.684L130.916 258.212C129.174 259.214 128.973 260.684 130.514 261.552L224.329 315.602C225.87 316.47 228.484 316.337 230.159 315.334L387.5 224.806C389.175 223.804 389.376 222.335 387.902 221.466Z"
    fill="url(#paint5_radial_716_35)" />
  <path
    d="M387.5 223.27L230.159 313.798C228.484 314.8 225.87 314.934 224.329 314.065L130.514 260.016C130.157 259.793 129.889 259.57 129.71 259.348C129.241 260.149 129.509 260.951 130.514 261.552L224.329 315.602C225.87 316.47 228.484 316.337 230.159 315.335L387.5 224.807C388.773 224.072 389.175 223.003 388.639 222.134C388.438 222.535 388.036 222.936 387.5 223.27Z"
    fill="#6EE8FC" />
  <g opacity="0.1">
    <g opacity="0.1">
      <path opacity="0.1"
        d="M288.459 163.875L183.922 103.679C182.314 102.744 179.365 102.877 177.489 103.946L2.39029 204.763C0.446991 205.899 0.245972 207.502 1.92123 208.505L106.391 268.634C108.066 269.569 110.948 269.502 112.891 268.367L287.99 167.55C289.933 166.481 290.134 164.811 288.459 163.875Z"
        fill="url(#paint6_linear_716_35)" />
      <g opacity="0.1">
        <g opacity="0.1">
          <path opacity="0.1" d="M249.66 165.011L122.875 238.035L127.901 240.907L254.685 167.951L249.66 165.011Z"
            fill="url(#paint7_radial_716_35)" />
          <path opacity="0.1" d="M236.258 157.328L115.773 226.677L120.798 229.617L241.283 160.201L236.258 157.328Z"
            fill="url(#paint8_radial_716_35)" />
          <g opacity="0.1">
            <path opacity="0.1" d="M106.793 231.888L95.535 238.369L100.561 241.242L111.819 234.761L106.793 231.888Z"
              fill="#6EE1F8" />
          </g>
          <g opacity="0.1">
            <path opacity="0.1" d="M116.711 241.509L108.87 246.052L113.896 248.925L121.736 244.449L116.711 241.509Z"
              fill="#6EE1F8" />
          </g>
          <path opacity="0.1" d="M227.881 152.518L87.1589 233.558L92.1847 236.431L232.907 155.39L227.881 152.518Z"
            fill="url(#paint9_radial_716_35)" />
          <path opacity="0.1" d="M219.505 147.707L78.7826 228.748L83.8084 231.621L224.531 150.58L219.505 147.707Z"
            fill="url(#paint10_radial_716_35)" />
          <path opacity="0.1" d="M211.195 142.897L70.4057 223.938L75.4315 226.811L216.154 145.77L211.195 142.897Z"
            fill="url(#paint11_radial_716_35)" />
        </g>
      </g>
    </g>
  </g>
  <path d="M286.984 185.121L173.401 250.528L178.494 253.401L292.01 188.061L286.984 185.121Z" fill="#6EE1F8" />
  <path d="M299.315 192.27L192.835 253.602L197.861 256.475L304.407 195.209L299.315 192.27Z" fill="#6EE1F8" />
  <path d="M307.423 196.946L181.979 269.102L187.072 271.974L312.449 199.819L307.423 196.946Z" fill="#6EE1F8" />
  <path d="M315.464 201.557L190.087 273.712L195.113 276.651L320.49 204.429L315.464 201.557Z" fill="#6EE1F8" />
  <path d="M323.505 206.166L198.128 278.388L203.154 281.261L328.598 209.106L323.505 206.166Z" fill="#6EE1F8" />
  <path d="M166.566 254.47L161.54 257.343L166.566 260.283L171.592 257.343L166.566 254.47Z" fill="#6EE1F8" />
  <path d="M184.391 258.479L173.871 264.492L178.963 267.365L189.417 261.352L184.391 258.479Z" fill="#6EE1F8" />
  <g opacity="0.8">
    <path opacity="0.5" d="M254.887 81.832L244.5 87.7782L244.835 89.582L255.222 83.5691L254.887 81.832Z" fill="white" />
    <path opacity="0.5" d="M242.825 88.7136L237.196 91.9873L237.531 93.7911L243.16 90.5174L242.825 88.7136Z"
      fill="white" />
    <path opacity="0.5" d="M228.418 97.0648L224.33 99.4032L224.598 101.207L228.686 98.8687L228.418 97.0648Z"
      fill="white" />
    <path opacity="0.5" d="M231.366 95.3279L229.959 96.1296L230.294 97.9335L231.701 97.1318L231.366 95.3279Z"
      fill="white" />
    <path opacity="0.5" d="M235.52 92.9893L232.974 94.3923L233.309 96.1962L235.788 94.7264L235.52 92.9893Z"
      fill="white" />
    <path opacity="0.5" d="M246.711 95.5283L242.624 97.8667L242.892 99.6706L246.979 97.3322L246.711 95.5283Z"
      fill="white" />
    <path opacity="0.5" d="M256.294 89.9828L248.252 94.6596L248.587 96.3966L256.562 91.7867L256.294 89.9828Z"
      fill="white" />
    <g opacity="0.5">
      <path opacity="0.5" d="M244.767 119.112L236.793 123.722L237.061 125.526L245.103 120.916L244.767 119.112Z"
        fill="white" />
      <path opacity="0.5" d="M248.922 116.774L246.376 118.177L246.711 119.981L249.19 118.511L248.922 116.774Z"
        fill="white" />
    </g>
    <path opacity="0.5" d="M243.428 110.894L235.453 115.504L235.721 117.308L243.763 112.698L243.428 110.894Z"
      fill="white" />
    <path opacity="0.5" d="M247.582 108.556L245.036 109.959L245.371 111.763L247.917 110.293L247.582 108.556Z"
      fill="white" />
    <path opacity="0.5" d="M251.335 158.196L266.412 149.511L266.077 147.707L251 156.392L251.335 158.196Z"
      fill="white" />
    <path opacity="0.5" d="M245.974 161.27L249.727 159.065L249.392 157.261L245.706 159.466L245.974 161.27Z"
      fill="white" />
    <path opacity="0.5" d="M219.438 163.007L234.582 154.254L234.247 152.517L219.17 161.203L219.438 163.007Z"
      fill="white" />
    <path opacity="0.5" d="M214.144 166.08L217.897 163.875L217.562 162.071L213.809 164.276L214.144 166.08Z"
      fill="white" />
    <path opacity="0.5" d="M261.655 147.707L265.742 145.369L265.407 143.565L261.319 145.903L261.655 147.707Z"
      fill="white" />
    <path opacity="0.5" d="M236.727 153.052L240.814 150.713L240.546 148.91L236.459 151.248L236.727 153.052Z"
      fill="white" />
    <path opacity="0.5" d="M252.005 153.252L260.046 148.642L259.711 146.839L251.737 151.448L252.005 153.252Z"
      fill="white" />
    <path opacity="0.5" d="M247.917 155.657L250.464 154.188L250.129 152.384L247.582 153.853L247.917 155.657Z"
      fill="white" />
    <path opacity="0.5" d="M238.201 161.203L246.242 156.593L245.974 154.789L237.933 159.399L238.201 161.203Z"
      fill="white" />
    <path opacity="0.5" d="M234.113 163.608L236.66 162.138L236.325 160.334L233.778 161.804L234.113 163.608Z"
      fill="white" />
    <path opacity="0.5" d="M237.464 157.127L241.551 154.789L241.216 152.985L237.129 155.39L237.464 157.127Z"
      fill="white" />
    <path opacity="0.5" d="M227.814 162.673L235.855 158.063L235.52 156.259L227.546 160.869L227.814 162.673Z"
      fill="white" />
    <path opacity="0.5" d="M223.727 165.078L226.273 163.608L225.938 161.804L223.391 163.274L223.727 165.078Z"
      fill="white" />
    <path opacity="0.5" d="M256.629 146.104L265.005 141.293L264.737 139.489L256.361 144.3L256.629 146.104Z"
      fill="white" />
    <path opacity="0.5" d="M248.99 150.513L255.088 147.039L254.753 145.235L248.722 148.709L248.99 150.513Z"
      fill="white" />
    <path opacity="0.5" d="M243.361 153.787L247.448 151.382L247.113 149.578L243.026 151.983L243.361 153.787Z"
      fill="white" />
    <path opacity="0.5" d="M203.69 172.093L212.067 167.216L211.732 165.479L203.355 170.289L203.69 172.093Z"
      fill="white" />
    <path opacity="0.5" d="M196.051 176.435L202.082 172.961L201.747 171.157L195.716 174.698L196.051 176.435Z"
      fill="white" />
    <path opacity="0.5" d="M190.355 179.709L194.443 177.371L194.108 175.567L190.02 177.905L190.355 179.709Z"
      fill="white" />
    <path opacity="0.5" d="M206.304 114.235L197.995 119.045L198.263 120.849L206.639 116.039L206.304 114.235Z"
      fill="white" />
    <path opacity="0.5" d="M213.943 109.826L207.912 113.367L208.247 115.104L214.278 111.63L213.943 109.826Z"
      fill="white" />
    <path opacity="0.5" d="M219.639 106.552L215.551 108.957L215.886 110.761L219.974 108.356L219.639 106.552Z"
      fill="white" />
    <path opacity="0.5" d="M209.119 108.155L200.742 112.966L201.077 114.769L209.387 109.959L209.119 108.155Z"
      fill="white" />
    <path opacity="0.5" d="M216.757 103.746L210.726 107.22L210.994 109.024L217.025 105.55L216.757 103.746Z"
      fill="white" />
    <path opacity="0.5" d="M222.453 100.472L218.366 102.811L218.634 104.614L222.721 102.276L222.453 100.472Z"
      fill="white" />
    <path opacity="0.5" d="M242.892 115.705L240.077 117.375L240.412 119.179L243.227 117.509L242.892 115.705Z"
      fill="white" />
    <path opacity="0.5" d="M248.252 112.632L244.5 114.836L244.768 116.64L248.521 114.436L248.252 112.632Z"
      fill="white" />
    <path opacity="0.5" d="M255.892 142.028L264.268 137.218L264 135.414L255.624 140.224L255.892 142.028Z"
      fill="white" />
    <path opacity="0.5" d="M248.252 146.438L254.35 142.897L254.015 141.16L247.984 144.634L248.252 146.438Z"
      fill="white" />
    <path opacity="0.5" d="M242.624 149.711L246.711 147.306L246.376 145.502L242.289 147.907L242.624 149.711Z"
      fill="white" />
    <path opacity="0.5" d="M260.783 134.746L263.598 133.075L263.263 131.272L260.448 132.942L260.783 134.746Z"
      fill="white" />
    <path opacity="0.5" d="M255.422 137.752L259.175 135.614L258.84 133.81L255.154 136.015L255.422 137.752Z"
      fill="white" />
    <path opacity="0.5" d="M247.851 142.162L253.814 138.688L253.546 136.884L247.515 140.358L247.851 142.162Z"
      fill="white" />
    <path opacity="0.5" d="M239.072 104.414L236.257 106.018L236.525 107.821L239.34 106.218L239.072 104.414Z"
      fill="white" />
    <path opacity="0.5" d="M244.366 101.341L240.68 103.479L240.948 105.283L244.701 103.145L244.366 101.341Z"
      fill="white" />
    <path opacity="0.5" d="M252.005 96.998L245.974 100.405L246.242 102.209L252.273 98.7351L252.005 96.998Z"
      fill="white" />
    <path opacity="0.5" d="M234.783 111.095L228.753 114.569L229.021 116.306L235.052 112.899L234.783 111.095Z"
      fill="white" />
    <path opacity="0.5" d="M244.634 105.75L236.459 110.427L236.794 112.164L244.902 107.487L244.634 105.75Z"
      fill="white" />
    <path opacity="0.5" d="M248.722 103.345L246.175 104.815L246.51 106.619L249.057 105.149L248.722 103.345Z"
      fill="white" />
    <path opacity="0.5" d="M252.675 101.073L250.129 102.543L250.464 104.347L253.01 102.877L252.675 101.073Z"
      fill="white" />
    <g opacity="0.5">
      <path opacity="0.5" d="M252.139 124.257L244.098 128.866L244.433 130.67L252.407 126.06L252.139 124.257Z"
        fill="white" />
      <path opacity="0.5" d="M256.294 121.852L253.748 123.321L254.016 125.125L256.562 123.655L256.294 121.852Z"
        fill="white" />
      <path opacity="0.5" d="M251.603 129.067L248.789 130.737L249.057 132.474L251.871 130.871L251.603 129.067Z"
        fill="white" />
      <path opacity="0.5" d="M241.618 125.793L238.804 127.397L239.072 129.2L241.886 127.597L241.618 125.793Z"
        fill="white" />
      <path opacity="0.5" d="M237.598 128.131L230.763 132.006L231.098 133.81L237.866 129.935L237.598 128.131Z"
        fill="white" />
      <path opacity="0.5" d="M229.557 132.675L225.536 135.013L225.871 136.817L229.892 134.479L229.557 132.675Z"
        fill="white" />
      <path opacity="0.5" d="M256.897 125.994L253.145 128.198L253.48 129.935L257.232 127.797L256.897 125.994Z"
        fill="white" />
      <g opacity="0.5">
        <path opacity="0.5" d="M257.232 130.203L254.417 131.873L254.752 133.677L257.567 132.007L257.232 130.203Z"
          fill="white" />
        <path opacity="0.5" d="M262.593 127.196L258.84 129.334L259.175 131.138L262.861 128.933L262.593 127.196Z"
          fill="white" />
      </g>
      <path opacity="0.5" d="M245.706 123.455L243.16 124.925L243.495 126.662L246.041 125.259L245.706 123.455Z"
        fill="white" />
      <path opacity="0.5" d="M249.66 121.183L247.113 122.586L247.448 124.39L249.995 122.92L249.66 121.183Z"
        fill="white" />
    </g>
    <path opacity="0.5" d="M230.16 100.539L221.515 105.483L221.783 107.287L230.495 102.343L230.16 100.539Z"
      fill="white" />
    <path opacity="0.5" d="M239.876 94.9268L231.768 99.6035L232.036 101.407L240.144 96.7306L239.876 94.9268Z"
      fill="white" />
    <path opacity="0.5" d="M243.964 92.5884L241.484 94.0582L241.752 95.7953L244.299 94.3923L243.964 92.5884Z"
      fill="white" />
    <path opacity="0.5" d="M247.917 90.3169L245.438 91.7199L245.706 93.5238L248.252 92.054L247.917 90.3169Z"
      fill="white" />
    <path opacity="0.5" d="M250.397 90.8513L255.892 87.7112L255.624 85.9073L250.129 89.0474L250.397 90.8513Z"
      fill="white" />
  </g>
   <path opacity="0.6"
      d="M347.548 180.724C356.187 185.715 370.099 185.715 378.738 180.724C387.321 175.734 387.321 167.715 378.738 162.725C370.099 157.79 356.187 157.79 347.548 162.725C338.965 167.715 338.965 175.734 347.548 180.724Z"
      fill="#020230" />
  <g class="cup">
    <path
      d="M336.329 149.043C336.329 152.8 338.797 156.557 343.79 159.472C353.775 165.192 369.932 165.192 379.917 159.472C384.91 156.557 387.378 152.8 387.378 149.043L393.268 81.0819H330.495L336.329 149.043Z"
      fill="url(#paint12_radial_716_35)" />
    <path opacity="0.4"
      d="M331.617 94.5395L336.329 149.043C336.329 152.8 338.797 156.557 343.79 159.472C348.053 161.884 353.439 163.285 358.992 163.678C351.475 162.052 347.549 159.248 345.529 156.893C344.127 155.211 343.341 153.08 343.285 150.949L341.153 101.268C354.673 106.988 374.475 105.474 386.48 97.5114C388.892 95.8853 390.856 94.0909 392.258 92.2966L393.268 81.0819H330.495L331.617 94.5395Z"
      fill="#06033E" />
    <path opacity="0.4"
      d="M339.695 93.9227C351.924 100.988 371.782 100.988 384.068 93.9227C396.297 86.8575 396.297 75.3624 384.068 68.2972C371.782 61.232 351.924 61.232 339.695 68.2972C327.409 75.3624 327.409 86.8575 339.695 93.9227Z"
      fill="#06033E" />
    <path opacity="0.4"
      d="M342.724 85.736C353.326 91.848 370.436 91.848 380.982 85.736C391.529 79.624 391.529 69.7551 380.982 63.6992C370.436 57.5872 353.326 57.5872 342.724 63.6992C332.177 69.7551 332.177 79.624 342.724 85.736Z"
      fill="#06033E" />
    <path
      d="M338.348 94.6516C351.307 102.165 372.4 102.165 385.414 94.6516C392.202 90.7265 395.456 85.5117 395.119 80.3529V80.2408C395.082 80.1286 395.063 79.9978 395.063 79.8483L394.502 74.4092H394.446C394.334 69.699 391.192 64.9889 384.909 61.4002C372.175 54.0546 351.531 54.0546 338.797 61.4002C332.683 64.9328 329.541 69.4747 329.261 74.0727L329.205 74.0167L328.644 80.0726C328.644 80.1099 328.644 80.1473 328.644 80.1847L328.588 80.2408H328.644C328.251 85.4556 331.448 90.7265 338.348 94.6516Z"
      fill="url(#paint13_linear_716_35)" />
    <path
      d="M342.724 85.736C353.326 91.848 370.436 91.848 380.982 85.736C391.529 79.624 391.529 69.7551 380.982 63.6992C370.436 57.5872 353.326 57.5872 342.724 63.6992C332.177 69.7551 332.177 79.624 342.724 85.736Z"
      fill="url(#paint14_linear_716_35)" />
    <path
      d="M344.014 85.736C354.561 91.848 371.67 91.848 382.273 85.736C392.819 79.624 392.819 69.7551 382.273 63.6992C371.67 57.5872 354.561 57.5872 344.014 63.6992C333.468 69.7551 333.468 79.624 344.014 85.736Z"
      fill="url(#paint15_linear_716_35)" />
    <path opacity="0.4"
      d="M381.375 85.5117C391.529 79.3997 391.417 69.699 380.982 63.6992C370.436 57.5872 353.326 57.5872 342.724 63.6992C341.378 64.4842 340.181 65.3253 339.134 66.2225C339.302 66.1664 339.414 66.1103 339.526 65.9982C350.073 59.9423 367.182 59.9423 377.785 65.9982C386.929 71.3251 388.107 79.4558 381.375 85.5117Z"
      fill="#06033E" />
    <path
      d="M388.78 76.0914C389.453 71.6616 386.873 67.0636 380.983 63.6992C370.436 57.5872 353.326 57.5872 342.724 63.6992C336.89 67.0636 334.253 71.6616 334.927 76.0914C335.487 72.5587 338.068 69.0822 342.724 66.3907C353.326 60.2787 370.436 60.2787 380.983 66.3907C385.639 69.0822 388.275 72.5587 388.78 76.0914Z"
      fill="url(#paint16_linear_716_35)" />
    <path fill-rule="evenodd" clip-rule="evenodd"
      d="M338.797 88.2593C351.699 95.5489 372.399 95.3806 385.134 87.8668C397.868 80.353 397.756 68.4094 384.909 61.1199C372.063 53.8864 351.307 54.0546 338.573 61.5684C325.839 69.0262 325.951 81.0259 338.797 88.2593ZM342.724 63.6992C353.326 57.5872 370.436 57.5872 380.982 63.6992C391.529 69.7551 391.529 79.624 380.982 85.736C377.448 87.7547 373.185 89.1004 368.697 89.7733L368.192 88.2032C367.968 87.5304 367.407 87.0818 366.734 87.0818H357.029C356.299 87.0818 355.739 87.5304 355.514 88.2032L355.009 89.7733C350.521 89.1004 346.258 87.7547 342.724 85.736C332.178 79.624 332.178 69.7551 342.724 63.6992Z"
      fill="url(#paint17_radial_716_35)" />
    <path
      d="M334.87 74.1289C335.095 70.3159 337.731 66.559 342.724 63.6992C353.326 57.5873 370.436 57.5873 380.983 63.6992C385.975 66.559 388.612 70.3159 388.836 74.1289C389.117 69.9794 386.48 65.7179 380.983 62.5217C370.436 56.4097 353.326 56.4097 342.724 62.5217C337.227 65.7179 334.59 69.9794 334.87 74.1289Z"
      fill="white" />
    <path
      d="M329.148 74.297C328.868 79.3436 332.065 84.4462 338.797 88.2592C351.699 95.5487 372.399 95.3805 385.134 87.8667C391.697 83.9976 394.838 78.951 394.558 73.9605C394.334 78.5585 391.192 83.1565 385.134 86.6892C372.399 94.203 351.699 94.3712 338.797 87.1377C332.57 83.6051 329.373 79.0071 329.148 74.297Z"
      fill="white" />
    <path
      d="M358.936 90.6145H364.77C365.163 90.6145 365.5 90.278 365.5 89.8855V89.7734C365.5 89.3809 365.163 89.0444 364.77 89.0444H358.936C358.543 89.0444 358.207 89.3809 358.207 89.7734V89.8855C358.207 90.278 358.543 90.6145 358.936 90.6145Z"
      fill="#0C0A78" />
    <path
      d="M358.207 89.7734V89.8855C358.207 89.9603 358.226 90.0351 358.263 90.1098C358.375 89.7734 358.6 89.5491 358.936 89.5491H364.77C365.107 89.5491 365.387 89.7734 365.443 90.1098C365.481 90.0351 365.5 89.9603 365.5 89.8855V89.7734C365.5 89.3809 365.163 89.0444 364.77 89.0444H358.936C358.543 89.0444 358.207 89.3809 358.207 89.7734Z"
      fill="url(#paint18_linear_716_35)" />
    <path
      d="M360.956 142.034C361.685 144.725 364.434 146.295 367.127 145.622C369.763 144.893 371.39 142.146 370.661 139.454C369.932 136.819 367.407 136.034 364.771 136.763C362.078 137.436 360.283 139.398 360.956 142.034Z"
      fill="#E8975B" />
    <path
      d="M357.029 136.763C358.039 137.772 359.329 137.604 360.171 136.763C361.012 135.865 361.124 134.576 360.115 133.566C359.105 132.613 357.198 132.108 356.356 133.006C355.459 133.847 356.02 135.753 357.029 136.763Z"
      fill="#E8975B" />
    <path
      d="M362.246 132.557C362.527 133.959 363.649 134.632 364.827 134.408C366.061 134.183 366.902 133.174 366.622 131.772C366.398 130.426 365.107 128.912 363.929 129.137C362.695 129.305 362.022 131.155 362.246 132.557Z"
      fill="#E8975B" />
    <path
      d="M368.754 131.94C368.193 133.23 368.81 134.408 369.932 134.856C371.054 135.305 372.288 134.912 372.849 133.623C373.354 132.333 373.129 130.37 371.951 129.866C370.829 129.417 369.259 130.651 368.754 131.94Z"
      fill="#E8975B" />
    <path opacity="0.5"
      d="M363.649 89.8295C358.263 87.437 355.533 82.8951 355.459 76.2037C355.346 67.7366 357.141 69.7552 365.276 52.0921C370.736 40.3167 370.549 30.0927 364.715 21.42C370.324 37.5131 356.468 43.6811 349.344 63.8115C344.632 77.269 348.11 85.9417 359.778 89.8295H363.649Z"
      fill="white" />
    <path opacity="0.5"
      d="M358.207 24.2237C359.441 16.1866 356.281 8.112 348.727 6.10352e-05C355.421 14.8782 357.665 25.9994 355.458 33.3637C357.216 28.6909 358.132 25.6443 358.207 24.2237Z"
      fill="white" />
  </g>
  <defs>
    <linearGradient id="paint0_linear_716_35" x1="105.117" y1="39.2744" x2="288.325" y2="39.2744"
      gradientUnits="userSpaceOnUse">
      <stop stop-color="#7BDAFF" />
      <stop offset="1" stop-color="#59BDEF" />
    </linearGradient>
    <linearGradient id="paint1_linear_716_35" x1="107.664" y1="40.6775" x2="290.804" y2="40.6775"
      gradientUnits="userSpaceOnUse">
      <stop stop-color="#2573BA" />
      <stop offset="1" stop-color="#0063AD" />
    </linearGradient>
    <linearGradient id="paint2_linear_716_35" x1="107.664" y1="40.6775" x2="290.804" y2="40.6775"
      gradientUnits="userSpaceOnUse">
      <stop stop-color="#2C75E4" />
      <stop offset="0.5" stop-color="#58068E" />
      <stop offset="1" stop-color="#A31FA9" />
    </linearGradient>
    <linearGradient id="paint3_linear_716_35" x1="111.215" y1="47.5588" x2="287.051" y2="47.5588"
      gradientUnits="userSpaceOnUse">
      <stop stop-color="#7BDAFF" />
      <stop offset="1" stop-color="#59BDEF" />
    </linearGradient>
    <linearGradient id="paint4_linear_716_35" x1="129.509" y1="174.632" x2="388.84" y2="174.632"
      gradientUnits="userSpaceOnUse">
      <stop stop-color="#2C75E4" />
      <stop offset="0.5" stop-color="#58068E" />
      <stop offset="1" stop-color="#A31FA9" />
    </linearGradient>
    <radialGradient id="paint5_radial_716_35" cx="0" cy="0" r="1" gradientUnits="userSpaceOnUse"
      gradientTransform="translate(122.138 262.354) rotate(180) scale(274.275 273.455)">
      <stop stop-color="#2979E4" />
      <stop offset="1" stop-color="#8D139B" />
    </radialGradient>
    <linearGradient id="paint6_linear_716_35" x1="98.0145" y1="100.405" x2="385.691" y2="100.405"
      gradientUnits="userSpaceOnUse">
      <stop stop-color="#C0BFF6" />
      <stop offset="1" stop-color="#E9E9FD" />
    </linearGradient>
    <radialGradient id="paint7_radial_716_35" cx="0" cy="0" r="1" gradientUnits="userSpaceOnUse"
      gradientTransform="translate(188.747 202.959) rotate(180) scale(53.8095 53.6487)">
      <stop stop-color="#22215B" />
      <stop offset="1" stop-color="#0C0F38" />
    </radialGradient>
    <radialGradient id="paint8_radial_716_35" cx="0" cy="0" r="1" gradientUnits="userSpaceOnUse"
      gradientTransform="translate(178.561 193.472) rotate(180) scale(51.2631 51.1099)">
      <stop stop-color="#22215B" />
      <stop offset="1" stop-color="#0C0F38" />
    </radialGradient>
    <radialGradient id="paint9_radial_716_35" cx="0" cy="0" r="1" gradientUnits="userSpaceOnUse"
      gradientTransform="translate(160.066 194.474) rotate(180) scale(59.5054 59.3276)">
      <stop stop-color="#22215B" />
      <stop offset="1" stop-color="#0C0F38" />
    </radialGradient>
    <radialGradient id="paint10_radial_716_35" cx="0" cy="0" r="1" gradientUnits="userSpaceOnUse"
      gradientTransform="translate(151.69 189.664) rotate(180) scale(59.5054 59.3276)">
      <stop stop-color="#22215B" />
      <stop offset="1" stop-color="#0C0F38" />
    </radialGradient>
    <radialGradient id="paint11_radial_716_35" cx="0" cy="0" r="1" gradientUnits="userSpaceOnUse"
      gradientTransform="translate(143.313 184.854) rotate(180) scale(59.5054 59.3276)">
      <stop stop-color="#22215B" />
      <stop offset="1" stop-color="#0C0F38" />
    </radialGradient>
    <radialGradient id="paint12_radial_716_35" cx="0" cy="0" r="1" gradientUnits="userSpaceOnUse"
      gradientTransform="translate(398.429 100.708) rotate(180) scale(185.514 185.434)">
      <stop stop-color="#E39A65" />
      <stop offset="0.2" stop-color="#A92FFB" />
      <stop offset="0.4" stop-color="#3919BB" />
      <stop offset="0.9" stop-color="#3919BB" />
    </radialGradient>
    <linearGradient id="paint13_linear_716_35" x1="394.839" y1="53.8303" x2="328.924" y2="53.8303"
      gradientUnits="userSpaceOnUse">
      <stop stop-color="#E39A65" />
      <stop offset="0.3" stop-color="#A92FFB" />
      <stop offset="0.6" stop-color="#3919BB" />
    </linearGradient>
    <linearGradient id="paint14_linear_716_35" x1="386.48" y1="57.0825" x2="337.226" y2="57.0825"
      gradientUnits="userSpaceOnUse">
      <stop stop-color="#4F1FEC" />
      <stop offset="1" stop-color="#A92FFB" />
    </linearGradient>
    <linearGradient id="paint15_linear_716_35" x1="387.77" y1="57.0825" x2="338.517" y2="57.0825"
      gradientUnits="userSpaceOnUse">
      <stop stop-color="#4F1FEC" />
      <stop offset="1" stop-color="#A92FFB" />
    </linearGradient>
    <linearGradient id="paint16_linear_716_35" x1="388.331" y1="57.0825" x2="321.575" y2="57.0825"
      gradientUnits="userSpaceOnUse">
      <stop stop-color="#131060" />
      <stop offset="0.6" stop-color="#740DF8" />
      <stop offset="1" stop-color="#E8975B" />
    </linearGradient>
    <radialGradient id="paint17_radial_716_35" cx="0" cy="0" r="1" gradientUnits="userSpaceOnUse"
      gradientTransform="translate(399.663 60.7273) rotate(180) scale(110.4 110.352)">
      <stop stop-color="#E39A65" />
      <stop offset="0.3" stop-color="#A92FFB" />
      <stop offset="0.7" stop-color="#3919BB" />
    </radialGradient>
    <linearGradient id="paint18_linear_716_35" x1="366.117" y1="86.8015" x2="356.692" y2="86.8015"
      gradientUnits="userSpaceOnUse">
      <stop stop-color="#131060" />
      <stop offset="0.6" stop-color="#740DF8" />
      <stop offset="1" stop-color="#E8975B" />
    </linearGradient>
  </defs>
</svg>