<svg width="134" height="145" viewBox="0 0 134 145" fill="none" xmlns="http://www.w3.org/2000/svg">
<path d="M124.258 72.1529C124.211 51.2291 120.728 30.4658 113.959 10.7499C74.1722 18.7765 38.2125 40.5854 12 72.5861C38.2121 104.586 74.1711 126.395 113.957 134.422C120.774 114.569 124.258 93.6555 124.258 72.5861C124.259 72.4417 124.259 72.2973 124.258 72.1529Z" stroke="white" stroke-width="18"/>
<path d="M121.764 72.1735C121.719 52.2461 118.391 32.4716 111.922 13.6945C73.9038 21.3389 39.5423 42.1093 14.4947 72.5862C39.5419 103.063 73.9027 123.833 111.92 131.478C118.434 112.57 121.764 92.6523 121.764 72.5862C121.764 72.4486 121.764 72.3111 121.764 72.1735Z" stroke="url(#paint0_linear_775_214)" stroke-width="18"/>
<path d="M109.11 72.2973C109.077 58.3481 106.678 44.5059 102.014 31.362C74.6057 36.7131 49.8335 51.2524 31.7759 72.5862C49.8332 93.9197 74.605 108.459 102.013 113.81C106.709 100.575 109.109 86.6324 109.11 72.5862C109.11 72.4899 109.11 72.3936 109.11 72.2973Z" stroke="url(#paint1_linear_775_214)" stroke-width="18"/>
<defs>
<linearGradient id="paint0_linear_775_214" x1="121.764" y1="72.5862" x2="14.4947" y2="72.5862" gradientUnits="userSpaceOnUse">
<stop stop-color="#80D4FF"/>
<stop offset="1" stop-color="#80D4FF" stop-opacity="0"/>
</linearGradient>
<linearGradient id="paint1_linear_775_214" x1="109.11" y1="72.5862" x2="31.7759" y2="72.5862" gradientUnits="userSpaceOnUse">
<stop stop-color="#74C3EB"/>
<stop offset="0.515625" stop-color="#80D4FF" stop-opacity="0"/>
</linearGradient>
</defs>
</svg>
