<svg xmlns="http://www.w3.org/2000/svg" width="28.96" height="24.86" viewBox="0 0 7.662 6.578"><path d="M46.654 101.741c-1.852-.977.402-5.375-3.418-5.375h-1.292v.902h.964c3.407 0-.064 5.676 4.402 5.676l2.434-4.388v4.388h1.302v-6.578h-1.302zm-4.71 1.203h1.292v-4.745h-1.292z" style="font-style:normal;font-variant:normal;font-weight:400;font-stretch:normal;font-size:10.5833px;line-height:1.25;font-family:'Bodwars DEMO';-inkscape-font-specification:'Bodwars DEMO, Normal';font-variant-ligatures:normal;font-variant-caps:normal;font-variant-numeric:normal;font-variant-east-asian:normal;white-space:pre;fill:#fff;fill-opacity:1;stroke:none;stroke-width:.942272" transform="translate(-39.393 -82.922)"/><text xml:space="preserve" style="font-style:normal;font-weight:400;font-size:10.5833px;line-height:1.25;font-family:sans-serif;fill:#000;fill-opacity:1;stroke:none;stroke-width:.264583" x="49.184" y="105.802" transform="translate(-39.393 -82.922)"/><g style="font-style:normal;font-weight:400;font-size:10.5833px;line-height:1.25;font-family:sans-serif;fill:#000;fill-opacity:1;stroke:none;stroke-width:.264583"><path d="M48.279 102.263h1.291v-.572c0-3.693 5.842-3.63 5.62-6.837h-1.302c0 1.852-2.667 2.297-4.318 3.853v-3.853h-1.291zm3.46-2.456c.54 1.196 1.652 2.456 4.202 2.456v-1.143c-1.926-.064-2.794-.964-3.228-1.98z" style="font-style:normal;font-variant:normal;font-weight:400;font-stretch:normal;font-size:10.5833px;font-family:'Bodwars DEMO';-inkscape-font-specification:'Bodwars DEMO, Normal';font-variant-ligatures:normal;font-variant-caps:normal;font-variant-numeric:normal;font-variant-east-asian:normal;fill:#fff;stroke-width:.264583" transform="matrix(1 0 0 .88788 -48.279 -84.219)" aria-label="k"/></g></svg>