<svg width="75" height="28" viewBox="0 0 75 28" fill="none" xmlns="http://www.w3.org/2000/svg">
<path d="M0.05 11H2.822V5.624L5.58 8.116L8.324 5.61V11H11.096V0.499999H9.85L5.58 4.392L1.296 0.499999H0.05V11ZM12.9923 11H15.7363L16.3663 9.628H20.6643L21.3083 11H24.0663L19.1243 0.499999H17.8923L12.9923 11ZM17.4443 7.304L18.5223 4.994L19.5863 7.304H17.4443ZM30.7204 11C32.0784 11 33.4644 10.426 34.4444 9.446L32.4844 7.514C32.0504 7.962 31.4344 8.214 30.7204 8.214C29.2924 8.214 28.2564 7.178 28.2564 5.75C28.2564 4.322 29.2924 3.286 30.7204 3.286C31.4204 3.286 32.0224 3.524 32.4844 3.972L34.4164 2.026C33.4644 1.074 32.1624 0.499999 30.7204 0.499999C27.8224 0.499999 25.4704 2.852 25.4704 5.75C25.4704 8.648 27.8224 11 30.7204 11ZM36.7333 11H39.4913V8.438L40.1493 7.766L43.3553 11H47.3033L42.0953 5.778L47.3873 0.499999H43.5233L39.4913 4.504V0.499999H36.7333V11ZM59.0061 5.764C59.0061 2.866 56.6541 0.499999 53.7561 0.499999C50.8581 0.499999 48.5201 2.866 48.5201 5.764C48.5201 8.662 50.8581 11 53.7561 11C56.6541 11 59.0061 8.662 59.0061 5.764ZM56.2621 5.75C56.2621 7.122 55.1421 8.256 53.7561 8.256C52.3841 8.256 51.2641 7.122 51.2641 5.75C51.2641 4.364 52.3841 3.244 53.7561 3.244C55.1421 3.244 56.2621 4.364 56.2621 5.75ZM63.5715 11H66.3575L67.3935 7.892L68.4015 11H71.1875L74.6455 0.499999H71.8455L69.8015 6.744L68.7795 3.664H65.9935L64.9715 6.758L62.9275 0.499999H60.1275L63.5715 11ZM0.19 28H2.948V25.438L3.606 24.766L6.812 28H10.76L5.552 22.778L10.844 17.5H6.98L2.948 21.504V17.5H0.19V28ZM11.8302 28H14.5742L15.2042 26.628H19.5022L20.1462 28H22.9042L17.9622 17.5H16.7302L11.8302 28ZM16.2822 24.304L17.3602 21.994L18.4242 24.304H16.2822ZM24.795 28H27.567V22.624L30.325 25.116L33.069 22.61V28H35.841V17.5H34.595L30.325 21.392L26.041 17.5H24.795V28ZM38.6473 28H41.4053V17.5H38.6473V28ZM44.348 28H50.886V25.228H47.106V17.5H44.348V28Z" fill="white"/>
</svg>
