<svg width="617" height="490" viewBox="0 0 617 490" fill="none" xmlns="http://www.w3.org/2000/svg">
  <style>
    @keyframes float-small {
      0% {
        transform: translatey(-3px);
      }

      50% {
        transform: translatey(3px);
      }

      100% {
        transform: translatey(-3px);
      }
    }
    
    @keyframes float {
      0% {
        transform: translatey(10px);
      }

      50% {
        transform: translatey(-10px);
      }

      100% {
        transform: translatey(10px);
      }
    }

    @keyframes fade {
      from {
        opacity: 1;
      }

      to {
        opacity: 0.4;
      }
    }

    .atom {
      animation: float ease-in-out 4s infinite;
    }

    .ball {
      animation: float-small ease-in-out 3s infinite;
    }

    .laptop {
      animation: float ease-in-out 7s infinite;
    }

    .home {
      animation: float ease-in-out 8s infinite;
      -o-animation-delay: 1s;
    }

    .phone {
      animation: float ease-in-out 6s infinite;
    }

    .light {
      animation: fade ease-in-out 2s infinite alternate;
    }
  </style>
  <g clip-path="url(#clip0_895_264)">
    <path
      d="M248.959 589.032L368.085 588.907L367.996 369.03C368.041 360.59 362.179 352.149 350.412 345.714C327.098 332.969 289.417 332.969 266.235 345.714C254.557 352.149 248.783 360.59 248.959 369.03V589.032Z"
      fill="url(#paint0_linear_895_264)" />
    <path
      d="M47.3809 459.441L166.506 459.316L166.418 239.44C166.462 230.999 160.6 222.558 148.833 216.123C125.52 203.379 87.8384 203.379 64.6569 216.123C52.9779 222.558 47.2046 230.999 47.3809 239.44V459.441V459.441Z"
      fill="url(#paint1_linear_895_264)" />
    <path
      d="M450.494 459.441L569.619 459.316L569.531 239.44C569.575 230.999 563.714 222.558 551.947 216.123C528.633 203.379 490.952 203.379 467.77 216.123C456.091 222.558 450.318 230.999 450.494 239.44V459.441V459.441Z"
      fill="url(#paint2_linear_895_264)" />
    <path
      d="M396.246 130.045C445.033 156.746 445.254 200.036 396.819 226.737C348.341 253.438 269.541 253.438 220.754 226.737C171.967 200.036 171.702 156.746 220.181 130.045C268.66 103.344 347.459 103.344 396.246 130.045Z"
      fill="#044BBC" />
    <path
      d="M387.564 134.014C431.504 156.996 431.724 194.269 388.093 217.251C344.419 240.234 273.419 240.234 229.48 217.251C185.541 194.269 185.277 156.996 228.951 134.014C272.582 111.032 343.625 111.032 387.564 134.014Z"
      fill="#007FDD" />
    <path
      d="M382.805 136.313C424.1 157.581 424.32 192.096 383.29 213.365C342.259 234.634 275.535 234.634 234.24 213.365C192.945 192.096 192.725 157.581 233.755 136.313C274.742 115.002 341.51 115.002 382.805 136.313Z"
      fill="#00A2DB" />
    <path
      d="M375.401 139.948C412.597 158.835 412.773 189.506 375.842 208.393C338.91 227.28 278.796 227.28 241.6 208.393C204.404 189.506 204.227 158.835 241.159 139.948C278.091 121.019 338.205 121.019 375.401 139.948Z"
      fill="#00F3FF" />
    <path
      d="M405.942 141.327L405.81 162.763C405.766 176.385 396.334 189.965 377.516 200.328C339.57 221.221 277.915 221.221 239.705 200.328C220.489 189.798 210.882 176.009 210.926 162.22L211.058 140.784C211.014 154.573 220.622 168.362 239.837 178.892C278.003 199.785 339.703 199.785 377.648 178.892C396.467 168.488 405.898 154.907 405.942 141.327Z"
      fill="url(#paint3_linear_895_264)" />
    <path
      d="M238.999 190.007C257.686 200.621 282.454 206.429 308.72 206.429C335.031 206.429 359.711 200.579 378.265 190.007C393.073 181.525 402.593 170.828 405.766 159.169L405.81 155.534C403.694 168.32 393.999 180.187 377.869 189.38C359.447 199.91 334.855 205.719 308.72 205.719C282.542 205.719 257.906 199.91 239.352 189.38C222.825 180.02 212.909 167.903 210.926 154.865L210.882 158.459C214.099 170.41 223.751 181.357 238.999 190.007Z"
      fill="#7DF3FF" />
    <path
      d="M377.164 103.302C415.329 124.195 415.55 158.083 377.604 178.976C339.659 199.869 278.003 199.869 239.793 178.976C201.627 158.083 201.407 124.195 239.352 103.302C277.298 82.4089 338.998 82.4089 377.164 103.302Z"
      fill="#0068C6" />
    <path
      d="M389.768 102.132L389.636 137.9C389.592 149.266 381.747 160.59 366.013 169.24C334.37 186.664 282.939 186.664 251.075 169.24C235.033 160.465 227.056 148.974 227.1 137.482L227.232 101.714C227.188 113.205 235.209 124.738 251.207 133.471C283.027 150.896 334.502 150.896 366.146 133.471C381.835 124.821 389.724 113.456 389.768 102.132Z"
      fill="url(#paint4_linear_895_264)" />
    <path
      d="M365.749 70.4164C397.568 87.8411 397.745 116.088 366.146 133.513C334.502 150.937 283.071 150.937 251.207 133.513C219.344 116.088 219.211 87.8411 250.811 70.4164C282.454 52.9918 333.929 52.9918 365.749 70.4164Z"
      fill="#0068E5" />
    <path
      d="M365.749 70.4164C397.568 87.8411 397.745 116.088 366.146 133.513C334.502 150.937 283.071 150.937 251.207 133.513C219.344 116.088 219.211 87.8411 250.811 70.4164C282.454 52.9918 333.929 52.9918 365.749 70.4164Z"
      fill="#0068C6" />
    <path
      d="M359.711 75.1382C388.182 89.596 388.358 112.996 360.064 127.454C331.77 141.912 285.76 141.912 257.289 127.454C228.819 112.996 228.643 89.596 256.937 75.1382C285.231 60.6803 331.241 60.6803 359.711 75.1382Z"
      fill="#0063A0" />
    <path
      d="M256.937 81.6986C285.231 67.2407 331.241 67.2407 359.711 81.6986C372.36 88.1336 379.411 96.3236 380.866 104.722C382.717 94.1507 375.621 83.2446 359.711 75.18C331.241 60.7221 285.231 60.7221 256.937 75.18C241.203 83.2029 234.284 93.9836 236.091 104.472C237.545 96.1146 244.465 88.05 256.937 81.6986Z"
      fill="#00347F" />
    <path
      d="M338.689 91.3511C355.48 98.7889 355.569 110.781 338.866 118.219C322.163 125.657 295.059 125.657 278.267 118.219C261.476 110.781 261.388 98.7889 278.091 91.3511C294.75 83.9132 321.898 83.9132 338.689 91.3511Z"
      fill="#00DBFF" />
    <path
      d="M335.56 93.7747C350.632 99.8336 350.72 109.653 335.736 115.754C320.752 121.813 296.336 121.813 281.264 115.754C266.192 109.695 266.103 99.8754 281.088 93.7747C296.072 87.7157 320.488 87.7157 335.56 93.7747Z"
      fill="#BDFFFF" />
    <path
      d="M239.44 154.991C242.966 158.751 247.638 162.303 253.411 165.437C262.269 170.284 272.935 173.836 284.57 175.884V148.974C271.304 146.801 259.096 142.831 248.96 137.274C245.478 135.351 242.305 133.304 239.485 131.131V154.991H239.44Z"
      fill="#052575" />
    <path
      d="M377.56 131.34C374.828 133.429 371.787 135.393 368.438 137.232C358.213 142.873 345.873 146.884 332.431 149.015V175.884C344.154 173.836 354.819 170.284 363.722 165.395C369.451 162.261 374.079 158.71 377.56 154.907V131.34V131.34Z"
      fill="#052575" />
    <path
      d="M243.715 155.283C244.244 155.785 244.861 156.286 245.434 156.788V138.444C244.861 138.109 244.288 137.775 243.715 137.399V155.283Z"
      fill="#00DBFF" />
    <path
      d="M277.166 171.538C277.738 171.663 278.311 171.83 278.884 171.956V150.687C278.311 150.561 277.738 150.436 277.166 150.311V171.538Z"
      fill="#00DBFF" />
    <path
      d="M250.194 157.623V140.992C249.621 140.7 249.048 140.407 248.475 140.115V156.37C249.048 156.788 249.621 157.205 250.194 157.623Z"
      fill="#00DBFF" />
    <path
      d="M254.998 156.161V143.291C254.425 143.04 253.852 142.789 253.279 142.539V155.074C253.808 155.409 254.381 155.785 254.998 156.161Z"
      fill="#00DBFF" />
    <path
      d="M259.757 164.351V145.213C259.184 145.004 258.611 144.753 258.039 144.544V163.515C258.611 163.808 259.184 164.058 259.757 164.351Z"
      fill="#00DBFF" />
    <path
      d="M264.561 158.041V146.884C263.988 146.675 263.415 146.508 262.842 146.299V157.247C263.415 157.54 263.988 157.79 264.561 158.041Z"
      fill="#00DBFF" />
    <path
      d="M269.321 165.228V148.347C268.748 148.18 268.175 148.012 267.602 147.845V164.601C268.175 164.81 268.748 165.019 269.321 165.228Z"
      fill="#00DBFF" />
    <path
      d="M272.406 164.518C272.979 164.685 273.552 164.894 274.125 165.061V149.642C273.552 149.517 272.979 149.35 272.406 149.224V164.518Z"
      fill="#00DBFF" />
    <path
      d="M373.285 155.283C372.756 155.785 372.139 156.286 371.566 156.788V138.444C372.139 138.109 372.712 137.775 373.285 137.399V155.283Z"
      fill="#00DBFF" />
    <path
      d="M339.791 171.538C339.218 171.663 338.645 171.83 338.072 171.956V150.687C338.645 150.561 339.218 150.436 339.791 150.311V171.538Z"
      fill="#00DBFF" />
    <path
      d="M366.763 157.623V140.992C367.336 140.7 367.909 140.407 368.482 140.115V156.37C367.953 156.788 367.38 157.205 366.763 157.623Z"
      fill="#00DBFF" />
    <path
      d="M362.003 156.161V143.291C362.576 143.04 363.149 142.789 363.722 142.539V155.074C363.149 155.409 362.576 155.785 362.003 156.161Z"
      fill="#00DBFF" />
    <path
      d="M357.199 164.351V145.213C357.772 145.004 358.345 144.753 358.918 144.544V163.515C358.345 163.808 357.772 164.058 357.199 164.351Z"
      fill="#00DBFF" />
    <path
      d="M352.439 158.041V146.884C353.012 146.675 353.585 146.508 354.158 146.299V157.247C353.585 157.54 353.012 157.79 352.439 158.041Z"
      fill="#00DBFF" />
    <path
      d="M347.636 165.228V148.347C348.209 148.18 348.782 148.012 349.355 147.845V164.601C348.782 164.81 348.209 165.019 347.636 165.228Z"
      fill="#00DBFF" />
    <path
      d="M344.595 164.518C344.022 164.685 343.449 164.894 342.876 165.061V149.642C343.449 149.517 344.022 149.35 344.595 149.224V164.518Z"
      fill="#00DBFF" />
    <path
      d="M308.677 134.808C291.268 134.808 274.874 131.674 262.534 125.991C250.062 120.267 243.23 112.662 243.23 104.514C243.23 96.4489 249.973 88.8857 262.269 83.2028C274.521 77.52 290.872 74.386 308.28 74.386C325.688 74.386 342.083 77.52 354.423 83.2028C366.851 88.9275 373.726 96.5325 373.726 104.681C373.726 112.745 366.983 120.309 354.687 125.991C342.435 131.674 326.085 134.808 308.677 134.808ZM308.236 74.8039C290.916 74.8039 274.609 77.896 262.402 83.5789C250.282 89.1782 243.627 96.6161 243.627 104.514C243.627 112.453 250.414 119.974 262.71 125.615C275.006 131.256 291.312 134.39 308.677 134.39C325.997 134.39 342.303 131.298 354.511 125.615C366.63 120.016 373.285 112.578 373.285 104.681C373.285 96.7414 366.498 89.22 354.202 83.5789C341.906 77.9378 325.6 74.8039 308.236 74.8039Z"
      fill="#00DBFF" />
    <g class="atom">
      <path class="ball"
        d="M308.368 65.82C316.279 65.82 322.691 59.7399 322.691 52.2397C322.691 44.7394 316.279 38.6593 308.368 38.6593C300.458 38.6593 294.045 44.7394 294.045 52.2397C294.045 59.7399 300.458 65.82 308.368 65.82Z"
        fill="#E9FFFE" />
      <path
        d="M308.368 78.1468C282.63 78.1468 261.74 66.99 261.74 53.2425C261.74 39.495 282.674 28.3382 308.368 28.3382C334.061 28.3382 354.995 39.495 354.995 53.2425C354.995 66.99 334.106 78.1468 308.368 78.1468ZM308.368 29.6336C283.379 29.6336 263.062 40.2471 263.062 53.2843C263.062 66.3214 283.379 76.935 308.368 76.935C333.356 76.935 353.673 66.3214 353.673 53.2843C353.673 40.2471 333.356 29.6336 308.368 29.6336Z"
        fill="#E9FFFE" />
      <path
        d="M330.624 93.3568C319.694 93.3568 303.917 82.0329 291.312 65.1932C283.776 55.1229 278.443 44.4675 276.284 35.1493C274.08 25.6639 275.49 18.7275 280.206 15.5518C281.969 14.3818 284.128 13.755 286.596 13.755C297.526 13.755 313.304 25.0789 325.908 41.9186C333.444 51.9889 338.777 62.6443 340.937 71.9625C343.14 81.4479 341.73 88.3843 337.014 91.56C335.251 92.7718 333.136 93.3568 330.624 93.3568ZM286.641 15.0504C284.437 15.0504 282.542 15.5518 280.999 16.5964C272.053 22.6136 277.165 44.0914 292.414 64.4829C304.578 80.7375 320.311 92.1032 330.624 92.1032C332.827 92.1032 334.722 91.6018 336.265 90.5572C340.496 87.7157 341.73 81.1972 339.658 72.255C337.543 63.1457 332.299 52.6157 324.85 42.6707C312.687 26.4161 296.953 15.0504 286.641 15.0504Z"
        fill="#E9FFFE" />
      <path
        d="M286.64 93.3568C284.172 93.3568 282.013 92.7718 280.25 91.56C275.534 88.3843 274.168 81.4479 276.328 71.9625C278.487 62.6861 283.82 51.9889 291.356 41.9186C303.961 25.0789 319.738 13.755 330.668 13.755C333.136 13.755 335.295 14.34 337.058 15.5518C341.774 18.7275 343.14 25.6639 340.981 35.1493C338.821 44.4257 333.488 55.1229 325.952 65.1932C313.348 82.0329 297.57 93.3568 286.64 93.3568ZM330.624 15.0504C320.267 15.0504 304.533 26.4161 292.414 42.6707C284.966 52.6157 279.721 63.1039 277.606 72.255C275.534 81.1972 276.724 87.7157 280.999 90.5572C282.542 91.6018 284.437 92.1032 286.64 92.1032C296.997 92.1032 312.731 80.7375 324.85 64.4829C332.298 54.5379 337.543 44.0496 339.658 34.8986C341.73 25.9564 340.54 19.4379 336.265 16.5964C334.722 15.5936 332.827 15.0504 330.624 15.0504Z"
        fill="#E9FFFE" />
      <path
        d="M264.296 57.9643C266.852 57.9643 268.924 55.9999 268.924 53.5768C268.924 51.1536 266.852 49.1893 264.296 49.1893C261.741 49.1893 259.669 51.1536 259.669 53.5768C259.669 55.9999 261.741 57.9643 264.296 57.9643Z"
        fill="#FF00C3" />
      <path
        d="M338.116 47.0582C340.575 47.0582 342.567 45.1687 342.567 42.8378C342.567 40.507 340.575 38.6175 338.116 38.6175C335.658 38.6175 333.665 40.507 333.665 42.8378C333.665 45.1687 335.658 47.0582 338.116 47.0582Z"
        fill="#FF00C3" />
      <path
        d="M338.909 91.7689C341.173 91.7689 343.008 90.0291 343.008 87.8829C343.008 85.7367 341.173 83.9968 338.909 83.9968C336.646 83.9968 334.811 85.7367 334.811 87.8829C334.811 90.0291 336.646 91.7689 338.909 91.7689Z"
        fill="#FF00C3" />
    </g>
    <path class="light"
      d="M373.506 104.681C373.506 104.639 373.506 104.597 373.506 104.555V12.4597H243.407V104.806C243.539 112.411 249.973 120.016 262.622 125.824C288.095 137.524 329.302 137.524 354.599 125.824C367.159 120.016 373.461 112.411 373.506 104.806V104.681V104.681Z"
      fill="url(#paint5_linear_895_264)" />
    <path
      d="M368.041 368.905L367.952 381.984C367.908 390.299 362.179 398.573 350.676 404.924C327.495 417.669 289.814 417.669 266.5 404.924C254.777 398.489 248.916 390.09 248.916 381.65L249.004 368.571C248.96 376.97 254.821 385.41 266.588 391.845C289.902 404.59 327.583 404.59 350.765 391.845C362.267 385.494 368.041 377.179 368.041 368.905Z"
      fill="#0561E5" />
    <path
      d="M350.5 345.672C373.814 358.417 373.946 379.142 350.765 391.887C327.583 404.632 289.902 404.632 266.588 391.887C243.275 379.142 243.142 358.417 266.324 345.672C289.505 332.928 327.187 332.928 350.5 345.672Z"
      fill="#00A2DB" />
    <path
      d="M265.574 398.28C277.121 405.342 292.458 409.186 308.72 409.186C324.983 409.186 340.275 405.3 351.778 398.28C359.887 393.308 365.44 387.165 367.952 380.438V378.85C365.705 385.995 360.064 392.598 351.47 397.863C340.055 404.841 324.895 408.727 308.72 408.727C292.546 408.727 277.297 404.883 265.839 397.863C256.892 392.43 251.119 385.578 248.959 378.181V379.769C251.427 386.748 257.157 393.141 265.574 398.28Z"
      fill="#00F3FF" />
    <path
      d="M338.998 351.982C355.921 361.258 356.009 376.301 339.218 385.577C322.383 394.854 295.014 394.854 278.091 385.577C261.167 376.301 261.079 361.258 277.87 351.982C294.706 342.705 322.074 342.705 338.998 351.982Z"
      fill="#00F3FF" />
    <path
      d="M314.714 278.272L349.795 297.577C349.751 297.577 349.751 297.535 349.707 297.535L314.626 278.23C314.67 278.23 314.67 278.23 314.714 278.272Z"
      fill="#E30613" />
    <g class="home">
      <path d="M307.486 356.119L272.45 336.814L272.317 303.845L307.398 323.15L307.486 356.119Z" fill="#052575" />
      <path
        d="M314.626 278.23L293.648 270.583C292.811 270.291 291.797 270.458 290.739 271.043C289.682 271.628 288.668 272.547 287.831 273.759L266.985 304.262C266.368 305.182 266.412 306.101 266.897 306.394L301.977 325.699C301.493 325.406 301.405 324.487 302.066 323.568L322.911 293.064C323.749 291.852 324.762 290.891 325.82 290.348C326.878 289.805 327.891 289.596 328.729 289.888L349.707 297.535L314.626 278.23Z"
        fill="#0056D3" />
      <path
        d="M325.82 290.348C326.834 289.805 327.891 289.596 328.729 289.888L349.707 297.535C350.632 297.869 350.103 299.791 348.869 300.46L344.374 302.925L344.462 335.894L307.486 356.119L307.398 323.15L302.903 325.615C301.713 326.284 301.14 324.946 302.065 323.568L322.911 293.064C323.749 291.852 324.806 290.891 325.82 290.348Z"
        fill="#053EAD" />
      <path d="M320.884 348.806L333.533 341.87V316.004L320.884 322.941V348.806Z" fill="#00F3FF" />
    </g>

    <path
      d="M166.55 239.607L166.462 252.686C166.418 261.001 160.689 269.275 149.186 275.626C126.005 288.371 88.3236 288.371 65.0098 275.626C53.2868 269.191 47.4253 260.792 47.4253 252.351L47.5134 239.273C47.4694 247.671 53.3309 256.112 65.0979 262.547C88.4117 275.292 126.093 275.292 149.274 262.547C160.777 256.237 166.506 247.922 166.55 239.607Z"
      fill="#0561E5" />
    <path
      d="M148.966 216.416C172.279 229.16 172.412 249.886 149.23 262.631C126.049 275.375 88.3674 275.375 65.0536 262.631C41.7399 249.886 41.6076 229.16 64.7892 216.416C87.9708 203.629 125.652 203.629 148.966 216.416Z"
      fill="#00A2DB" />
    <path
      d="M64.0842 269.024C75.6309 276.086 90.9677 279.93 107.23 279.93C123.492 279.93 138.785 276.044 150.288 269.024C158.397 264.051 163.95 257.909 166.462 251.181V249.594C164.214 256.739 158.573 263.341 149.979 268.606C138.565 275.584 123.404 279.47 107.23 279.47C91.0559 279.47 75.8072 275.626 64.3486 268.606C55.4021 263.174 49.6287 256.321 47.4692 248.925V250.513C49.9372 257.491 55.6225 263.884 64.0842 269.024Z"
      fill="#00F3FF" />
    <path
      d="M137.507 222.725C154.431 232.002 154.519 247.045 137.728 256.321C120.892 265.597 93.524 265.597 76.6006 256.321C59.6772 247.045 59.589 232.002 76.3802 222.725C93.2155 213.449 120.584 213.449 137.507 222.725Z"
      fill="#00F3FF" />
    <g class="laptop">
      <path
        d="M70.695 175.884L114.59 151.857C116.529 150.812 118.116 151.648 118.116 153.737L118.204 185.578C118.204 187.667 116.662 190.258 114.722 191.302L70.8272 215.329C68.8881 216.374 67.3015 215.538 67.3015 213.449L67.2134 181.608C67.2134 179.519 68.7559 176.928 70.695 175.884Z"
        fill="#0056D3" />
      <path
        d="M70.5628 178.809C70.034 179.101 69.5933 179.811 69.5933 180.396L69.6814 212.07C69.6814 212.655 70.1221 212.906 70.651 212.613L114.855 188.419C115.383 188.127 115.824 187.416 115.824 186.831L115.736 155.158C115.736 154.573 115.295 154.322 114.766 154.615L70.5628 178.809Z"
        fill="#00F3FF" />
      <path
        d="M69.1086 175.006L113.004 150.979C113.973 150.436 114.855 150.394 115.516 150.729L117.102 151.606C116.485 151.272 115.604 151.314 114.59 151.857L70.6952 175.884C68.756 176.928 67.2135 179.519 67.2135 181.608L67.3017 213.449C67.3017 214.494 67.6983 215.246 68.3153 215.58L66.7287 214.703C66.1117 214.368 65.7151 213.616 65.7151 212.571L65.627 180.731C65.627 178.641 67.2135 176.092 69.1086 175.006Z"
        fill="#052575" />
      <path
        d="M116.397 189.715V192.598C117.235 192.138 118.601 192.138 119.438 192.598V189.715C118.601 189.255 117.235 189.255 116.397 189.715Z"
        fill="#009640" />
      <path
        d="M137.331 202.459C137.728 202.668 137.948 203.003 137.948 203.295V200.412C137.948 200.119 137.728 199.827 137.331 199.576C137.331 200.454 137.331 201.582 137.331 202.459Z"
        fill="#009640" />
      <path d="M119.438 189.715V192.598L137.331 202.459V199.576L119.438 189.715Z" fill="#009640" />
      <path
        d="M137.948 203.295V200.412C137.948 200.704 137.728 201.039 137.331 201.248V204.131C137.772 203.88 137.948 203.588 137.948 203.295Z"
        fill="white" />
      <path d="M72.5464 213.741V216.625L116.442 192.598L116.397 189.715L72.5464 213.741Z" fill="#009640" />
      <path
        d="M72.0615 217.001C72.1497 216.875 72.326 216.708 72.5463 216.625V213.741C72.326 213.867 72.1937 213.992 72.0615 214.117C72.0615 215.079 72.0615 216.04 72.0615 217.001Z"
        fill="#009640" />
      <path
        d="M71.8853 217.46C71.8853 217.293 71.9291 217.168 72.0608 217.001C72.0608 216.04 72.0608 215.079 72.0608 214.118C71.973 214.243 71.8853 214.41 71.8853 214.577C71.8853 215.455 71.8853 216.583 71.8853 217.46Z"
        fill="#009640" />
      <path
        d="M71.8853 214.577V217.46C71.8853 217.753 72.1056 218.045 72.5023 218.296V215.413C72.1056 215.162 71.8853 214.87 71.8853 214.577Z"
        fill="white" />
      <path d="M72.502 215.413L72.546 218.296L90.395 228.158V225.274L72.502 215.413Z" fill="white" />
      <path d="M93.436 225.274V228.158L137.331 204.131V201.248L93.436 225.274Z" fill="white" />
      <path
        d="M90.395 225.274V228.157C91.2324 228.617 92.5986 228.617 93.436 228.157V225.274C92.5986 225.734 91.2324 225.734 90.395 225.274Z"
        fill="white" />
      <path
        d="M70.5629 212.655L114.458 188.628C116.397 187.584 119.526 187.584 121.421 188.628L150.42 204.632C152.36 205.677 152.315 207.39 150.376 208.476L106.481 232.503C104.542 233.548 101.413 233.548 99.5179 232.503L70.5189 216.499C68.6238 215.413 68.6238 213.7 70.5629 212.655Z"
        fill="#0056D3" />
      <path
        d="M72.546 213.741C71.7086 214.201 71.7086 214.953 72.546 215.413L90.439 225.274C91.2763 225.734 92.6426 225.734 93.4799 225.274L137.375 201.248C138.212 200.788 138.212 200.036 137.375 199.576L119.482 189.715C118.645 189.255 117.278 189.255 116.441 189.715L72.546 213.741Z"
        fill="#00F3FF" />
      <path
        d="M70.5188 216.499L99.5178 232.503C101.457 233.548 104.586 233.548 106.481 232.503L150.376 208.476C151.346 207.933 151.831 207.265 151.831 206.554V208.435C151.831 209.145 151.346 209.814 150.376 210.357L106.481 234.384C104.542 235.428 101.413 235.428 99.5178 234.384L70.5188 218.38C69.5492 217.836 69.0645 217.168 69.0645 216.457V214.577C69.1085 215.287 69.5933 215.956 70.5188 216.499Z"
        fill="#052575" />
    </g>

    <path
      d="M569.575 239.607L569.487 252.686C569.443 261.001 563.714 269.275 552.211 275.626C529.029 288.371 491.348 288.371 468.035 275.626C456.312 269.191 450.45 260.792 450.45 252.351L450.538 239.273C450.494 247.671 456.356 256.112 468.123 262.547C491.437 275.292 529.118 275.292 552.299 262.547C563.758 256.237 569.531 247.922 569.575 239.607Z"
      fill="#0561E5" />
    <path
      d="M551.991 216.416C575.304 229.16 575.437 249.886 552.255 262.631C529.073 275.375 491.392 275.375 468.079 262.631C444.765 249.886 444.633 229.16 467.814 216.416C490.996 203.629 528.677 203.629 551.991 216.416Z"
      fill="#00A2DB" />
    <path
      d="M467.109 269.024C478.656 276.086 493.993 279.93 510.255 279.93C526.517 279.93 541.81 276.044 553.313 269.024C561.422 264.051 566.975 257.909 569.487 251.181V249.594C567.239 256.739 561.598 263.341 553.004 268.606C541.59 275.584 526.429 279.47 510.255 279.47C494.081 279.47 478.832 275.626 467.374 268.606C458.427 263.174 452.654 256.321 450.494 248.925V250.513C452.962 257.491 458.647 263.884 467.109 269.024Z"
      fill="#00F3FF" />
    <path
      d="M540.532 222.725C557.456 232.002 557.544 247.045 540.753 256.321C523.917 265.597 496.549 265.597 479.626 256.321C462.702 247.045 462.614 232.002 479.405 222.725C496.196 213.449 523.565 213.449 540.532 222.725Z"
      fill="#00F3FF" />

    <g class="phone">
      <path
        d="M522.022 152.734L492.054 136.354C489.85 135.143 488.043 136.104 488.043 138.527L487.823 210.482C487.823 212.906 489.586 215.831 491.833 217.042L521.802 233.422C524.005 234.634 525.812 233.673 525.812 231.25L526.033 159.295C526.033 156.871 524.27 153.946 522.022 152.734Z"
        fill="#0068C6" />
      <path
        d="M513.208 150.102C513.164 150.06 513.164 149.976 513.12 149.935C513.076 149.893 513.076 149.851 513.032 149.809C512.988 149.767 512.988 149.726 512.944 149.684C512.9 149.642 512.856 149.6 512.856 149.6C512.812 149.559 512.767 149.559 512.723 149.517L501.441 143.332C501.221 143.207 501 143.249 500.912 143.416C500.868 143.458 500.868 143.541 500.868 143.625C500.868 143.709 500.912 143.834 500.912 143.959C500.956 144.043 500.956 144.126 501 144.168C501.044 144.21 501.044 144.252 501.089 144.294C501.133 144.335 501.133 144.377 501.177 144.419C501.221 144.461 501.309 144.502 501.353 144.544C501.353 144.544 501.397 144.544 501.397 144.586L512.679 150.77C512.988 150.937 513.252 150.812 513.252 150.478C513.252 150.352 513.252 150.227 513.208 150.102Z"
        fill="#052575" />
      <path
        d="M504.702 217.544C503.468 216.875 502.455 217.419 502.411 218.756C502.411 220.135 503.424 221.764 504.658 222.475C505.892 223.143 506.906 222.6 506.95 221.263C506.95 219.884 505.936 218.254 504.702 217.544Z"
        fill="#052575" />
      <path d="M491.657 141.243L491.48 208.1L522.242 224.94L522.419 158.083L491.657 141.243Z" fill="#00F3FF" />
      <path
        d="M526.694 150.185L496.725 133.805C495.623 133.179 494.61 133.137 493.861 133.555L489.189 136.104C489.938 135.686 490.908 135.769 492.054 136.354L522.022 152.734C524.226 153.946 526.033 156.871 526.033 159.295L525.812 231.25C525.812 232.461 525.372 233.297 524.622 233.673L529.294 231.124C529.999 230.748 530.44 229.871 530.484 228.701L530.704 156.746C530.704 154.322 528.941 151.397 526.694 150.185Z"
        fill="url(#paint6_linear_895_264)" />
    </g>
  </g>
  <defs>
    <linearGradient id="paint0_linear_895_264" x1="314.342" y1="382.058" x2="308.894" y2="482.136"
      gradientUnits="userSpaceOnUse">
      <stop stop-color="#061F82" />
      <stop offset="0.2199" stop-color="#06288F" stop-opacity="0.7801" />
      <stop offset="0.6956" stop-color="#0538A5" stop-opacity="0.3044" />
      <stop offset="1" stop-color="#053EAD" stop-opacity="0" />
    </linearGradient>
    <linearGradient id="paint1_linear_895_264" x1="106.947" y1="235.332" x2="106.947" y2="355.19"
      gradientUnits="userSpaceOnUse">
      <stop stop-color="#061F82" />
      <stop offset="0.2446" stop-color="#06278D" stop-opacity="0.7554" />
      <stop offset="1" stop-color="#053EAD" stop-opacity="0" />
    </linearGradient>
    <linearGradient id="paint2_linear_895_264" x1="510.055" y1="235.332" x2="510.055" y2="355.19"
      gradientUnits="userSpaceOnUse">
      <stop stop-color="#061F82" />
      <stop offset="0.2446" stop-color="#06278D" stop-opacity="0.7554" />
      <stop offset="1" stop-color="#053EAD" stop-opacity="0" />
    </linearGradient>
    <linearGradient id="paint3_linear_895_264" x1="308.426" y1="169.071" x2="308.426" y2="231.122"
      gradientUnits="userSpaceOnUse">
      <stop stop-color="#052575" />
      <stop offset="0.2446" stop-color="#042B80" />
      <stop offset="1" stop-color="#003DA0" />
    </linearGradient>
    <linearGradient id="paint4_linear_895_264" x1="308.426" y1="131.998" x2="308.426" y2="198.497"
      gradientUnits="userSpaceOnUse">
      <stop stop-color="#052575" />
      <stop offset="0.2446" stop-color="#042B80" />
      <stop offset="1" stop-color="#003DA0" />
    </linearGradient>
    <linearGradient id="paint5_linear_895_264" x1="308.452" y1="188.349" x2="308.452" y2="26.8202"
      gradientUnits="userSpaceOnUse">
      <stop stop-color="#00DBFF" />
      <stop offset="1" stop-color="#00DBFF" stop-opacity="0" />
    </linearGradient>
    <linearGradient id="paint6_linear_895_264" x1="489.238" y1="183.473" x2="530.702" y2="183.473"
      gradientUnits="userSpaceOnUse">
      <stop stop-color="#052575" />
      <stop offset="0.2446" stop-color="#042B80" />
      <stop offset="1" stop-color="#003DA0" />
    </linearGradient>
    <clipPath id="clip0_895_264">
      <rect width="617" height="490" fill="white" />
    </clipPath>
  </defs>
</svg>