<svg xmlns="http://www.w3.org/2000/svg" xmlns:xlink="http://www.w3.org/1999/xlink" data-name="Layer 1" viewBox="0 0 498.72 364.563" width="359.825" height="253.872" class="illustration styles_illustrationTablet__1DWOa"><defs><linearGradient id="j" x1="91.19" y1="302.68" x2="146" y2="261.27" gradientTransform="rotate(38.84 242.587 236.49)" gradientUnits="userSpaceOnUse"><stop offset="0" stop-color="#010101" stop-opacity="0"/><stop offset=".8" stop-color="#010101"/></linearGradient><linearGradient id="i" x1="91.19" y1="302.68" x2="146" y2="261.27" gradientTransform="rotate(38.84 242.587 236.49)" gradientUnits="userSpaceOnUse"><stop offset="0" stop-color="#010101" stop-opacity="0" style="stop-opacity:0"/><stop offset=".852" stop-color="#010101"/></linearGradient><linearGradient id="h" x1="91.19" y1="302.68" x2="146" y2="261.27" gradientTransform="rotate(38.84 242.587 236.49)" gradientUnits="userSpaceOnUse"><stop offset="0" stop-color="#010101" stop-opacity="0"/><stop offset=".677" stop-color="#010101"/></linearGradient><linearGradient id="g" x1="129.85" y1="272.66" x2="302.91" y2="113.71" gradientTransform="rotate(38.84 288.164 179.745)" gradientUnits="userSpaceOnUse"><stop offset="0" stop-color="#010101" stop-opacity="0"/><stop offset=".562" stop-color="#010101" stop-opacity=".36" style="stop-opacity:.73913043"/><stop offset=".95" stop-color="#010101" style="stop-opacity:1"/></linearGradient><linearGradient id="e" x1="51.13" y1="343.81" x2="110.6" y2="533.56" gradientTransform="matrix(-.93 -.37 -.37 .93 677.72 128.51)" gradientUnits="userSpaceOnUse"><stop offset="0" stop-color="#010101" stop-opacity="0"/><stop offset=".647" stop-color="#010101"/></linearGradient><linearGradient id="c" x1="91.19" y1="302.68" x2="146" y2="261.27" gradientTransform="rotate(38.84 242.587 236.49)" gradientUnits="userSpaceOnUse"><stop offset="0" stop-color="#010101" stop-opacity="0"/><stop offset=".95" stop-color="#010101"/></linearGradient><linearGradient id="a" x1="91.19" y1="302.68" x2="146" y2="261.27" gradientTransform="rotate(38.84 242.587 236.49)" gradientUnits="userSpaceOnUse"><stop offset="0" stop-color="#010101" stop-opacity="0"/><stop offset=".95" stop-color="#010101"/></linearGradient><linearGradient id="aA" x1="101.96" y1="293.8" x2="180.55" y2="236.35" gradientTransform="rotate(38.84 239.812 -51.806)" xlink:href="#a"/><linearGradient id="aC" x1="114.75" y1="285.62" x2="230.53" y2="172.13" gradientTransform="rotate(38.84 239.816 -51.801)" xlink:href="#a"/><linearGradient id="d" x1="129.85" y1="272.66" x2="302.91" y2="113.71" gradientTransform="rotate(38.84 288.164 179.745)" gradientUnits="userSpaceOnUse"><stop offset="0" stop-color="#010101" stop-opacity="0"/><stop offset=".36" stop-color="#010101" stop-opacity=".36"/><stop offset=".95" stop-color="#010101"/></linearGradient><linearGradient id="b" x1="144.04" y1="261.09" x2="243.17" y2="179.94" gradientTransform="rotate(38.84 316.801 144.329)" gradientUnits="userSpaceOnUse"><stop offset="0" stop-color="#fff" stop-opacity="0"/><stop offset=".07" stop-color="#fff" stop-opacity=".22"/><stop offset=".16" stop-color="#fff" stop-opacity=".45"/><stop offset=".25" stop-color="#fff" stop-opacity=".65"/><stop offset=".33" stop-color="#fff" stop-opacity=".8"/><stop offset=".4" stop-color="#fff" stop-opacity=".91"/><stop offset=".46" stop-color="#fff" stop-opacity=".98"/><stop offset=".51" stop-color="#fff"/></linearGradient><linearGradient id="aG" x1="149.21" y1="257.97" x2="203.49" y2="211.09" gradientTransform="rotate(38.84 239.813 -51.8)" xlink:href="#b"/><linearGradient id="m" x1="281.09" y1="352.88" x2="288.14" y2="293.67" xlink:href="#a"/><linearGradient id="o" x1="286.55" y1="163.37" x2="283.73" y2="377.68" xlink:href="#b" gradientTransform="matrix(1.36595 0 0 1.36595 -150.006 -213.63)"/><linearGradient id="E" x1="423.225" y1="262.888" x2="567.32" y2="269.67" xlink:href="#a" gradientTransform="matrix(.98188 0 0 .98188 70.623 -352.855)"/><linearGradient id="G" x1="433.31" y1="357" x2="434.11" y2="388.72" xlink:href="#a" gradientTransform="translate(27.103 -403.012) scale(.97977)"/><linearGradient id="H" x1="447.88" y1="393.39" x2="415.89" y2="424.05" xlink:href="#a" gradientTransform="rotate(48.91 468.015 232.86)"/><linearGradient id="I" x1="426.59" y1="242.89" x2="681.94" y2="234.96" xlink:href="#a" gradientTransform="translate(-18.724 -168.462)"/><linearGradient id="J" x1="442.96" y1="100.87" x2="543.64" y2="97.74" xlink:href="#b" gradientTransform="translate(-18.724 -168.462)"/><linearGradient id="K" x1="442.96" y1="108.14" x2="543.64" y2="105.01" xlink:href="#b" gradientTransform="translate(-18.724 -168.462)"/><linearGradient id="L" x1="442.96" y1="115.41" x2="543.64" y2="112.28" xlink:href="#b" gradientTransform="translate(-18.724 -168.462)"/><linearGradient id="M" x1="442.96" y1="122.68" x2="543.64" y2="119.55" xlink:href="#b" gradientTransform="translate(-18.724 -168.462)"/><linearGradient id="N" x1="442.96" y1="129.95" x2="543.64" y2="126.82" xlink:href="#b" gradientTransform="translate(-18.724 -168.462)"/><linearGradient id="O" x1="442.96" y1="137.21" x2="543.64" y2="134.09" xlink:href="#b" gradientTransform="translate(-18.724 -168.462)"/><linearGradient id="P" x1="442.96" y1="144.48" x2="543.64" y2="141.36" xlink:href="#b" gradientTransform="translate(-18.724 -168.462)"/><linearGradient id="Q" x1="442.96" y1="151.75" x2="543.64" y2="148.63" xlink:href="#b" gradientTransform="translate(-18.724 -168.462)"/><linearGradient id="R" x1="442.96" y1="159.02" x2="543.64" y2="155.9" xlink:href="#b" gradientTransform="translate(-18.724 -168.462)"/><linearGradient id="S" x1="442.96" y1="166.29" x2="543.64" y2="163.16" xlink:href="#b" gradientTransform="translate(-18.724 -168.462)"/><linearGradient id="T" x1="442.96" y1="173.56" x2="543.64" y2="170.43" xlink:href="#b" gradientTransform="translate(-18.724 -168.462)"/><linearGradient id="U" x1="442.96" y1="180.83" x2="543.64" y2="177.7" xlink:href="#b" gradientTransform="translate(-18.724 -168.462)"/><linearGradient id="V" x1="442.96" y1="188.1" x2="543.64" y2="184.97" xlink:href="#b" gradientTransform="translate(-18.724 -168.462)"/><linearGradient id="W" x1="442.96" y1="195.37" x2="543.64" y2="192.24" xlink:href="#b" gradientTransform="translate(-18.724 -168.462)"/><linearGradient id="X" x1="442.96" y1="202.64" x2="543.64" y2="199.51" xlink:href="#b" gradientTransform="translate(-18.724 -168.462)"/><linearGradient id="Y" x1="442.96" y1="209.91" x2="543.64" y2="206.78" xlink:href="#b" gradientTransform="translate(-18.724 -168.462)"/><linearGradient id="Z" x1="442.96" y1="217.18" x2="543.64" y2="214.05" xlink:href="#b" gradientTransform="translate(-18.724 -168.462)"/><linearGradient id="aa" x1="442.96" y1="224.45" x2="543.64" y2="221.32" xlink:href="#b" gradientTransform="translate(-18.724 -168.462)"/><linearGradient id="ab" x1="442.96" y1="231.71" x2="543.64" y2="228.59" xlink:href="#b" gradientTransform="translate(-18.724 -168.462)"/><linearGradient id="ac" x1="442.96" y1="238.98" x2="543.64" y2="235.86" xlink:href="#b" gradientTransform="translate(-18.724 -168.462)"/><linearGradient id="ad" x1="442.96" y1="246.25" x2="543.64" y2="243.13" xlink:href="#b" gradientTransform="translate(-18.724 -168.462)"/><linearGradient id="ae" x1="442.96" y1="253.52" x2="543.64" y2="250.4" xlink:href="#b" gradientTransform="translate(-18.724 -168.462)"/><linearGradient id="af" x1="442.96" y1="260.79" x2="543.64" y2="257.67" xlink:href="#b" gradientTransform="translate(-18.724 -168.462)"/><linearGradient id="ag" x1="442.96" y1="268.06" x2="543.64" y2="264.93" xlink:href="#b" gradientTransform="translate(-18.724 -168.462)"/><linearGradient id="ah" x1="442.96" y1="275.33" x2="543.64" y2="272.2" xlink:href="#b" gradientTransform="translate(-18.724 -168.462)"/><linearGradient id="ai" x1="442.96" y1="282.6" x2="543.64" y2="279.47" xlink:href="#b" gradientTransform="translate(-18.724 -168.462)"/><linearGradient id="aj" x1="442.96" y1="289.87" x2="543.64" y2="286.74" xlink:href="#b" gradientTransform="translate(-18.724 -168.462)"/><linearGradient id="ak" x1="442.96" y1="297.14" x2="543.64" y2="294.01" xlink:href="#b" gradientTransform="translate(-18.724 -168.462)"/><linearGradient id="al" x1="442.96" y1="304.41" x2="543.64" y2="301.28" xlink:href="#b" gradientTransform="translate(-18.724 -168.462)"/><linearGradient id="am" x1="442.96" y1="311.68" x2="543.64" y2="308.55" xlink:href="#b" gradientTransform="translate(-18.724 -168.462)"/><linearGradient id="an" x1="442.96" y1="318.95" x2="543.64" y2="315.82" xlink:href="#b" gradientTransform="translate(-18.724 -168.462)"/><linearGradient id="ao" x1="442.96" y1="326.22" x2="543.64" y2="323.09" xlink:href="#b" gradientTransform="translate(-18.724 -168.462)"/><linearGradient id="ap" x1="442.96" y1="333.48" x2="543.64" y2="330.36" xlink:href="#b" gradientTransform="translate(-18.724 -168.462)"/><linearGradient id="aq" x1="442.96" y1="340.75" x2="543.64" y2="337.63" xlink:href="#b" gradientTransform="translate(-18.724 -168.462)"/><linearGradient id="ar" x1="442.96" y1="348.02" x2="543.64" y2="344.9" xlink:href="#b" gradientTransform="translate(-18.724 -168.462)"/><linearGradient id="as" x1="442.96" y1="355.29" x2="543.64" y2="352.17" xlink:href="#b" gradientTransform="translate(-18.724 -168.462)"/><linearGradient id="at" x1="442.96" y1="362.56" x2="543.64" y2="359.44" xlink:href="#b" gradientTransform="translate(-18.724 -168.462)"/><linearGradient id="au" x1="442.96" y1="369.83" x2="543.64" y2="366.7" xlink:href="#b" gradientTransform="translate(-18.724 -168.462)"/><linearGradient id="av" x1="442.96" y1="377.1" x2="543.64" y2="373.97" xlink:href="#b" gradientTransform="translate(-18.724 -168.462)"/><linearGradient id="aw" x1="442.96" y1="384.37" x2="543.64" y2="381.24" xlink:href="#b" gradientTransform="translate(-18.724 -168.462)"/><linearGradient id="r" x1="39.44" y1="206.38" x2="1737.77" y2="153.63" xlink:href="#b" gradientTransform="matrix(1.36595 0 0 1.36595 -150.006 -213.63)"/><linearGradient id="s" x1="180.65" y1="162.61" x2="183.82" y2="361.93" xlink:href="#b" gradientTransform="matrix(1.36595 0 0 1.36595 -146.495 -177.418)"/><linearGradient id="t" x1="280.34" y1="181.75" x2="278.56" y2="317.15" xlink:href="#b" gradientTransform="matrix(1.36595 0 0 1.36595 -146.495 -177.418)"/><linearGradient id="u" x1="252.08" y1="269.03" x2="258.77" y2="-2.71" xlink:href="#a" gradientTransform="matrix(1.36595 0 0 1.36595 -146.495 -177.418)"/><linearGradient id="v" x1="251.59" y1="269.02" x2="258.28" y2="-2.72" xlink:href="#a" gradientTransform="matrix(1.36595 0 0 1.36595 -146.495 -177.418)"/><linearGradient id="aY" x1="207.09" y1="267.92" x2="213.79" y2="-3.82" xlink:href="#a" gradientTransform="translate(-62.953 -72.147) scale(1.14952)"/><linearGradient id="ba" x1="206.6" y1="267.91" x2="213.3" y2="-3.83" xlink:href="#a" gradientTransform="translate(-62.953 -72.147) scale(1.14952)"/><linearGradient id="w" x1="251.05" y1="269.01" x2="257.75" y2="-2.73" xlink:href="#a" gradientTransform="matrix(1.36595 0 0 1.36595 -146.495 -177.418)"/><linearGradient id="x" x1="207.2" y1="267.93" x2="213.89" y2="-3.81" xlink:href="#a" gradientTransform="matrix(1.36595 0 0 1.36595 -146.495 -177.418)"/><linearGradient id="y" x1="229.48" y1="268.47" x2="236.18" y2="-3.26" xlink:href="#a" gradientTransform="matrix(1.36595 0 0 1.36595 -146.495 -177.418)"/><linearGradient id="z" x1="230.52" y1="268.5" x2="237.22" y2="-3.24" xlink:href="#a" gradientTransform="matrix(1.36595 0 0 1.36595 -146.495 -177.418)"/><linearGradient id="A" x1="227.11" y1="250.42" x2="344.74" y2="348.22" xlink:href="#b" gradientTransform="matrix(1.36595 0 0 1.36595 -150.006 -213.63)"/><linearGradient id="B" x1="371.69" y1="174.65" x2="370.84" y2="238.96" xlink:href="#b" gradientTransform="matrix(1.36595 0 0 1.36595 -146.495 -177.418)"/><linearGradient id="C" x1="371.69" y1="226.46" x2="370.84" y2="290.77" xlink:href="#b" gradientTransform="matrix(1.36595 0 0 1.36595 -146.495 -177.418)"/><linearGradient id="D" x1="181.92" y1="191.35" x2="181.81" y2="199.68" xlink:href="#b" gradientTransform="matrix(1.3341 0 0 1.36595 -140.518 -177.05)"/><linearGradient id="aI" x1="95.3" y1="199.15" x2="150.1" y2="157.73" gradientTransform="scale(1.00265) rotate(38.84 86.89 9.098)" xlink:href="#a"/><linearGradient id="aK" x1="106.06" y1="190.27" x2="184.66" y2="132.82" gradientTransform="rotate(38.84 86.532 9.715)" xlink:href="#a"/><linearGradient id="aM" x1="118.85" y1="182.09" x2="234.63" y2="68.6" gradientTransform="rotate(38.84 86.639 9.837)" xlink:href="#a"/><linearGradient id="aO" x1="133.96" y1="169.13" x2="307.01" y2="10.17" gradientTransform="rotate(38.84 86.745 9.959)" xlink:href="#d"/><linearGradient id="aQ" x1="153.32" y1="154.43" x2="207.59" y2="107.56" gradientTransform="rotate(38.84 86.878 9.63)" xlink:href="#b"/><linearGradient id="aS" x1="126.16" y1="213.1" x2="144.93" y2="213.63" xlink:href="#b" gradientTransform="scale(-1 1) rotate(15 298.225 792.747)"/><linearGradient id="aU" x1="103.09" y1="200.75" x2="151.73" y2="206.3" xlink:href="#a" gradientTransform="translate(197.586 -77.688)"/><linearGradient id="aW" x1="103.9" y1="246.5" x2="151.95" y2="251.98" xlink:href="#a" gradientTransform="scale(-1 1) rotate(15 298.225 792.747)"/><linearGradient id="q" x1="266.18" y1="394.35" x2="246.09" y2="300.95" xlink:href="#a" gradientTransform="translate(-12.23 -26.011)"/><linearGradient id="ay" x1="429.974" y1="129.69" x2="436.47" y2="130.05" xlink:href="#c" gradientTransform="rotate(48.91 437.58 222.44)"/><linearGradient id="ax" x1="427.71" y1="137.08" x2="442.37" y2="138.14" xlink:href="#b" gradientTransform="rotate(48.91 437.58 222.44)"/><linearGradient xlink:href="#a" id="F" gradientTransform="matrix(.98188 0 0 .98188 25.69 -403.345)" x1="423.225" y1="262.888" x2="567.32" y2="269.67"/><linearGradient id="n" x1="129.788" y1="485.179" x2="270.806" y2="503.879" xlink:href="#e" gradientTransform="rotate(-10.57 -1942.739 1032.643) scale(1.1727)"/><linearGradient id="f" x1="51.13" y1="343.81" x2="110.6" y2="533.56" gradientTransform="matrix(-.93 -.37 -.37 .93 677.72 128.51)" gradientUnits="userSpaceOnUse"><stop offset="0" stop-color="#010101" stop-opacity="0"/><stop offset=".95" stop-color="#010101"/></linearGradient><linearGradient id="p" x1="149.3" y1="490.83" x2="346.98" y2="562.76" xlink:href="#f" gradientTransform="rotate(-10.57 -2058.166 1091.738) scale(1.1727)"/><linearGradient xlink:href="#c" id="az" gradientUnits="userSpaceOnUse" gradientTransform="rotate(38.84 734.932 -461.55) scale(1.28406)" x1="91.19" y1="302.68" x2="146" y2="261.27"/><linearGradient id="aB" x1="101.96" y1="293.8" x2="180.55" y2="236.35" gradientTransform="rotate(38.84 734.932 -461.563) scale(1.28406)" xlink:href="#c"/><linearGradient id="aD" x1="114.75" y1="285.62" x2="230.53" y2="172.13" gradientTransform="rotate(38.84 734.938 -461.557) scale(1.28406)" xlink:href="#c"/><linearGradient xlink:href="#d" id="aE" gradientUnits="userSpaceOnUse" gradientTransform="rotate(38.84 734.917 -461.551) scale(1.28406)" x1="129.85" y1="272.66" x2="302.91" y2="113.71"/><linearGradient xlink:href="#b" id="aF" gradientUnits="userSpaceOnUse" gradientTransform="rotate(38.84 734.934 -461.544) scale(1.28406)" x1="144.04" y1="261.09" x2="243.17" y2="179.94"/><linearGradient id="aH" x1="149.21" y1="257.97" x2="203.49" y2="211.09" gradientTransform="rotate(38.84 734.934 -461.557) scale(1.28406)" xlink:href="#b"/><linearGradient id="aJ" x1="95.3" y1="199.15" x2="150.1" y2="157.73" gradientTransform="rotate(38.84 331.695 -526.861) scale(1.28746)" xlink:href="#c"/><linearGradient id="aL" x1="106.06" y1="190.27" x2="184.66" y2="132.82" gradientTransform="rotate(38.84 330.118 -526.434) scale(1.28406)" xlink:href="#c"/><linearGradient id="aN" x1="118.85" y1="182.09" x2="234.63" y2="68.6" gradientTransform="rotate(38.84 330.255 -526.277) scale(1.28406)" xlink:href="#c"/><linearGradient id="aP" x1="133.96" y1="169.13" x2="307.01" y2="10.17" gradientTransform="rotate(38.84 330.393 -526.12) scale(1.28406)" xlink:href="#d"/><linearGradient id="aR" x1="153.32" y1="154.43" x2="207.59" y2="107.56" gradientTransform="rotate(38.84 330.563 -526.544) scale(1.28406)" xlink:href="#b"/><linearGradient id="aT" x1="126.16" y1="213.1" x2="144.93" y2="213.63" xlink:href="#b" gradientTransform="rotate(-167.056 133.974 234.169)"/><linearGradient id="aV" x1="103.09" y1="200.75" x2="151.73" y2="206.3" xlink:href="#c" gradientTransform="translate(-314.429 -405.866)"/><linearGradient id="aX" x1="103.9" y1="246.5" x2="151.95" y2="251.98" xlink:href="#c" gradientTransform="rotate(-167.056 133.974 234.169)"/><linearGradient id="aZ" x1="207.09" y1="267.92" x2="213.79" y2="-3.82" xlink:href="#c" gradientTransform="matrix(1.39803 0 0 1.39803 -153.252 -184.145)"/><linearGradient id="bb" x1="206.6" y1="267.91" x2="213.3" y2="-3.83" xlink:href="#c" gradientTransform="matrix(1.39803 0 0 1.39803 -153.252 -184.145)"/><linearGradient xlink:href="#g" id="l" x1="732.737" y1="2.765" x2="732.737" y2="317.67" gradientUnits="userSpaceOnUse" gradientTransform="matrix(1.55539 0 0 1.55539 -731.743 5.246)"/><linearGradient id="bc" x1="148.35" y1="128.74" x2="232.52" y2="59.83" xlink:href="#b" gradientTransform="rotate(-83.415 168.091 252.834) scale(1.28406)"/><linearGradient xlink:href="#h" id="k" gradientUnits="userSpaceOnUse" gradientTransform="translate(-506.13 89.864)" x1="733.478" y1="-78.569" x2="733.478" y2="144.383"/><linearGradient xlink:href="#i" id="bd" x1="273.547" y1="419.376" x2="273.547" y2="503.55" gradientUnits="userSpaceOnUse" gradientTransform="translate(7.1 -193.567)"/><linearGradient xlink:href="#j" id="be" x1="258.53" y1="417.609" x2="258.53" y2="647.714" gradientUnits="userSpaceOnUse" gradientTransform="rotate(-10.841 -396.299 525.073)"/></defs><path d="M114.397 31.974c-37.322 25.497-43.106 73.71-68.383 109.278-8.799 12.376-20.168 23.453-26.1 37.183-13.619 31.427-8.728 96.398 15.724 109.046 17.548 8.862 40.423 5.806 57.33 10.825 13 3.86 25.603 23.132 87.06 26.846 61.44-2.194 73.563-14.167 116.765-24.803 43.502-8.475 126.598-.078 145.844-16.924 13.265-11.599 17.935-27.103 22.507-43.272 5.62-19.868-6.521-40.727-15.263-59.65-9.985-21.65-23.513-83.154-39.2-101.836-25.458-30.268-12.185-25.377-44.605-49.54-15.134-11.278-35.105-15.7-54.565-17.912-36.688-4.174-72.875 15.912-108.904 14.813-30.796-.938-62.662-11.51-88.21 5.946Z" fill="#68e1fd" opacity=".24" style="opacity:1;isolation:isolate;fill:#333b4c;fill-opacity:.1;stroke:#667399;stroke-width:.743015;stroke-opacity:.30000001"/><path d="M285.889 38.863c1.29 2.595 2.263 5.402 2.407 8.302.315 6.496-3.495 12.476-7.628 17.561-3.963 4.87-10.295 10.929-11.94 17.115-.299 1.116-.281 2.287-.383 3.438a16.677 16.677 0 0 1-7.602 12.406 16.727 16.727 0 0 1-11.274 2.32c-12.243-1.777-23.952-9.8-31.26-12.612-8.419-3.24-18.014-2.625-26.337-6.098-7.41-3.087-15.79-1.272-18.135-8.943-2.345-7.67-2.717-23.656 2.088-30.16 1.775-2.405 6.794-4.525 8.243-7.137 1.592-2.872 3.537-7.205 3.772-10.469.188-2.605.19-5.284 1.156-7.72 1.146-2.894 3.561-5.143 6.231-6.758 7.39-4.472 16.78-4.517 24.985-2.015 8.206 2.503 15.472 7.3 22.522 12.143 1.694 1.167 4.92 2.527 6.816 3.334 2.75.741 6.412 1.234 10.31 1.809 6.535.993 7.193 1.815 13.583 3.234 4.737 2.198 10.319 5.966 12.446 10.25z" fill="#80d4ff" opacity=".24" style="opacity:1;isolation:isolate;fill:#fc6;fill-opacity:1;stroke:none;stroke-width:.205211;stroke-opacity:1"/><path d="M285.889 38.863c1.29 2.595 2.263 5.402 2.407 8.302.315 6.496-3.495 12.476-7.628 17.561-3.963 4.87-10.295 10.929-11.94 17.115-.299 1.116-.281 2.287-.383 3.438a16.677 16.677 0 0 1-7.602 12.406 16.727 16.727 0 0 1-11.274 2.32c-12.243-1.777-23.952-9.8-31.26-12.612-8.419-3.24-18.014-2.625-26.337-6.098-7.41-3.087-15.79-1.272-18.135-8.943-2.345-7.67-2.717-23.656 2.088-30.16 1.775-2.405 6.794-4.525 8.243-7.137 1.592-2.872 3.537-7.205 3.772-10.469.188-2.605.19-5.284 1.156-7.72 1.146-2.894 3.561-5.143 6.231-6.758 7.39-4.472 16.78-4.517 24.985-2.015 8.206 2.503 15.472 7.3 22.522 12.143 1.694 1.167 4.92 2.527 6.816 3.334 2.75.741 6.412 1.234 10.31 1.809 6.535.993 7.193 1.815 13.583 3.234 4.737 2.198 10.319 5.966 12.446 10.25z" fill="#80d4ff" opacity=".24" style="opacity:1;isolation:isolate;fill:url(#k);fill-opacity:1;stroke:none;stroke-width:.205211;stroke-opacity:1"/><path d="M473.36 74.328v-19.09H460.68a54.027 54.027 0 0 0-8.011-18.7l9.77-9.769-13.424-13.56-9.77 9.613a54.847 54.847 0 0 0-21.493-9.398V0H398.68v13.13a51.682 51.682 0 0 0-21.494 8.149l-7.815-8.148-13.795 13.286 7.64 7.914a53.46 53.46 0 0 0-9.77 20.907h-13.678v19.09h13.209a53.93 53.93 0 0 0 9.613 24.503l-8.226 8.07 13.502 13.678 8.285-8.227a53.617 53.617 0 0 0 22.685 8.89v12.096h19.07V120.95a54.71 54.71 0 0 0 20.263-8.52l9.907 10.278 13.795-13.287-10.063-10.414a53.46 53.46 0 0 0 9.77-24.58zm-66.258 25.167a32.182 32.182 0 1 1 32.22-32.142 32.123 32.123 0 0 1-32.22 32.142z" fill="#68e1fd" style="stroke-width:1.95395;fill:#a8b8ca;fill-opacity:1"/><path d="M473.36 74.328v-19.09H460.68a54.027 54.027 0 0 0-8.011-18.7l9.77-9.769-13.424-13.56-9.77 9.613a54.847 54.847 0 0 0-21.493-9.398V0H398.68v13.13a51.682 51.682 0 0 0-21.494 8.149l-7.815-8.148-13.795 13.286 7.64 7.914a53.46 53.46 0 0 0-9.77 20.907h-13.678v19.09h13.209a53.93 53.93 0 0 0 9.613 24.503l-8.226 8.07 13.502 13.678 8.285-8.227a53.617 53.617 0 0 0 22.685 8.89v12.096h19.07V120.95a54.71 54.71 0 0 0 20.263-8.52l9.907 10.278 13.795-13.287-10.063-10.414a53.46 53.46 0 0 0 9.77-24.58zm-66.258 25.167a32.182 32.182 0 1 1 32.22-32.142 32.123 32.123 0 0 1-32.22 32.142z" fill="#68e1fd" style="fill:url(#l);fill-opacity:1;stroke-width:1.95395"/><path d="M51.86 196.955c-4.399-7.78-7.107-16.413-11.31-24.3-4.204-7.89-10.378-15.338-18.885-18.093-8.507-2.755-19.429.917-22.26 9.402a18.306 18.306 0 0 0 .256 11.083c3.955 12.694 16.675 20.83 21.936 33.043 3.12 7.255 3.37 15.44 5.923 22.92a39.555 39.555 0 0 0 21.936 23.452c5.806 2.412 12.123 3.405 18.003 5.636 7.745 2.951 17.581-2.257 22.665 4.289 7.372-9.711 7.02-11.953 4.321-23.843-5.952-25.444-31.259-23.55-42.585-43.589z" fill="#80d4ff" style="fill:#fc6;fill-opacity:1;stroke-width:1.1727"/><path d="M53.19 196.11c-4.398-7.78-7.106-16.412-11.31-24.3-4.203-7.889-10.377-15.338-18.884-18.093-8.507-2.755-19.429.917-22.26 9.402a18.306 18.306 0 0 0 .255 11.083c3.956 12.694 16.676 20.83 21.937 33.043 3.12 7.255 3.37 15.44 5.923 22.92a39.555 39.555 0 0 0 21.936 23.452c5.806 2.412 12.123 3.405 18.003 5.636 7.745 2.951 16.863 2.59 21.947 9.135 7.372-9.71 7.737-16.8 5.04-28.689-5.953-25.444-31.26-23.55-42.586-43.589z" fill="url(#m)" style="fill:url(#n);stroke-width:1.1727"/><path d="M59.94 124.578c-2.173-5.249-3.17-10.98-5.848-15.991-2.677-5.012-7.72-9.404-13.381-8.932-6.516.56-10.967 7.522-11.093 14.071-.126 6.549 2.916 12.686 5.844 18.533l11.607 22.886c3.602 7.094 6.791 16.77.86 22.064a43.495 43.495 0 0 1-4.512 2.99 16.007 16.007 0 0 0-6.335 16.427c1.78 7.554 8.69 12.563 14.79 17.377 6.1 4.815 12.321 11.241 11.773 18.978-.408 5.743-4.571 11.435-2.497 16.797 1.725 4.45 7.3 6.392 12 5.551 4.697-.84 8.726-3.74 12.576-6.57l18.386-13.534c5.915-4.36 12.112-9.06 14.845-15.893 1.844-4.567 1.933-9.653 1.511-14.597a78.477 78.477 0 0 0-23.698-49.391c-12.404-11.941-29.43-12.725-36.829-30.766z" fill="#80d4ff" style="fill:#fc6;fill-opacity:1;stroke-width:1.1727"/><path d="M61.565 124.272c-2.173-5.25-3.17-10.98-5.847-15.992-2.677-5.012-7.72-9.403-13.382-8.931-6.516.56-10.967 7.522-11.093 14.07-.126 6.55 2.916 12.686 5.844 18.534l11.607 22.886c3.603 7.094 6.792 16.77.86 22.064a43.495 43.495 0 0 1-4.512 2.99 16.007 16.007 0 0 0-6.335 16.427c1.78 7.553 8.691 12.562 14.79 17.377 6.1 4.815 12.322 11.24 11.773 18.978-.408 5.742-4.57 11.434-2.496 16.797 1.725 4.45 7.3 6.392 11.999 5.551 4.698-.84 8.726-3.74 12.576-6.57l18.387-13.535c5.914-4.36 12.111-9.06 14.845-15.892 1.844-4.567 1.932-9.654 1.51-14.597a78.477 78.477 0 0 0-23.698-49.392c-12.404-11.94-29.43-12.724-36.828-30.765z" fill="url(#o)" style="fill:url(#p);stroke-width:1.1727"/><path d="M233.55 299.562c-.23 6-4.85 28.05-5 34.06 0 2 .53 5.07-.11 7-1.32 4.09-6 3.53-6.61 1.12l-.23-1.2c-2.17-11.68 1.32-24.93 0-40.18-.79-9.31-4.47-27.26-6.88-27.38-1.27 0-30.26 61.52-32.78 65.31-1.24 1.91-4.73 1.61-6.42 3.15-1.69 1.54 14.08-46.64 20.69-72.1a81.06 81.06 0 0 0 3-16.11c.18-3.15-.83-4.21 2.06-5.14 2-.64 4.77-.46 6.91-.61 2.33-.18 24-.22 24 1.32-.21 8.36 1.93 36.9 1.37 50.76z" fill="none" style="fill:#212733;fill-opacity:0"/><rect x="71.621" y="41.162" width="337.186" height="231.871" rx="12.799" fill="#68e1fd" style="stroke-width:1.36595"/><path d="M398.603 61.57v191.534a11.966 11.966 0 0 1-11.952 12.006H92.26a11.98 11.98 0 0 1-11.953-12.007V61.57A11.98 11.98 0 0 1 92.26 49.563h294.39a11.966 11.966 0 0 1 11.953 12.006z" opacity=".65" fill="url(#o)" style="fill:url(#o);stroke-width:1.36595"/><path d="M398.603 61.57v4.206H80.335V61.57a11.98 11.98 0 0 1 11.952-12.006h294.364a11.966 11.966 0 0 1 11.952 12.006z" fill="url(#r)" style="fill:url(#r);stroke-width:1.36595"/><path fill="url(#s)" style="fill:url(#s);stroke-width:1.36595" d="M86.933 86.006h30.324v148.042H86.933z"/><path fill="url(#t)" style="fill:url(#t);stroke-width:1.36595" d="M163.003 95.868h144.422V232.6H163.003z"/><path fill="url(#u)" style="fill:url(#u);stroke-width:1.36595" d="M195.731 160.383h5.505v5.778h-5.505z"/><path fill="url(#v)" style="fill:url(#v);stroke-width:1.36595" d="M195.731 133.186h5.505v5.778h-5.505z"/><path fill="url(#w)" style="fill:url(#w);stroke-width:1.36595" d="M195.731 103.327h5.505v5.778h-5.505z"/><path fill="url(#x)" style="fill:url(#x);stroke-width:1.36595" d="M135.807 103.327h5.505v5.778h-5.505z"/><path fill="url(#y)" style="fill:url(#y);stroke-width:1.36595" d="M166.268 103.327h5.505v5.778h-5.505z"/><path fill="url(#z)" style="fill:url(#z);stroke-width:1.36595" d="M166.268 160.861h5.505v5.778h-5.505z"/><path d="M193.97 159.577h-50.855v-48.45h50.854zm-45.733-5.123h40.61v-38.246h-40.61z" fill="#68e1fd" style="stroke-width:1.36595"/><path d="M193.97 159.577h-50.855v-48.45h50.854zm-45.733-5.123h40.61v-38.246h-40.61z" fill="url(#A)" style="fill:url(#A);stroke-width:1.36595"/><path fill="url(#B)" style="fill:url(#B);stroke-width:1.36595" d="M328.133 73.002h64.992v64.992h-64.992z"/><path fill="url(#C)" style="fill:url(#C);stroke-width:1.36595" d="M328.133 143.772h64.992v64.992h-64.992z"/><path opacity=".65" fill="url(#D)" style="fill:url(#D);stroke-width:1.34993" d="M86.933 86.006h30.324v8.127H86.933z"/><path d="m496.766 178.008-174.102 151.82a8.71 8.71 0 0 1-12.247-.837l-.657-.753a8.68 8.68 0 0 1 .863-12.217l174.102-151.82 22.984-8.487z" fill="#68e1fd"/><path fill="url(#E)" style="fill:url(#F);stroke-width:.981884" transform="rotate(48.955) skewX(.025)" d="M451.105-257.604h9.54v217.379h-9.54z"/><path fill="url(#G)" style="fill:url(#G);stroke-width:.979773" transform="matrix(.64999 .75995 -.74736 .66442 0 0)" d="M442.781-44.298h18.39v7.77h-18.39z"/><path d="m328.045 325.136-5.404 4.712a8.71 8.71 0 0 1-12.247-.837l-.657-.754a8.68 8.68 0 0 1 .864-12.216l5.403-4.713z" fill="url(#H)" style="fill:url(#H)"/><path fill="#68e1fd" d="M432.323 70.498 479 86.488l-95.265 278.075-46.677-15.991z"/><path fill="url(#I)" style="fill:url(#I)" transform="rotate(18.91)" d="M431.836-73.952h25.91v294.47h-25.91z"/><path opacity=".65" fill="url(#J)" style="fill:url(#J)" transform="rotate(18.91)" d="M431.926-69.232h13.75v2.38h-13.75z"/><path opacity=".65" fill="url(#K)" style="fill:url(#K)" transform="rotate(18.91)" d="M431.926-61.962h13.75v2.38h-13.75z"/><path opacity=".65" fill="url(#L)" style="fill:url(#L)" transform="rotate(18.91)" d="M431.926-54.702h13.75v2.38h-13.75z"/><path opacity=".65" fill="url(#M)" style="fill:url(#M)" transform="rotate(18.91)" d="M431.926-47.432h13.75v2.38h-13.75z"/><path opacity=".65" fill="url(#N)" style="fill:url(#N)" transform="rotate(18.91)" d="M431.926-40.162h13.75v2.38h-13.75z"/><path opacity=".65" fill="url(#O)" style="fill:url(#O)" transform="rotate(18.91)" d="M431.926-32.892h13.75v2.38h-13.75z"/><path opacity=".65" fill="url(#P)" style="fill:url(#P)" transform="rotate(18.91)" d="M431.926-25.622h13.75v2.38h-13.75z"/><path opacity=".65" fill="url(#Q)" style="fill:url(#Q)" transform="rotate(18.91)" d="M431.926-18.352h13.75v2.38h-13.75z"/><path opacity=".65" fill="url(#R)" style="fill:url(#R)" transform="rotate(18.91)" d="M431.926-11.082h13.75v2.38h-13.75z"/><path opacity=".65" fill="url(#S)" style="fill:url(#S)" transform="rotate(18.91)" d="M431.926-3.812h13.75v2.38h-13.75z"/><path opacity=".65" fill="url(#T)" style="fill:url(#T)" transform="rotate(18.91)" d="M431.926 3.458h13.75v2.38h-13.75z"/><path opacity=".65" fill="url(#U)" style="fill:url(#U)" transform="rotate(18.91)" d="M431.926 10.728h13.75v2.38h-13.75z"/><path opacity=".65" fill="url(#V)" style="fill:url(#V)" transform="rotate(18.91)" d="M431.926 17.998h13.75v2.38h-13.75z"/><path opacity=".65" fill="url(#W)" style="fill:url(#W)" transform="rotate(18.91)" d="M431.926 25.268h13.75v2.38h-13.75z"/><path opacity=".65" fill="url(#X)" style="fill:url(#X)" transform="rotate(18.91)" d="M431.926 32.538h13.75v2.38h-13.75z"/><path opacity=".65" fill="url(#Y)" style="fill:url(#Y)" transform="rotate(18.91)" d="M431.926 39.808h13.75v2.38h-13.75z"/><path opacity=".65" fill="url(#Z)" style="fill:url(#Z)" transform="rotate(18.91)" d="M431.926 47.068h13.75v2.38h-13.75z"/><path opacity=".65" fill="url(#aa)" style="fill:url(#aa)" transform="rotate(18.91)" d="M431.926 54.338h13.75v2.38h-13.75z"/><path opacity=".65" fill="url(#ab)" style="fill:url(#ab)" transform="rotate(18.91)" d="M431.926 61.608h13.75v2.38h-13.75z"/><path opacity=".65" fill="url(#ac)" style="fill:url(#ac)" transform="rotate(18.91)" d="M431.926 68.878h13.75v2.38h-13.75z"/><path opacity=".65" fill="url(#ad)" style="fill:url(#ad)" transform="rotate(18.91)" d="M431.926 76.148h13.75v2.38h-13.75z"/><path opacity=".65" fill="url(#ae)" style="fill:url(#ae)" transform="rotate(18.91)" d="M431.926 83.418h13.75v2.38h-13.75z"/><path opacity=".65" fill="url(#af)" style="fill:url(#af)" transform="rotate(18.91)" d="M431.926 90.688h13.75v2.38h-13.75z"/><path opacity=".65" fill="url(#ag)" style="fill:url(#ag)" transform="rotate(18.91)" d="M431.926 97.958h13.75v2.38h-13.75z"/><path opacity=".65" fill="url(#ah)" style="fill:url(#ah)" transform="rotate(18.91)" d="M431.926 105.228h13.75v2.38h-13.75z"/><path opacity=".65" fill="url(#ai)" style="fill:url(#ai)" transform="rotate(18.91)" d="M431.926 112.498h13.75v2.38h-13.75z"/><path opacity=".65" fill="url(#aj)" style="fill:url(#aj)" transform="rotate(18.91)" d="M431.926 119.768h13.75v2.38h-13.75z"/><path opacity=".65" fill="url(#ak)" style="fill:url(#ak)" transform="rotate(18.91)" d="M431.926 127.038h13.75v2.38h-13.75z"/><path opacity=".65" fill="url(#al)" style="fill:url(#al)" transform="rotate(18.91)" d="M431.926 134.308h13.75v2.38h-13.75z"/><path opacity=".65" fill="url(#am)" style="fill:url(#am)" transform="rotate(18.91)" d="M431.926 141.578h13.75v2.38h-13.75z"/><path opacity=".65" fill="url(#an)" style="fill:url(#an)" transform="rotate(18.91)" d="M431.926 148.838h13.75v2.38h-13.75z"/><path opacity=".65" fill="url(#ao)" style="fill:url(#ao)" transform="rotate(18.91)" d="M431.926 156.108h13.75v2.38h-13.75z"/><path opacity=".65" fill="url(#ap)" style="fill:url(#ap)" transform="rotate(18.91)" d="M431.926 163.378h13.75v2.38h-13.75z"/><path opacity=".65" fill="url(#aq)" style="fill:url(#aq)" transform="rotate(18.91)" d="M431.926 170.648h13.75v2.38h-13.75z"/><path opacity=".65" fill="url(#ar)" style="fill:url(#ar)" transform="rotate(18.91)" d="M431.926 177.918h13.75v2.38h-13.75z"/><path opacity=".65" fill="url(#as)" style="fill:url(#as)" transform="rotate(18.91)" d="M431.926 185.188h13.75v2.38h-13.75z"/><path opacity=".65" fill="url(#at)" style="fill:url(#at)" transform="rotate(18.91)" d="M431.926 192.458h13.75v2.38h-13.75z"/><path opacity=".65" fill="url(#au)" style="fill:url(#au)" transform="rotate(18.91)" d="M431.926 199.728h13.75v2.38h-13.75z"/><path opacity=".65" fill="url(#av)" style="fill:url(#av)" transform="rotate(18.91)" d="M431.926 206.998h13.75v2.38h-13.75z"/><path opacity=".65" fill="url(#aw)" style="fill:url(#aw)" transform="rotate(18.91)" d="M431.926 214.268h13.75v2.38h-13.75z"/><path style="opacity:.65;fill:url(#ax);stroke-width:1" d="m484.725 164.2 14.964-5.526 8.028-2.966-3.835 7.775-7.32 14.809z"/><path style="fill:url(#ay);fill-opacity:1;stroke-width:1" d="m503.882 163.483-4.193-4.809 8.028-2.966z"/><path transform="rotate(-147.295)" fill="#fff" style="stroke-width:1.28406" d="M-288.321-214.703h161.15v47.061h-161.15z"/><path transform="rotate(-147.365)" fill="#68e1fd" style="stroke-width:1.28406" d="M-276.831-202.241h19.685v31.678h-19.685z"/><path transform="rotate(-147.365)" fill="url(#c)" style="fill:url(#az);stroke-width:1.28406" d="M-276.831-202.241h19.685v31.678h-19.685z"/><path transform="rotate(-147.365)" fill="#68e1fd" style="stroke-width:1.28406" d="M-257.27-202.18h19.685v31.678h-19.685z"/><path transform="rotate(-147.365)" fill="url(#aA)" style="fill:url(#aB);stroke-width:1.28406" d="M-257.27-202.18h19.685v31.678h-19.685z"/><path transform="rotate(-147.365)" fill="#68e1fd" style="stroke-width:1.28406" d="M-237.709-202.131h19.685v31.678h-19.685z"/><path transform="rotate(-147.365)" fill="url(#aC)" style="fill:url(#aD);stroke-width:1.28406" d="M-237.709-202.131h19.685v31.678h-19.685z"/><path transform="rotate(-147.365)" fill="#68e1fd" style="stroke-width:1.28406" d="M-218.154-202.052h19.685v31.678h-19.685z"/><path transform="rotate(-147.365)" fill="url(#d)" style="fill:url(#aE);stroke-width:1.28406" d="M-218.154-202.052h19.685v31.678h-19.685z"/><path transform="rotate(-147.365)" fill="#68e1fd" style="stroke-width:1.28406" d="M-198.58-202.003h19.685v31.678h-19.685z"/><path transform="rotate(-147.365)" fill="#68e1fd" style="stroke-width:1.28406" d="M-179.03-201.936h19.685v31.678h-19.685z"/><path transform="rotate(-147.365)" fill="#68e1fd" style="stroke-width:1.28406" d="M-161.86-201.781h19.685v31.678h-19.685z"/><path transform="rotate(-147.365)" fill="url(#b)" style="fill:url(#aF);stroke-width:1.28406" d="M-181.434-201.843h19.685v31.678h-19.685z"/><path transform="rotate(-147.365)" fill="url(#aG)" style="fill:url(#aH);stroke-width:1.28406" d="M-161.86-201.781h19.685v31.678h-19.685z"/><path transform="rotate(-122.185)" fill="#fff" style="stroke-width:1.28406" d="M-331.74-75.7h161.15v47.061h-161.15z"/><path transform="rotate(-122.343)" fill="#68e1fd" style="stroke-width:1.28746" d="M-319.627-63.349h19.737v31.762h-19.737z"/><path transform="rotate(-122.343)" fill="url(#aI)" style="fill:url(#aJ);stroke-width:1.28746" d="M-319.627-63.349h19.737v31.762h-19.737z"/><path transform="rotate(-122.255)" fill="#68e1fd" style="stroke-width:1.28406" d="M-299.987-62.891h19.685v31.678h-19.685z"/><path transform="rotate(-122.255)" fill="url(#aK)" style="fill:url(#aL);stroke-width:1.28406" d="M-299.987-62.891h19.685v31.678h-19.685z"/><path transform="rotate(-122.255)" fill="#68e1fd" style="stroke-width:1.28406" d="M-280.302-62.891h19.685v31.678h-19.685z"/><path transform="rotate(-122.255)" fill="url(#aM)" style="fill:url(#aN);stroke-width:1.28406" d="M-280.302-62.891h19.685v31.678h-19.685z"/><path transform="rotate(-122.255)" fill="#68e1fd" style="stroke-width:1.28406" d="M-260.618-62.891h19.685v31.678h-19.685z"/><path transform="rotate(-122.255)" fill="url(#aO)" style="fill:url(#aP);stroke-width:1.28406" d="M-260.618-62.891h19.685v31.678h-19.685z"/><path transform="rotate(-122.343)" fill="#68e1fd" style="stroke-width:1.28746" d="M-240.885-63.343h19.737v31.762h-19.737z"/><rect x="-221.148" y="-63.343" width="19.388" height="31.81" transform="rotate(-122.343)" fill="#68e1fd" style="stroke-width:1.28746" ry="0"/><path transform="rotate(-122.255)" fill="#68e1fd" style="stroke-width:1.28406" d="M-204.565-62.796h19.685v31.678h-19.685z"/><path transform="rotate(-122.255)" fill="url(#aQ)" style="fill:url(#aR);stroke-width:1.28406" d="M-204.459-63.142h19.579v32.024h-19.579z"/><path d="m122.648 276.989 13.239-57.598 10.067 2.314-13.238 57.598a5.12 5.12 0 0 1-4.447 3.944l-1.322 5.75a1.84 1.84 0 0 1-3.586-.824l1.344-5.848a5.15 5.15 0 0 1-2.057-5.336z" fill="#68e1fd" style="stroke-width:1"/><path d="m122.648 276.989 13.239-57.598 10.067 2.314-13.238 57.598a5.12 5.12 0 0 1-4.447 3.944l-1.322 5.75a1.84 1.84 0 0 1-3.586-.824l1.344-5.848a5.15 5.15 0 0 1-2.057-5.336z" fill="url(#aS)" style="fill:url(#aT);stroke-width:1"/><rect x="-198.519" y="-204.566" width="23.53" height="4.49" rx="2.25" fill="#68e1fd" transform="rotate(-167.056)" style="stroke-width:1"/><path d="M144.887 202.333c3.986.916 5.926 7.652 5.01 11.638l-6.068 26.402-14.424-3.315 6.068-26.402c.916-3.986 5.437-9.237 9.414-8.323z" fill="#68e1fd" style="stroke-width:1"/><rect x="-198.519" y="-204.566" width="23.53" height="4.49" rx="2.25" fill="url(#aU)" style="fill:url(#aV);stroke-width:1" transform="rotate(-167.056)"/><path d="M144.887 202.333c3.986.916 5.926 7.652 5.01 11.638l-5.645 24.56-14.424-3.315 5.645-24.56c.916-3.986 5.437-9.237 9.414-8.323z" fill="url(#aW)" style="fill:url(#aX);stroke-width:1"/><path fill="url(#aY)" style="fill:url(#aZ);stroke-width:1.39803" d="M134.084 161.586h5.634v5.914h-5.634z"/><path fill="url(#ba)" style="fill:url(#bb);stroke-width:1.39803" d="M134.084 133.752h5.634v5.914h-5.634z"/><path style="fill:url(#bc);stroke-width:1.28406" d="m82.802 189.514 8.787 14.31-26.795 16.903-9.074-14.122z"/><rect x="-351.027" y="-247.507" width="117.331" height="77.167" rx="4.782" transform="scale(-1)" fill="#80d4ff" opacity=".24" style="opacity:.4;isolation:isolate;fill:#4ac1dc;fill-opacity:1;stroke-width:.556519"/><g opacity=".52" style="opacity:.7" fill="#fff"><path d="M244.879 187.93h31.395v2.305h-31.395zM244.879 192.386h19.163v2.163h-19.163zM271.771 192.386h60.296v2.175h-60.296zM254.841 196.854h26.35v2.28h-26.35zM263.297 201.303h31.395v2.305h-31.395zM296.743 201.303h26.313v2.559h-26.313zM263.256 205.759h24.24v2.162h-24.24zM289.823 205.759h50.02v2.393h-50.02zM244.879 211.792h31.395v2.304h-31.395zM244.879 216.241h19.163v2.163h-19.163zM271.771 216.241h60.296v2.175h-60.296zM254.841 220.697h26.35v2.28h-26.35zM263.297 225.164h31.395v2.305h-31.395zM296.743 225.164h26.313v2.559h-26.313zM263.256 229.62h24.24v2.162h-24.24zM289.823 229.62h50.02v2.393h-50.02z"/></g><path d="M289.823 229.62c-.078-.385-.657-2.871-1.241-4.28-.798-1.561-1.917-2.33-3.269-2.65-1.646-.36-3.513-.025-5.028.719-5.289 2.864-7.95 5.868-8.354 8.617.097 1.636.442 3.384 1.524 4.56.722.79 1.71 1.284 2.718 1.665 3.84 1.425 6.267 1.212 9.218-.328.699-.484 4.917-1.842 4.432-8.303z" fill="#80d4ff" style="fill:#fc6;fill-opacity:1;stroke-width:.254692"/><path d="M289.823 229.62c-.078-.385-.657-2.871-1.241-4.28-.798-1.561-1.917-2.33-3.269-2.65-1.646-.36-3.513-.025-5.028.719-5.289 2.864-7.95 5.868-8.354 8.617.097 1.636.442 3.384 1.524 4.56.722.79 1.71 1.284 2.718 1.665 3.84 1.425 6.267 1.212 9.218-.328.699-.484 4.917-1.842 4.432-8.303z" fill="#80d4ff" style="opacity:.355978;fill:url(#bd);fill-opacity:1;stroke-width:.254691"/><path d="M259.029 269.508c2.666-3.508 6.115-6.417 8.426-10.17 2.31-3.752 3.28-8.847.75-12.455-2.922-4.146-9.326-4.405-13.762-1.929s-7.357 6.913-10.13 11.16l-3.702 9.732c-3.358 5.391-3.28 10.36-10.894 11.312-2.782-.065-5.78-2.01-6.996-2.705-4.525-2.032-11.325-.359-14.98 2.996-4.363 4.145-6.557 9.284-7.397 15.252-.84 5.968-3.609 10.835-7.07 13.736-3.706 2.097-5.494 3.424-8.483 8.56-1.572 3.939-1.197 7.047.257 10.156 1.567 3.354 8.805 8.501 12.206 9.974 3.842 1.458 6.67 2.547 10.337 3.56 5.523 1.096 11.635.88 17.28.04 5.32-1.62 8.813-3.806 11.96-6.021 5.517-3.932 9.81-4.47 13.473-7.656 5.83-5.068 4.898-10.088 5.16-18.446 1.552-6.394 5.6-12.753 3.647-20.3-1.539-5.947-4.745-10.704-.082-16.796z" fill="#80d4ff" style="fill:#fc6;fill-opacity:1;stroke-width:.909547"/><path d="M259.029 269.508c2.666-3.508 6.115-6.417 8.426-10.17 2.31-3.752 3.28-8.847.75-12.455-2.922-4.146-9.326-4.405-13.762-1.929s-7.357 6.913-10.13 11.16l-3.702 9.732c-3.358 5.391-3.28 10.36-10.894 11.312-2.782-.066-5.78-2.01-6.996-2.705-4.525-2.032-11.325-.359-14.98 2.996-4.363 4.145-6.557 9.284-7.397 15.252-.84 5.968-3.609 10.835-7.07 13.736-3.706 2.097-5.494 3.424-8.483 8.56-1.572 3.939-1.197 7.047.257 10.156 1.567 3.354 8.805 8.501 12.206 9.974 3.842 1.458 6.67 2.547 10.337 3.56 5.523 1.096 11.635.88 17.28.04 5.32-1.62 8.813-3.806 11.96-6.021 5.517-3.932 9.81-4.47 13.473-7.656 5.83-5.068 4.898-10.088 5.16-18.446 1.552-6.394 5.6-12.753 3.647-20.3-1.539-5.947-4.745-10.704-.082-16.796z" fill="#80d4ff" style="fill:url(#be);fill-opacity:1;stroke-width:.909548"/></svg>