<svg xmlns="http://www.w3.org/2000/svg" xmlns:xlink="http://www.w3.org/1999/xlink" data-name="Layer 1" viewBox="0 0 455.945 334.935" width="347.299" height="254.362" class="illustration styles_illustrationTablet__1DWOa"><defs><linearGradient id="a" x1="475.01" y1="246.4" x2="410.51" y2="296.41" gradientUnits="userSpaceOnUse"><stop offset="0" stop-color="#010101" stop-opacity="0"/><stop offset=".95" stop-color="#010101"/></linearGradient><linearGradient id="d" x1="469.6" y1="233.13" x2="343.09" y2="310.4" xlink:href="#a" gradientTransform="translate(-75.287 -32.4)"/><linearGradient id="f" x1="92.05" y1="248.63" x2="166.83" y2="274.8" xlink:href="#a" gradientTransform="translate(-75.287 -32.4)"/><linearGradient id="h" x1="109.42" y1="240.94" x2="272.54" y2="300.29" xlink:href="#a" gradientTransform="translate(-75.287 -32.4)"/><linearGradient id="j" x1="266.42" y1="253.11" x2="267.05" y2="321.66" gradientUnits="userSpaceOnUse"><stop offset="0" stop-color="#fff" stop-opacity="0"/><stop offset=".95" stop-color="#fff"/></linearGradient><linearGradient id="k" x1="263.86" y1="343.49" x2="275.7" y2="235.68" xlink:href="#a"/><linearGradient id="b" x1="352.36" y1="211.36" x2="374.28" y2="211.36" gradientUnits="userSpaceOnUse"><stop offset="0" stop-color="#e5c6d6"/><stop offset=".42" stop-color="#ead4d0"/><stop offset="1" stop-color="#f0e9cb"/></linearGradient><linearGradient id="e" x1="469.6" y1="233.13" x2="343.09" y2="310.4" xlink:href="#a" gradientTransform="translate(-75.287 -32.4)"/><linearGradient xlink:href="#a" id="c" gradientUnits="userSpaceOnUse" x1="475.01" y1="246.4" x2="410.51" y2="296.41" gradientTransform="translate(-74.981 -32.025)"/><linearGradient id="g" x1="92.05" y1="248.63" x2="166.83" y2="274.8" xlink:href="#a" gradientTransform="translate(-74.009 -32.75)"/><linearGradient id="i" x1="109.42" y1="240.94" x2="272.54" y2="300.29" xlink:href="#a" gradientTransform="translate(-73.776 -32.773)"/><filter style="color-interpolation-filters:sRGB" id="l" x="0" width="1" y="0" height="1"><feGaussianBlur stdDeviation=".002"/></filter></defs><path d="M20.797 277.034c-7.216-8.761-13.45-18.624-16.68-29.604-7.216-24.6 1.399-51.012 12.05-74.292 10.218-22.3 28.148-51.328 28.518-76.543.07-4.55-1.085-9.02-1.777-13.523a63.167 65.07 0 0 1 16.75-54.518 63.544 65.458 0 0 1 39.798-19.24c47.218-4.428 98.256 15.564 128.07 19.628 34.343 4.689 69.48-6.477 103.688-.81 30.444 5.03 59.944-9.619 75.807 17.62 15.862 27.24 17.513 95.953 5.683 125.289-4.37 10.842-10.628 20.923-13.59 32.26-3.255 12.47-2.304 25.708-.142 38.429 1.721 10.154 4.205 20.421 2.877 30.64-1.573 12.146-8.466 22.98-16.9 31.62-23.346 23.919-58.247 32.712-91.111 30.656-32.865-2.057-64.37-13.766-95.112-25.855-7.389-2.915-14.817-5.878-22.622-7.23-8.922-1.54-18.08-.916-27.064-.122-25.248 2.194-51.651 10.17-76.75 10.6-19.674.34-39.593-20.544-51.493-35.005z" fill="#80d4ff" opacity=".24" style="isolation:isolate;stroke-width:.797797;opacity:1;fill:#333c4d;fill-opacity:.1;stroke:#667399;stroke-opacity:.30000001"/><path d="M395.243 189.6c1.32-3.53.83-7.47 1.41-11.2a10.39 10.39 0 0 1 1.92-4.93 7.27 7.27 0 0 1 7.49-2.45c3.57 1 5.84 4.71 6.24 8.39.4 3.68-.69 7.34-1.89 10.84-2.51 7.27-5.51 14.36-8.07 21.61-2.11 6-3.47 13.76 1.45 17.79 1.26 1 2.84 1.69 3.91 2.92a8.16 8.16 0 0 1 1.65 3.89c1.93 10.21-5.34 20.13-14 25.81-2.88 1.88-6.09 3.5-9.52 3.59-5.42.13-10.35-3.72-12.86-8.53-2.51-4.81-3-10.4-2.9-15.82a175.45 175.45 0 0 1 1.9-20.59c.72-5.44 1.46-11 3.5-16 1.55-3.86 4.74-10 9.18-10.9 4.44-.9 8.2 1.98 10.59-4.42z" fill="#80d4ff"/><path d="M395.243 189.6c1.32-3.53.83-7.47 1.41-11.2a10.39 10.39 0 0 1 1.92-4.93 7.27 7.27 0 0 1 7.49-2.45c3.57 1 5.84 4.71 6.24 8.39.4 3.68-.69 7.34-1.89 10.84-2.51 7.27-5.51 14.36-8.07 21.61-2.11 6-3.47 13.76 1.45 17.79 1.26 1 2.84 1.69 3.91 2.92a8.16 8.16 0 0 1 1.65 3.89c1.93 10.21-5.34 20.13-14 25.81-2.88 1.88-6.09 3.5-9.52 3.59-5.42.13-10.35-3.72-12.86-8.53-2.51-4.81-3-10.4-2.9-15.82a175.45 175.45 0 0 1 1.9-20.59c.72-5.44 1.46-11 3.5-16 1.55-3.86 4.74-10 9.18-10.9 4.44-.9 8.2 1.98 10.59-4.42z" fill="#bae67e" style="stroke-width:1"/><path d="M405.203 143.94c-10.4 17.26-7.49 40.57-19.45 56.8-3.63 4.93-8.46 8.92-11.72 14.11-3.26 5.19-4.58 12.37-.82 17.2 10.12-5.87 13.65-18.42 18.69-29a5.68 5.68 0 0 1 1.64-2.29c2.73-1.93 6.12 1.85 6.42 5.18.81 8.87-6.71 16.09-9.82 24.43-3.9 10.46-1.11 23.58-8.51 31.94-1.5 1.69-3.52 3.13-5.79 3.14a9.37 9.37 0 0 1-4.64-1.55 40.21 40.21 0 0 1-19.73-30.41c-1.07-10.66.18-23.16 6.71-31.65 5.33-6.93 5.16-14.28 8.42-22.6a61.08 61.08 0 0 1 15.59-22.64 57.21 57.21 0 0 1 10.73-7.75c2.18-1.19 11.31-3.25 12.28-4.91z" fill="#80d4ff"/><path d="M393.679 189.765c1.32-3.54.83-7.47 1.41-11.2a10.42 10.42 0 0 1 1.92-4.94 7.27 7.27 0 0 1 7.49-2.44c3.57 1 5.84 4.71 6.24 8.38.4 3.67-.69 7.34-1.89 10.84-2.51 7.27-5.51 14.36-8.07 21.62-2.11 6-3.47 13.75 1.45 17.78 1.26 1 2.84 1.7 3.91 2.93a8.13 8.13 0 0 1 1.65 3.88c1.93 10.22-5.34 20.13-14 25.82-2.88 1.88-6.09 3.5-9.52 3.58-5.42.14-10.35-3.72-12.86-8.52-2.51-4.8-3-10.41-2.9-15.83a175.85 175.85 0 0 1 1.9-20.59c.72-5.44 1.46-10.94 3.5-16 1.55-3.85 4.74-9.94 9.19-10.89 4.45-.95 8.19 1.96 10.58-4.42z" fill="url(#a)" style="fill:url(#c);stroke-width:1"/><path d="M32.513 209.12c-2-6-2.8-12.27-4.69-18.27-1.89-6-5.2-11.95-10.72-14.95-5.52-3-13.57-1.88-16.61 3.63a12.82 12.82 0 0 0-1.25 7.7c1.1 9.29 8.84 16.56 10.9 25.69 1.23 5.42.34 11.11 1.14 16.62a27.83 27.83 0 0 0 12.15 19.06c3.7 2.42 7.94 3.92 11.72 6.22a32 32 0 0 1 11.7 12.57 29 29 0 0 0 9.5-22.61c-.85-18.39-18.64-20.34-23.84-35.66z" fill="#80d4ff"/><path d="M32.513 209.12c-2-6-2.8-12.27-4.69-18.27-1.89-6-5.2-11.95-10.72-14.95-5.52-3-13.57-1.88-16.61 3.63a12.82 12.82 0 0 0-1.25 7.7c1.1 9.29 8.84 16.56 10.9 25.69 1.23 5.42.34 11.11 1.14 16.62a27.83 27.83 0 0 0 12.15 19.06c3.7 2.42 7.94 3.92 11.72 6.22a32 32 0 0 1 11.7 12.57 29 29 0 0 0 9.5-22.61c-.85-18.39-18.64-20.34-23.84-35.66z" fill="#bae67e" style="stroke-width:1"/><path d="M53.823 176.11c-.81-3.91-.78-8-2-11.81-1.22-3.81-4.12-7.51-8.1-7.91-4.58-.46-8.56 3.79-9.49 8.3-.93 4.51.37 9.15 1.67 13.57l5.07 17.3c1.58 5.37 2.54 12.47-2.25 15.37a30.9 30.9 0 0 1-3.5 1.49 11.24 11.24 0 0 0-6.5 10.54c.26 5.46 4.39 9.81 8 13.93 3.61 4.12 7.07 9.36 5.69 14.65-1 3.92-4.63 7.32-3.88 11.3.61 3.3 4.21 5.35 7.57 5.38 3.36.03 6.52-1.46 9.55-2.92l14.47-7c4.65-2.25 9.54-4.7 12.32-9.06a22.44 22.44 0 0 0 2.92-9.88 55.2 55.2 0 0 0-10-37.23c-7.08-9.85-18.75-12.59-21.54-26.02z" fill="#80d4ff"/><path d="M405.203 143.94c-10.4 17.26-7.49 40.57-19.45 56.8-3.63 4.93-8.46 8.92-11.72 14.11-3.26 5.19-4.58 12.37-.82 17.2 10.12-5.87 13.65-18.42 18.69-29a5.68 5.68 0 0 1 1.64-2.29c2.73-1.93 6.12 1.85 6.42 5.18.81 8.87-6.71 16.09-9.82 24.43-3.9 10.46-1.11 23.58-8.51 31.94-1.5 1.69-3.52 3.13-5.79 3.14a9.37 9.37 0 0 1-4.64-1.55 40.21 40.21 0 0 1-19.73-30.41c-1.07-10.66.18-23.16 6.71-31.65 5.33-6.93 5.16-14.28 8.42-22.6a61.08 61.08 0 0 1 15.59-22.64 57.21 57.21 0 0 1 10.73-7.75c2.18-1.19 11.31-3.25 12.28-4.91z" fill="#bae67e" style="stroke-width:1"/><path d="M403.803 143.94c-10.4 17.26-7.5 40.57-19.45 56.8-3.63 4.93-8.46 8.92-11.72 14.11-3.26 5.19-4.58 12.37-.83 17.2 10.13-5.87 13.65-18.42 18.7-29a5.58 5.58 0 0 1 1.64-2.29c2.73-1.93 6.12 1.85 6.42 5.18.81 8.87-6.71 16.09-9.82 24.43-3.9 10.46-1.11 23.58-8.51 31.94-1.5 1.69-3.53 3.13-5.79 3.14a9.44 9.44 0 0 1-4.65-1.55 40.26 40.26 0 0 1-19.73-30.41c-1.06-10.66.19-23.16 6.71-31.65 5.34-6.93 5.17-14.28 8.43-22.6a61.08 61.08 0 0 1 15.59-22.64 57.21 57.21 0 0 1 10.73-7.75c2.19-1.19 11.31-3.25 12.28-4.91z" fill="url(#d)" style="fill:url(#e);stroke-width:1"/><path d="M33.791 208.77c-2-6-2.8-12.27-4.69-18.27-1.89-6-5.2-11.95-10.72-14.95-5.52-3-13.57-1.88-16.61 3.63a12.82 12.82 0 0 0-1.25 7.7c1.1 9.29 8.84 16.56 10.9 25.69 1.23 5.42.34 11.11 1.14 16.62a27.83 27.83 0 0 0 12.15 19.06c3.7 2.42 7.94 3.92 11.72 6.22a32 32 0 0 1 11.7 12.57 29 29 0 0 0 9.5-22.61c-.85-18.39-18.64-20.34-23.84-35.66z" fill="url(#f)" style="fill:url(#g);stroke-width:1"/><path d="M53.823 176.11c-.81-3.91-.78-8-2-11.81-1.22-3.81-4.12-7.51-8.1-7.91-4.58-.46-8.56 3.79-9.49 8.3-.93 4.51.37 9.15 1.67 13.57l5.07 17.3c1.58 5.37 2.54 12.47-2.25 15.37a30.9 30.9 0 0 1-3.5 1.49 11.24 11.24 0 0 0-6.5 10.54c.26 5.46 4.39 9.81 8 13.93 3.61 4.12 7.07 9.36 5.69 14.65-1 3.92-4.63 7.32-3.88 11.3.61 3.3 4.21 5.35 7.57 5.38 3.36.03 6.52-1.46 9.55-2.92l14.47-7c4.65-2.25 9.54-4.7 12.32-9.06a22.44 22.44 0 0 0 2.92-9.88 55.2 55.2 0 0 0-10-37.23c-7.08-9.85-18.75-12.59-21.54-26.02z" fill="#bae67e" style="stroke-width:1"/><path d="M55.334 175.737c-.81-3.91-.78-8-2-11.81-1.22-3.81-4.12-7.51-8.1-7.91-4.58-.46-8.56 3.79-9.49 8.3-.93 4.51.37 9.15 1.67 13.57l5.07 17.3c1.58 5.37 2.54 12.47-2.25 15.37a30.9 30.9 0 0 1-3.5 1.49 11.24 11.24 0 0 0-6.5 10.54c.26 5.46 4.39 9.81 8 13.93 3.61 4.12 7.07 9.36 5.69 14.65-1 3.92-4.63 7.32-3.88 11.3.61 3.3 4.21 5.35 7.57 5.38 3.36.03 6.52-1.46 9.55-2.92l14.47-7c4.65-2.25 9.54-4.7 12.32-9.06a22.44 22.44 0 0 0 2.92-9.88 55.2 55.2 0 0 0-10-37.23c-7.08-9.85-18.75-12.59-21.54-26.02z" fill="url(#h)" style="fill:url(#i);stroke-width:1"/><path fill="#80d4ff" d="M82.304 52.19H349.42a8 8 45 0 1 8 8V237.5a8 8 135 0 1-8 8H82.304a8 8 45 0 1-8-8V60.19a8 8 135 0 1 8-8z" style="stroke-width:.972867"/><path fill="#fff" style="stroke-width:.971862" d="M85.573 60.195h260.58a5 5 45 0 1 5 5V234.91a5 5 135 0 1-5 5H85.572a5 5 45 0 1-5-5V65.195a5 5 135 0 1 5-5z"/><g opacity=".52" style="opacity:1;fill:#7a8ba9;fill-opacity:1" fill="#80d4ff"><path style="fill:#7a8ba9;fill-opacity:1" d="M165.96 128.43h56.76v4.16h-56.76zM165.96 136.48h34.64v3.91h-34.64zM214.58 136.48H323.6v3.93H214.58zM183.97 144.56h47.64v4.12h-47.64zM199.26 152.61h56.76v4.16h-56.76zM259.72 152.61h47.57v4.62h-47.57zM199.18 160.67h43.83v3.91h-43.83zM247.21 160.67h90.44V165h-90.44zM165.96 171.57h56.76v4.16h-56.76zM165.96 179.62h34.64v3.91h-34.64zM214.58 179.62H323.6v3.93H214.58zM183.97 187.68h47.64v4.12h-47.64zM199.26 195.75h56.76v4.16h-56.76zM259.72 195.75h47.57v4.62h-47.57zM199.18 203.81h43.83v3.91h-43.83zM247.21 203.81h90.44v4.33h-90.44zM165.96 214.71h56.76v4.16h-56.76zM165.96 222.76h34.64v3.91h-34.64zM214.58 222.76H323.6v3.93H214.58zM183.97 230.82h47.64v4.12h-47.64zM199.26 238.87h56.76v4.16h-56.76zM259.72 238.87h47.57v4.62h-47.57zM199.18 246.95h43.83v3.91h-43.83zM247.21 246.95h90.44v4.33h-90.44z" transform="matrix(1.10486 0 0 1.10486 -62.348 -54.445)"/></g><path transform="scale(-1)" fill="#80d4ff" opacity=".24" style="isolation:isolate;fill:#343e50;fill-opacity:1;opacity:.3" d="M-128.483-156.59h122.99a4 4 45 0 1 4 4v40.05a4 4 135 0 1-4 4h-122.99a4 4 45 0 1-4-4v-40.05a4 4 135 0 1 4-4z"/><path fill="#80d4ff" d="m76.813 244.04-55.61 41.87h389.32l-54.37-42.49z"/><path style="fill:url(#j)" transform="translate(-51.127 -29.12)" d="m127.94 273.16-55.61 41.87h389.32l-54.37-42.49Z"/><path fill="#80d4ff" d="m37.133 301.22-15.93-15.31h389.32l-14.38 16.25z"/><path fill="url(#k)" style="fill:url(#k)" transform="translate(-51.127 -29.12)" d="m88.26 330.34-15.93-15.31h389.32l-14.38 16.25z"/><path style="opacity:.58;isolation:isolate;fill:#80d4ff" d="m185.083 266.624 60.62-.001 17.5 13.439h-94.68z"/><path fill="#80d4ff" opacity=".58" style="isolation:isolate" transform="translate(-49.562 -29.12)" d="m422.9 292.53-16.87-13.75H127.32l-19.37 14.17z"/><g opacity=".24" style="isolation:isolate;opacity:.3;fill:#343e50;fill-opacity:1;filter:url(#l)" transform="translate(-51.127 -29.12)" fill="#80d4ff"><path style="fill:#343e50;fill-opacity:1" d="M333.13 34.116h168.41a6 6 45 0 1 6 6v71.19a6 6 135 0 1-6 6H333.13a6 6 45 0 1-6-6v-71.19a6 6 135 0 1 6-6z"/><path style="fill:#343e50;fill-opacity:1" transform="translate(0 -1.286)" d="m352.68 106.86-25.55 30.22v-30.22z"/></g><path fill="#fff" d="M282.003 0h168.41a6 6 45 0 1 6 6v71.19a6 6 135 0 1-6 6h-168.41a6 6 45 0 1-6-6V6a6 6 135 0 1 6-6z"/><path fill="#fff" d="M276.003 70.11h25.55l-25.55 30.22zM126.143 152.38H3.153a4 4 0 0 1-4-4v-40.05a4 4 0 0 1 4-4h122.99a4 4 0 0 1 4 4v40.05a4 4 0 0 1-4 4z"/><g opacity=".52" style="fill:#7a8ba9;fill-opacity:1;opacity:1" fill="#80d4ff"><path style="fill:#7a8ba9;fill-opacity:1" d="M70.5 144.04h30.48v2.24H70.5zM70.5 148.36h18.61v2.1H70.5zM96.62 148.36h58.55v2.11H96.62zM80.18 152.7h25.58v2.21H80.18zM88.39 157.03h30.48v2.24H88.39zM120.86 157.03h25.55v2.48h-25.55zM88.35 161.35h23.54v2.1H88.35zM114.14 161.35h48.57v2.33h-48.57zM70.5 167.2h30.48v2.24H70.5zM70.5 171.53h18.61v2.1H70.5zM96.62 171.53h58.55v2.11H96.62z" transform="translate(-51.127 -29.12)"/></g><text xml:space="preserve" style="font-style:normal;font-variant:normal;font-weight:400;font-stretch:normal;font-size:42.1365px;line-height:1.25;font-family:Kanit;-inkscape-font-specification:'Kanit, Normal';font-variant-ligatures:normal;font-variant-caps:normal;font-variant-numeric:normal;font-variant-east-asian:normal;fill:#7a8ba9;fill-opacity:1;stroke:none;stroke-width:1.31676;opacity:1" x="299.611" y="55.584"><tspan x="299.611" y="55.584" style="font-style:normal;font-variant:normal;font-weight:400;font-stretch:normal;font-size:42.1365px;font-family:Kanit;-inkscape-font-specification:'Kanit, Normal';font-variant-ligatures:normal;font-variant-caps:normal;font-variant-numeric:normal;font-variant-east-asian:normal;stroke-width:1.31676;fill:#7a8ba9;fill-opacity:1">&lt;html&gt;</tspan></text></svg>