<?xml version="1.0" encoding="UTF-8" standalone="no"?>
<svg
   xmlns:dc="http://purl.org/dc/elements/1.1/"
   xmlns:cc="http://creativecommons.org/ns#"
   xmlns:rdf="http://www.w3.org/1999/02/22-rdf-syntax-ns#"
   xmlns:svg="http://www.w3.org/2000/svg"
   xmlns="http://www.w3.org/2000/svg"
   xmlns:xlink="http://www.w3.org/1999/xlink"
   xmlns:sodipodi="http://sodipodi.sourceforge.net/DTD/sodipodi-0.dtd"
   xmlns:inkscape="http://www.inkscape.org/namespaces/inkscape"
   id="Layer_1"
   data-name="Layer 1"
   viewBox="0 0 455.94491 334.93452"
   width="347.29861"
   height="254.36171"
   class="illustration styles_illustrationTablet__1DWOa"
   version="1.1"
   sodipodi:docname="html.svg"
   inkscape:version="1.0.1 (3bc2e813f5, 2020-09-07)">
  <metadata
     id="metadata190">
    <rdf:RDF>
      <cc:Work
         rdf:about="">
        <dc:format>image/svg+xml</dc:format>
        <dc:type
           rdf:resource="http://purl.org/dc/dcmitype/StillImage" />
        <dc:title>Code html</dc:title>
      </cc:Work>
    </rdf:RDF>
  </metadata>
  <sodipodi:namedview
     pagecolor="#ffffff"
     bordercolor="#666666"
     borderopacity="1"
     objecttolerance="10"
     gridtolerance="10"
     guidetolerance="10"
     inkscape:pageopacity="0"
     inkscape:pageshadow="2"
     inkscape:window-width="1920"
     inkscape:window-height="1027"
     id="namedview188"
     showgrid="false"
     inkscape:zoom="1.0732419"
     inkscape:cx="-107.69125"
     inkscape:cy="126.53187"
     inkscape:window-x="-8"
     inkscape:window-y="-8"
     inkscape:window-maximized="1"
     inkscape:current-layer="Layer_1"
     fit-margin-top="0"
     fit-margin-left="0"
     fit-margin-right="0"
     fit-margin-bottom="0"
     inkscape:document-rotation="0" />
  <defs
     id="defs27">
    <inkscape:path-effect
       effect="fillet_chamfer"
       id="path-effect929"
       is_visible="true"
       lpeversion="1"
       satellites_param="F,0,0,1,0,6,0,1 @ F,0,0,1,0,6,0,1 @ F,0,0,1,0,6,0,1 @ F,0,0,1,0,6,0,1"
       unit="px"
       method="auto"
       mode="F"
       radius="6"
       chamfer_steps="1"
       flexible="false"
       use_knot_distance="true"
       apply_no_radius="true"
       apply_with_radius="true"
       only_selected="false"
       hide_knots="false" />
    <inkscape:path-effect
       effect="fillet_chamfer"
       id="path-effect927"
       is_visible="true"
       lpeversion="1"
       satellites_param="F,0,0,1,0,6,0,1 @ F,0,0,1,0,6,0,1 @ F,0,0,1,0,6,0,1 @ F,0,0,1,0,6,0,1"
       unit="px"
       method="auto"
       mode="F"
       radius="6"
       chamfer_steps="1"
       flexible="false"
       use_knot_distance="true"
       apply_no_radius="true"
       apply_with_radius="true"
       only_selected="false"
       hide_knots="false" />
    <inkscape:path-effect
       effect="fillet_chamfer"
       id="path-effect928"
       is_visible="true"
       lpeversion="1"
       satellites_param="F,0,0,1,0,5,0,1 @ F,0,0,1,0,5,0,1 @ F,0,0,1,0,5,0,1 @ F,0,0,1,0,5,0,1"
       unit="px"
       method="auto"
       mode="F"
       radius="5"
       chamfer_steps="1"
       flexible="false"
       use_knot_distance="true"
       apply_no_radius="true"
       apply_with_radius="true"
       only_selected="false"
       hide_knots="false" />
    <inkscape:path-effect
       effect="fillet_chamfer"
       id="path-effect926"
       is_visible="true"
       lpeversion="1"
       satellites_param="F,0,0,1,0,8,0,1 @ F,0,0,1,0,8,0,1 @ F,0,0,1,0,8,0,1 @ F,0,0,1,0,8,0,1"
       unit="px"
       method="auto"
       mode="F"
       radius="8"
       chamfer_steps="1"
       flexible="false"
       use_knot_distance="true"
       apply_no_radius="true"
       apply_with_radius="true"
       only_selected="false"
       hide_knots="false" />
    <inkscape:path-effect
       effect="fillet_chamfer"
       id="path-effect924"
       is_visible="true"
       lpeversion="1"
       satellites_param="F,0,0,1,0,4,0,1 @ F,0,0,1,0,4,0,1 @ F,0,0,1,0,4,0,1 @ F,0,0,1,0,4,0,1"
       unit="px"
       method="auto"
       mode="F"
       radius="4"
       chamfer_steps="1"
       flexible="false"
       use_knot_distance="true"
       apply_no_radius="true"
       apply_with_radius="true"
       only_selected="false"
       hide_knots="false" />
    <inkscape:path-effect
       effect="fillet_chamfer"
       id="path-effect922"
       is_visible="true"
       lpeversion="1"
       satellites_param="F,0,0,1,0,4,0,1 @ F,0,0,1,0,4,0,1 @ F,0,0,1,0,4,0,1 @ F,0,0,1,0,4,0,1"
       unit="px"
       method="auto"
       mode="F"
       radius="4"
       chamfer_steps="1"
       flexible="false"
       use_knot_distance="true"
       apply_no_radius="true"
       apply_with_radius="true"
       only_selected="false"
       hide_knots="false" />
    <inkscape:path-effect
       effect="fillet_chamfer"
       id="path-effect920"
       is_visible="true"
       lpeversion="1"
       satellites_param="F,1,0,1,0,0,0,1 @ F,1,0,1,0,0,0,1 @ F,1,0,1,0,0,0,1 @ F,1,0,1,0,0,0,1 @ F,1,0,1,0,0,0,1 @ F,1,0,1,0,0,0,1 @ F,1,0,1,0,0,0,1 @ F,1,0,1,0,0,0,1"
       unit="px"
       method="auto"
       mode="F"
       radius="0"
       chamfer_steps="1"
       flexible="true"
       use_knot_distance="true"
       apply_no_radius="true"
       apply_with_radius="true"
       only_selected="false"
       hide_knots="false" />
    <linearGradient
       id="linear-gradient"
       x1="475.01001"
       y1="246.39999"
       x2="410.51001"
       y2="296.41"
       gradientUnits="userSpaceOnUse">
      <stop
         offset="0"
         stop-color="#010101"
         stop-opacity="0"
         id="stop2" />
      <stop
         offset="0.95"
         stop-color="#010101"
         id="stop4" />
    </linearGradient>
    <linearGradient
       id="linear-gradient-2"
       x1="469.60001"
       y1="233.13"
       x2="343.09"
       y2="310.39999"
       xlink:href="#linear-gradient"
       gradientTransform="translate(-75.287354,-32.400002)" />
    <linearGradient
       id="linear-gradient-3"
       x1="92.050003"
       y1="248.63"
       x2="166.83"
       y2="274.79999"
       xlink:href="#linear-gradient"
       gradientTransform="translate(-75.287354,-32.400002)" />
    <linearGradient
       id="linear-gradient-4"
       x1="109.42"
       y1="240.94"
       x2="272.54001"
       y2="300.29001"
       xlink:href="#linear-gradient"
       gradientTransform="translate(-75.287354,-32.400002)" />
    <linearGradient
       id="linear-gradient-5"
       x1="266.42001"
       y1="253.11"
       x2="267.04999"
       y2="321.66"
       gradientUnits="userSpaceOnUse">
      <stop
         offset="0"
         stop-color="#fff"
         stop-opacity="0"
         id="stop10" />
      <stop
         offset="0.95"
         stop-color="#fff"
         id="stop12" />
    </linearGradient>
    <linearGradient
       id="linear-gradient-6"
       x1="363.42999"
       y1="320.76001"
       x2="367.87"
       y2="212.33"
       xlink:href="#linear-gradient"
       gradientTransform="translate(-75.287354,-32.400002)" />
    <linearGradient
       id="linear-gradient-7"
       x1="263.85999"
       y1="343.48999"
       x2="275.70001"
       y2="235.67999"
       xlink:href="#linear-gradient" />
    <linearGradient
       id="linear-gradient-8"
       x1="324.23999"
       y1="294.23001"
       x2="338.81"
       y2="294.23001"
       xlink:href="#linear-gradient"
       gradientTransform="translate(-75.287354,-32.400002)" />
    <linearGradient
       id="linear-gradient-9"
       x1="352.35999"
       y1="211.36"
       x2="374.28"
       y2="211.36"
       gradientUnits="userSpaceOnUse">
      <stop
         offset="0"
         stop-color="#e5c6d6"
         id="stop18" />
      <stop
         offset="0.42"
         stop-color="#ead4d0"
         id="stop20" />
      <stop
         offset="1"
         stop-color="#f0e9cb"
         id="stop22" />
    </linearGradient>
    <linearGradient
       id="linear-gradient-10"
       x1="297.94"
       y1="276.64001"
       x2="320.51001"
       y2="276.64001"
       xlink:href="#linear-gradient-9"
       gradientTransform="translate(-75.287354,-32.400002)" />
    <linearGradient
       id="linear-gradient-11"
       x1="348"
       y1="278.72"
       x2="375.69"
       y2="258.73999"
       xlink:href="#linear-gradient"
       gradientTransform="translate(-75.287354,-32.400002)" />
    <linearGradient
       id="linear-gradient-2-1"
       x1="469.60001"
       y1="233.13"
       x2="343.09"
       y2="310.39999"
       xlink:href="#linear-gradient"
       gradientTransform="translate(-75.287355,-32.399998)" />
    <linearGradient
       inkscape:collect="always"
       xlink:href="#linear-gradient"
       id="linearGradient1130"
       gradientUnits="userSpaceOnUse"
       x1="475.01001"
       y1="246.39999"
       x2="410.51001"
       y2="296.41"
       gradientTransform="translate(-74.981009,-32.025401)" />
    <linearGradient
       id="linear-gradient-3-1"
       x1="92.050003"
       y1="248.63"
       x2="166.83"
       y2="274.79999"
       xlink:href="#linear-gradient"
       gradientTransform="translate(-74.008816,-32.749166)" />
    <linearGradient
       id="linear-gradient-4-6"
       x1="109.42"
       y1="240.94"
       x2="272.54001"
       y2="300.29001"
       xlink:href="#linear-gradient"
       gradientTransform="translate(-73.776043,-32.77327)" />
    <filter
       inkscape:collect="always"
       style="color-interpolation-filters:sRGB"
       id="filter946"
       x="-2.334183e-05"
       width="1.0000467"
       y="-4.1972488e-05"
       height="1.0000839">
      <feGaussianBlur
         inkscape:collect="always"
         stdDeviation="0.0017546249"
         id="feGaussianBlur948" />
    </filter>
  </defs>
  <title
     id="title29">Code html</title>
  <path
     d="M 20.796562,277.03381 C 13.580654,268.27258 7.347299,258.41015 4.116647,247.43029 -3.099265,222.83087 5.51581,196.41765 16.166742,173.1381 c 10.21861,-22.29981 28.14834,-51.32843 28.51779,-76.543234 0.0708,-4.55066 -1.08474,-9.02034 -1.77647,-13.5224 A 63.166733,65.069435 0 0 1 59.658722,28.553738 63.544036,65.458103 0 0 1 99.456282,9.3146928 C 146.67411,4.8855008 197.71215,24.877591 227.52691,28.942406 c 34.3424,4.688302 69.47869,-6.477794 103.68746,-0.809723 30.44358,5.028387 59.94393,-9.619523 75.80636,17.619603 15.86242,27.23913 17.51312,95.952314 5.68312,125.288604 -4.37042,10.84222 -10.62736,20.92329 -13.59075,32.25943 -3.25425,12.46974 -2.30312,25.70874 -0.1415,38.42951 1.72145,10.15394 4.20536,20.42124 2.87694,30.63995 -1.5721,12.14586 -8.46572,22.97999 -16.90002,31.61975 -23.34559,23.91923 -58.24607,32.71285 -91.1107,30.65614 -32.86463,-2.05668 -64.36938,-13.7653 -95.11168,-25.85449 -7.38885,-2.91501 -14.81699,-5.8786 -22.62243,-7.23083 -8.92163,-1.53848 -18.07907,-0.91499 -27.06359,-0.12147 -25.24782,2.19436 -51.651148,10.17014 -76.749618,10.5993 -19.67475,0.34008 -39.59319,-20.5427 -51.49394,-35.00437 z"
     fill="#80d4ff"
     opacity="0.24"
     style="isolation:isolate;stroke-width:0.797797;opacity:0.3;fill:#343e50;fill-opacity:1;stroke:#7a8ba9;stroke-opacity:1"
     id="path31" />
  <path
     d="m 395.24264,189.6 c 1.32,-3.53 0.83,-7.47 1.41,-11.2 a 10.39,10.39 0 0 1 1.92,-4.93 7.27,7.27 0 0 1 7.49,-2.45 c 3.57,1 5.84,4.71 6.24,8.39 0.4,3.68 -0.69,7.34 -1.89,10.84 -2.51,7.27 -5.51,14.36 -8.07,21.61 -2.11,6 -3.47,13.76 1.45,17.79 1.26,1 2.84,1.69 3.91,2.92 a 8.16,8.16 0 0 1 1.65,3.89 c 1.93,10.21 -5.34,20.13 -14,25.81 -2.88,1.88 -6.09,3.5 -9.52,3.59 -5.42,0.13 -10.35,-3.72 -12.86,-8.53 -2.51,-4.81 -3,-10.4 -2.9,-15.82 a 175.45,175.45 0 0 1 1.9,-20.59 c 0.72,-5.44 1.46,-11 3.5,-16 1.55,-3.86 4.74,-10 9.18,-10.9 4.44,-0.9 8.2,1.98 10.59,-4.42 z"
     fill="#80d4ff"
     id="path33" />
  <path
     d="m 395.24264,189.6 c 1.32,-3.53 0.83,-7.47 1.41,-11.2 a 10.39,10.39 0 0 1 1.92,-4.93 7.27,7.27 0 0 1 7.49,-2.45 c 3.57,1 5.84,4.71 6.24,8.39 0.4,3.68 -0.69,7.34 -1.89,10.84 -2.51,7.27 -5.51,14.36 -8.07,21.61 -2.11,6 -3.47,13.76 1.45,17.79 1.26,1 2.84,1.69 3.91,2.92 a 8.1599999,8.1599999 0 0 1 1.65,3.89 c 1.93,10.21 -5.34,20.13 -14,25.81 -2.88,1.88 -6.09,3.5 -9.52,3.59 -5.42,0.13 -10.35,-3.72 -12.86,-8.53 -2.51,-4.81 -3,-10.4 -2.9,-15.82 a 175.44999,175.44999 0 0 1 1.9,-20.59 c 0.72,-5.44 1.46,-11 3.5,-16 1.55,-3.86 4.74,-10 9.18,-10.9 4.44,-0.9 8.2,1.98 10.59,-4.42 z"
     fill="#bae67e"
     id="path33-7"
     style="stroke-width:1" />
  <path
     d="m 405.20264,143.94 c -10.4,17.26 -7.49,40.57 -19.45,56.8 -3.63,4.93 -8.46,8.92 -11.72,14.11 -3.26,5.19 -4.58,12.37 -0.82,17.2 10.12,-5.87 13.65,-18.42 18.69,-29 a 5.68,5.68 0 0 1 1.64,-2.29 c 2.73,-1.93 6.12,1.85 6.42,5.18 0.81,8.87 -6.71,16.09 -9.82,24.43 -3.9,10.46 -1.11,23.58 -8.51,31.94 -1.5,1.69 -3.52,3.13 -5.79,3.14 a 9.37,9.37 0 0 1 -4.64,-1.55 40.21,40.21 0 0 1 -19.73,-30.41 c -1.07,-10.66 0.18,-23.16 6.71,-31.65 5.33,-6.93 5.16,-14.28 8.42,-22.6 a 61.08,61.08 0 0 1 15.59,-22.64 57.21,57.21 0 0 1 10.73,-7.75 c 2.18,-1.19 11.31,-3.25 12.28,-4.91 z"
     fill="#80d4ff"
     id="path37" />
  <path
     d="m 393.67898,189.7646 c 1.32,-3.54 0.83,-7.47 1.41,-11.2 a 10.42,10.42 0 0 1 1.92,-4.94 7.27,7.27 0 0 1 7.49,-2.44 c 3.57,1 5.84,4.71 6.24,8.38 0.4,3.67 -0.69,7.34 -1.89,10.84 -2.51,7.27 -5.51,14.36 -8.07,21.62 -2.11,6 -3.47,13.75 1.45,17.78 1.26,1 2.84,1.7 3.91,2.93 a 8.1299999,8.1299999 0 0 1 1.65,3.88 c 1.93,10.22 -5.34,20.13 -14,25.82 -2.88,1.88 -6.09,3.5 -9.52,3.58 -5.42,0.14 -10.35,-3.72 -12.86,-8.52 -2.51,-4.8 -3,-10.41 -2.9,-15.83 a 175.85,175.85 0 0 1 1.9,-20.59 c 0.72,-5.44 1.46,-10.94 3.5,-16 1.55,-3.85 4.74,-9.94 9.19,-10.89 4.45,-0.95 8.19,1.96 10.58,-4.42 z"
     fill="url(#linear-gradient)"
     id="path35"
     style="fill:url(#linearGradient1130);stroke-width:1" />
  <path
     d="m 32.512642,209.12 c -2,-6 -2.8,-12.27 -4.69,-18.27 -1.89,-6 -5.2,-11.95 -10.72,-14.95 -5.519996,-3 -13.569996,-1.88 -16.609996,3.63 a 12.82,12.82 0 0 0 -1.25,7.7 c 1.1,9.29 8.84,16.56 10.9,25.69 1.23,5.42 0.34,11.11 1.14,16.62 a 27.83,27.83 0 0 0 12.149996,19.06 c 3.7,2.42 7.94,3.92 11.72,6.22 a 32,32 0 0 1 11.7,12.57 29,29 0 0 0 9.5,-22.61 c -0.85,-18.39 -18.64,-20.34 -23.84,-35.66 z"
     fill="#80d4ff"
     id="path41" />
  <path
     d="m 32.512641,209.12 c -2,-6 -2.8,-12.27001 -4.69,-18.27 -1.89,-6 -5.2,-11.95 -10.72,-14.95 -5.519999,-3 -13.57,-1.88 -16.61,3.62999 a 12.82,12.82 0 0 0 -1.25,7.70001 c 1.1,9.29 8.84,16.56 10.900001,25.69 1.23,5.42 0.34,11.10999 1.14,16.62 a 27.83,27.83 0 0 0 12.149999,19.05999 c 3.7,2.42 7.940001,3.92001 11.72,6.22 a 32,32 0 0 1 11.700001,12.57 28.999999,28.999999 0 0 0 9.499999,-22.60999 c -0.849999,-18.39 -18.64,-20.34001 -23.84,-35.66 z"
     fill="#bae67e"
     id="path41-4"
     style="stroke-width:1" />
  <path
     d="m 53.822642,176.11 c -0.81,-3.91 -0.78,-8 -2,-11.81 -1.22,-3.81 -4.12,-7.51 -8.1,-7.91 -4.58,-0.46 -8.56,3.79 -9.49,8.3 -0.93,4.51 0.37,9.15 1.67,13.57 l 5.07,17.3 c 1.58,5.37 2.54,12.47 -2.25,15.37 a 30.9,30.9 0 0 1 -3.5,1.49 11.24,11.24 0 0 0 -6.5,10.54 c 0.26,5.46 4.39,9.81 8,13.93 3.61,4.12 7.07,9.36 5.69,14.65 -1,3.92 -4.63,7.32 -3.88,11.3 0.61,3.3 4.21,5.35 7.57,5.38 3.36,0.03 6.52,-1.46 9.55,-2.92 l 14.47,-7 c 4.65,-2.25 9.54,-4.7 12.32,-9.06 a 22.44,22.44 0 0 0 2.92,-9.88 55.2,55.2 0 0 0 -10,-37.23 c -7.08,-9.85 -18.75,-12.59 -21.54,-26.02 z"
     fill="#80d4ff"
     id="path45" />
  <path
     d="m 405.20264,143.94 c -10.4,17.26 -7.49,40.57 -19.45,56.8 -3.63,4.93 -8.46,8.92 -11.72,14.11 -3.26,5.19 -4.58,12.37 -0.82,17.2 10.12,-5.87 13.65,-18.42 18.69,-29 a 5.6799999,5.6799999 0 0 1 1.64,-2.29 c 2.73,-1.93 6.12,1.85 6.42,5.18 0.81,8.87 -6.71,16.09 -9.82,24.43 -3.9,10.46 -1.11,23.58 -8.51,31.94 -1.5,1.69 -3.52,3.13 -5.79,3.14 a 9.3699999,9.3699999 0 0 1 -4.64,-1.55 40.21,40.21 0 0 1 -19.73,-30.41 c -1.07,-10.66 0.18,-23.16 6.71,-31.65 5.33,-6.93 5.16,-14.28 8.42,-22.6 a 61.079999,61.079999 0 0 1 15.59,-22.64 57.21,57.21 0 0 1 10.73,-7.75 c 2.18,-1.19 11.31,-3.25 12.28,-4.91 z"
     fill="#bae67e"
     id="path37-6"
     style="stroke-width:1" />
  <path
     d="m 403.80264,143.94 c -10.4,17.26 -7.5,40.57 -19.45,56.8 -3.63,4.93 -8.46,8.92 -11.72,14.11 -3.26,5.19 -4.58,12.37 -0.83,17.2 10.13,-5.87 13.65,-18.42 18.7,-29 a 5.5799999,5.5799999 0 0 1 1.64,-2.29 c 2.73,-1.93 6.12,1.85 6.42,5.18 0.81,8.87 -6.71,16.09 -9.82,24.43 -3.9,10.46 -1.11,23.58 -8.51,31.94 -1.5,1.69 -3.53,3.13 -5.79,3.14 a 9.4399999,9.4399999 0 0 1 -4.65,-1.55 40.259999,40.259999 0 0 1 -19.73,-30.41 c -1.06,-10.66 0.19,-23.16 6.71,-31.65 5.34,-6.93 5.17,-14.28 8.43,-22.6 a 61.079999,61.079999 0 0 1 15.59,-22.64 57.21,57.21 0 0 1 10.73,-7.75 c 2.19,-1.19 11.31,-3.25 12.28,-4.91 z"
     fill="url(#linear-gradient-2)"
     id="path39"
     style="fill:url(#linear-gradient-2-1);stroke-width:1" />
  <path
     d="m 33.791182,208.77084 c -2,-6 -2.8,-12.27001 -4.69,-18.27 -1.89,-6 -5.2,-11.95 -10.72,-14.95 -5.519999,-3 -13.5700009,-1.88 -16.6100009,3.62999 a 12.82,12.82 0 0 0 -1.24999994,7.70001 c 1.09999994,9.29 8.83999994,16.56 10.90000184,25.69 1.23,5.42 0.34,11.10999 1.14,16.62 a 27.83,27.83 0 0 0 12.149999,19.05999 c 3.7,2.42 7.940001,3.92001 11.72,6.22 a 32,32 0 0 1 11.700001,12.57 28.999999,28.999999 0 0 0 9.499999,-22.60999 c -0.849999,-18.39 -18.64,-20.34001 -23.84,-35.66 z"
     fill="url(#linear-gradient-3)"
     id="path43"
     style="fill:url(#linear-gradient-3-1);stroke-width:1" />
  <path
     d="m 53.822641,176.10999 c -0.81,-3.90999 -0.78,-7.99999 -2,-11.80999 -1.219999,-3.81 -4.12,-7.51 -8.1,-7.91 -4.58,-0.46 -8.559999,3.79 -9.49,8.3 -0.929999,4.51 0.370001,9.15 1.67,13.57 l 5.07,17.29999 c 1.58,5.37001 2.540001,12.47 -2.249999,15.37001 a 30.9,30.9 0 0 1 -3.5,1.48999 11.24,11.24 0 0 0 -6.5,10.54001 c 0.259999,5.45999 4.389999,9.81 7.999999,13.93 3.61,4.12 7.07,9.35999 5.690001,14.64999 -1,3.92 -4.63,7.32 -3.88,11.3 0.609999,3.3 4.209999,5.35 7.57,5.38 3.359999,0.03 6.52,-1.46 9.549999,-2.92 l 14.470001,-7 c 4.65,-2.24999 9.54,-4.7 12.32,-9.06 a 22.44,22.44 0 0 0 2.92,-9.88 55.199999,55.199999 0 0 0 -10,-37.23 c -7.08,-9.84999 -18.750001,-12.58999 -21.540001,-26.02 z"
     fill="#bae67e"
     id="path45-6"
     style="stroke-width:1" />
  <path
     d="m 55.333955,175.73673 c -0.81,-3.90999 -0.78,-7.99999 -2,-11.80999 -1.219999,-3.81 -4.12,-7.51 -8.1,-7.91 -4.58,-0.46 -8.559999,3.79 -9.49,8.3 -0.929999,4.51 0.370001,9.15 1.67,13.57 l 5.07,17.29999 c 1.58,5.37001 2.540001,12.47 -2.249999,15.37001 a 30.9,30.9 0 0 1 -3.5,1.48999 11.24,11.24 0 0 0 -6.5,10.54001 c 0.259999,5.45999 4.389999,9.81 7.999999,13.93 3.61,4.12 7.07,9.35999 5.690001,14.64999 -1,3.92 -4.63,7.32 -3.88,11.3 0.609999,3.3 4.209999,5.35 7.57,5.38 3.359999,0.03 6.52,-1.46 9.549999,-2.92 l 14.470001,-7 c 4.65,-2.24999 9.54,-4.7 12.32,-9.06 a 22.44,22.44 0 0 0 2.92,-9.88 55.199999,55.199999 0 0 0 -10,-37.23 c -7.08,-9.84999 -18.750001,-12.58999 -21.540001,-26.02 z"
     fill="url(#linear-gradient-4)"
     id="path47"
     style="fill:url(#linear-gradient-4-6);stroke-width:1" />
  <path
     x="74.303856"
     y="52.189999"
     width="283.11755"
     height="193.31"
     rx="0"
     fill="#80d4ff"
     id="rect49"
     ry="0"
     inkscape:path-effect="#path-effect926"
     d="M 82.303856,52.189999 H 349.42141 a 8,8 45 0 1 8,8 l 0,177.310001 a 8,8 135 0 1 -8,8 H 82.303856 a 8,8 45 0 1 -8,-8 l 0,-177.310001 a 8,8 135 0 1 8,-8 z"
     sodipodi:type="rect"
     style="stroke-width:0.972867" />
  <path
     x="80.572853"
     y="60.195488"
     width="270.57956"
     height="179.71315"
     rx="0"
     fill="#ffffff"
     id="rect51"
     style="stroke-width:0.971862"
     ry="0"
     inkscape:path-effect="#path-effect928"
     d="M 85.572853,60.195488 H 346.15241 a 5,5 45 0 1 5,5 V 234.90864 a 5,5 135 0 1 -5,5 H 85.572853 a 5,5 45 0 1 -5,-5 V 65.195488 a 5,5 135 0 1 5,-5 z"
     sodipodi:type="rect" />
  <g
     opacity="0.52"
     id="g101"
     transform="matrix(1.1048636,0,0,1.1048636,-62.347555,-54.444752)"
     style="opacity:1;fill:#7a8ba9;fill-opacity:1">
    <rect
       x="165.96001"
       y="128.42999"
       width="56.759998"
       height="4.1599998"
       fill="#80d4ff"
       id="rect53"
       style="fill:#7a8ba9;fill-opacity:1" />
    <rect
       x="165.96001"
       y="136.48"
       width="34.639999"
       height="3.9100001"
       fill="#80d4ff"
       id="rect55"
       style="fill:#7a8ba9;fill-opacity:1" />
    <rect
       x="214.58"
       y="136.48"
       width="109.02"
       height="3.9300001"
       fill="#80d4ff"
       id="rect57"
       style="fill:#7a8ba9;fill-opacity:1" />
    <rect
       x="183.97"
       y="144.56"
       width="47.639999"
       height="4.1199999"
       fill="#80d4ff"
       id="rect59"
       style="fill:#7a8ba9;fill-opacity:1" />
    <rect
       x="199.25999"
       y="152.61"
       width="56.759998"
       height="4.1599998"
       fill="#80d4ff"
       id="rect61"
       style="fill:#7a8ba9;fill-opacity:1" />
    <rect
       x="259.72"
       y="152.61"
       width="47.57"
       height="4.6199999"
       fill="#80d4ff"
       id="rect63"
       style="fill:#7a8ba9;fill-opacity:1" />
    <rect
       x="199.17999"
       y="160.67"
       width="43.830002"
       height="3.9100001"
       fill="#80d4ff"
       id="rect65"
       style="fill:#7a8ba9;fill-opacity:1" />
    <rect
       x="247.21001"
       y="160.67"
       width="90.440002"
       height="4.3299999"
       fill="#80d4ff"
       id="rect67"
       style="fill:#7a8ba9;fill-opacity:1" />
    <rect
       x="165.96001"
       y="171.57001"
       width="56.759998"
       height="4.1599998"
       fill="#80d4ff"
       id="rect69"
       style="fill:#7a8ba9;fill-opacity:1" />
    <rect
       x="165.96001"
       y="179.62"
       width="34.639999"
       height="3.9100001"
       fill="#80d4ff"
       id="rect71"
       style="fill:#7a8ba9;fill-opacity:1" />
    <rect
       x="214.58"
       y="179.62"
       width="109.02"
       height="3.9300001"
       fill="#80d4ff"
       id="rect73"
       style="fill:#7a8ba9;fill-opacity:1" />
    <rect
       x="183.97"
       y="187.67999"
       width="47.639999"
       height="4.1199999"
       fill="#80d4ff"
       id="rect75"
       style="fill:#7a8ba9;fill-opacity:1" />
    <rect
       x="199.25999"
       y="195.75"
       width="56.759998"
       height="4.1599998"
       fill="#80d4ff"
       id="rect77"
       style="fill:#7a8ba9;fill-opacity:1" />
    <rect
       x="259.72"
       y="195.75"
       width="47.57"
       height="4.6199999"
       fill="#80d4ff"
       id="rect79"
       style="fill:#7a8ba9;fill-opacity:1" />
    <rect
       x="199.17999"
       y="203.81"
       width="43.830002"
       height="3.9100001"
       fill="#80d4ff"
       id="rect81"
       style="fill:#7a8ba9;fill-opacity:1" />
    <rect
       x="247.21001"
       y="203.81"
       width="90.440002"
       height="4.3299999"
       fill="#80d4ff"
       id="rect83"
       style="fill:#7a8ba9;fill-opacity:1" />
    <rect
       x="165.96001"
       y="214.71001"
       width="56.759998"
       height="4.1599998"
       fill="#80d4ff"
       id="rect85"
       style="fill:#7a8ba9;fill-opacity:1" />
    <rect
       x="165.96001"
       y="222.75999"
       width="34.639999"
       height="3.9100001"
       fill="#80d4ff"
       id="rect87"
       style="fill:#7a8ba9;fill-opacity:1" />
    <rect
       x="214.58"
       y="222.75999"
       width="109.02"
       height="3.9300001"
       fill="#80d4ff"
       id="rect89"
       style="fill:#7a8ba9;fill-opacity:1" />
    <rect
       x="183.97"
       y="230.82001"
       width="47.639999"
       height="4.1199999"
       fill="#80d4ff"
       id="rect91"
       style="fill:#7a8ba9;fill-opacity:1" />
    <rect
       x="199.25999"
       y="238.87"
       width="56.759998"
       height="4.1599998"
       fill="#80d4ff"
       id="rect93"
       style="fill:#7a8ba9;fill-opacity:1" />
    <rect
       x="259.72"
       y="238.87"
       width="47.57"
       height="4.6199999"
       fill="#80d4ff"
       id="rect95"
       style="fill:#7a8ba9;fill-opacity:1" />
    <rect
       x="199.17999"
       y="246.95"
       width="43.830002"
       height="3.9100001"
       fill="#80d4ff"
       id="rect97"
       style="fill:#7a8ba9;fill-opacity:1" />
    <rect
       x="247.21001"
       y="246.95"
       width="90.440002"
       height="4.3299999"
       fill="#80d4ff"
       id="rect99"
       style="fill:#7a8ba9;fill-opacity:1" />
  </g>
  <path
     x="-132.48264"
     y="-156.59"
     width="130.99001"
     height="48.049999"
     rx="0"
     transform="scale(-1)"
     fill="#80d4ff"
     opacity="0.24"
     style="isolation:isolate;fill:#343e50;fill-opacity:1;opacity:0.3"
     id="rect103"
     ry="0"
     inkscape:path-effect="#path-effect924"
     d="M -128.48264,-156.59 H -5.49263 a 4,4 45 0 1 4,4 v 40.05 a 4,4 135 0 1 -4,4 h -122.99001 a 4,4 45 0 1 -4,-4 v -40.05 a 4,4 135 0 1 4,-4 z"
     sodipodi:type="rect" />
  <polygon
     points="127.94,273.16 72.33,315.03 461.65,315.03 407.28,272.54 "
     fill="#80d4ff"
     id="polygon105"
     transform="translate(-51.127354,-29.120002)" />
  <path
     id="polygon107"
     style="fill:url(#linear-gradient-5)"
     transform="translate(-51.127354,-29.120002)"
     d="M 127.94,273.16 72.33,315.03 H 461.65 L 407.28,272.54 Z" />
  <polygon
     points="88.26,330.34 72.33,315.03 461.65,315.03 447.27,331.28 "
     fill="#80d4ff"
     id="polygon111"
     transform="translate(-51.127354,-29.120002)" />
  <polygon
     points="88.26,330.34 72.33,315.03 461.65,315.03 447.27,331.28 "
     fill="url(#linear-gradient-7)"
     id="polygon113"
     style="fill:url(#linear-gradient-7)"
     transform="translate(-51.127354,-29.120002)" />
  <path
     id="polygon115"
     style="opacity:0.58;isolation:isolate;fill:#80d4ff"
     d="m 185.08265,266.62381 60.62,-10e-4 17.5,13.4389 -94.68,10e-4 z"
     sodipodi:nodetypes="ccccc" />
  <polygon
     points="422.9,292.53 406.03,278.78 127.32,278.78 107.95,292.95 "
     fill="#80d4ff"
     opacity="0.58"
     style="isolation:isolate"
     id="polygon117"
     transform="translate(-49.562354,-29.120002)" />
  <g
     opacity="0.24"
     style="isolation:isolate;opacity:0.3;fill:#343e50;fill-opacity:1;filter:url(#filter946)"
     id="g129"
     transform="translate(-51.127354,-29.120002)">
    <path
       x="327.13"
       y="34.11647"
       width="180.41"
       height="83.190002"
       rx="0"
       fill="#80d4ff"
       id="rect125"
       style="fill:#343e50;fill-opacity:1"
       ry="0"
       inkscape:path-effect="#path-effect929"
       d="m 333.13,34.11647 h 168.41001 a 6,6 45 0 1 6,6 v 71.19 a 6,6 135 0 1 -6,6 l -168.41001,0 a 6,6 45 0 1 -6,-6 v -71.19 a 6,6 135 0 1 6,-6 z"
       sodipodi:type="rect" />
    <polygon
       points="352.68,106.86 327.13,137.08 327.13,106.86 "
       fill="#80d4ff"
       id="polygon127"
       style="fill:#343e50;fill-opacity:1"
       transform="translate(0,-1.2861027)" />
  </g>
  <path
     x="276.00266"
     y="7.1054274e-15"
     width="180.41"
     height="83.190002"
     rx="0"
     fill="#ffffff"
     id="rect131"
     ry="0"
     inkscape:path-effect="#path-effect927"
     d="m 282.00266,0 h 168.41 a 6,6 45 0 1 6,6 v 71.190002 a 6,6 135 0 1 -6,6 h -168.41 a 6,6 45 0 1 -6,-6 V 6 a 6,6 135 0 1 6,-6 z"
     sodipodi:type="rect" />
  <polygon
     points="327.13,99.23 352.68,99.23 327.13,129.45 "
     fill="#ffffff"
     id="polygon133"
     transform="translate(-51.127354,-29.120002)" />
  <path
     x="-130.14264"
     y="-152.37999"
     width="130.99001"
     height="48.049999"
     rx="0"
     transform="scale(-1)"
     fill="#ffffff"
     id="rect135"
     sodipodi:type="rect"
     d="m -126.14264,-152.37999 122.9900063,0 a 4,4 45 0 1 4.00000003,4 v 40.05 a 4,4 135 0 1 -4.00000003,4 l -122.9900063,0 a 4,4 45 0 1 -4,-4 v -40.05 a 4,4 135 0 1 4,-4 z"
     ry="0"
     inkscape:path-effect="#path-effect922" />
  <g
     opacity="0.52"
     id="g159"
     transform="translate(-51.127354,-29.120002)"
     style="fill:#7a8ba9;fill-opacity:1;opacity:1">
    <rect
       x="70.5"
       y="144.03999"
       width="30.48"
       height="2.24"
       fill="#80d4ff"
       id="rect137"
       style="fill:#7a8ba9;fill-opacity:1" />
    <rect
       x="70.5"
       y="148.36"
       width="18.610001"
       height="2.0999999"
       fill="#80d4ff"
       id="rect139"
       style="fill:#7a8ba9;fill-opacity:1" />
    <rect
       x="96.620003"
       y="148.36"
       width="58.549999"
       height="2.1099999"
       fill="#80d4ff"
       id="rect141"
       style="fill:#7a8ba9;fill-opacity:1" />
    <rect
       x="80.18"
       y="152.7"
       width="25.58"
       height="2.21"
       fill="#80d4ff"
       id="rect143"
       style="fill:#7a8ba9;fill-opacity:1" />
    <rect
       x="88.389999"
       y="157.03"
       width="30.48"
       height="2.24"
       fill="#80d4ff"
       id="rect145"
       style="fill:#7a8ba9;fill-opacity:1" />
    <rect
       x="120.86"
       y="157.03"
       width="25.549999"
       height="2.48"
       fill="#80d4ff"
       id="rect147"
       style="fill:#7a8ba9;fill-opacity:1" />
    <rect
       x="88.349998"
       y="161.35001"
       width="23.540001"
       height="2.0999999"
       fill="#80d4ff"
       id="rect149"
       style="fill:#7a8ba9;fill-opacity:1" />
    <rect
       x="114.14"
       y="161.35001"
       width="48.57"
       height="2.3299999"
       fill="#80d4ff"
       id="rect151"
       style="fill:#7a8ba9;fill-opacity:1" />
    <rect
       x="70.5"
       y="167.2"
       width="30.48"
       height="2.24"
       fill="#80d4ff"
       id="rect153"
       style="fill:#7a8ba9;fill-opacity:1" />
    <rect
       x="70.5"
       y="171.53"
       width="18.610001"
       height="2.0999999"
       fill="#80d4ff"
       id="rect155"
       style="fill:#7a8ba9;fill-opacity:1" />
    <rect
       x="96.620003"
       y="171.53"
       width="58.549999"
       height="2.1099999"
       fill="#80d4ff"
       id="rect157"
       style="fill:#7a8ba9;fill-opacity:1" />
  </g>
  <text
     xml:space="preserve"
     style="font-style:normal;font-variant:normal;font-weight:normal;font-stretch:normal;font-size:42.1365px;line-height:1.25;font-family:Kanit;-inkscape-font-specification:'Kanit, Normal';font-variant-ligatures:normal;font-variant-caps:normal;font-variant-numeric:normal;font-variant-east-asian:normal;fill:#7a8ba9;fill-opacity:1;stroke:none;stroke-width:1.31676;opacity:1;"
     x="299.61108"
     y="55.58432"
     id="text1103"><tspan
       sodipodi:role="line"
       id="tspan1101"
       x="299.61108"
       y="55.58432"
       style="font-style:normal;font-variant:normal;font-weight:normal;font-stretch:normal;font-size:42.1365px;font-family:Kanit;-inkscape-font-specification:'Kanit, Normal';font-variant-ligatures:normal;font-variant-caps:normal;font-variant-numeric:normal;font-variant-east-asian:normal;stroke-width:1.31676;fill:#7a8ba9;fill-opacity:1;">&lt;html&gt;</tspan></text>
</svg>
