<svg xmlns="http://www.w3.org/2000/svg" xmlns:xlink="http://www.w3.org/1999/xlink" data-name="Layer 1" viewBox="0 0 231.321 287.329" width="174.55" height="202.172" class="illustration styles_illustrationTablet__1DWOa"><defs><linearGradient id="a" x1="320.77" y1="182.33" x2="298.92" y2="397.3" gradientUnits="userSpaceOnUse"><stop offset="0" stop-color="#010101" stop-opacity="0"/><stop offset=".95" stop-color="#010101"/></linearGradient><linearGradient id="c" x1="417.47" y1="192.15" x2="395.63" y2="407.12" xlink:href="#a"/><linearGradient id="d" x1="320.61" y1="169.62" x2="404.94" y2="165.25" gradientUnits="userSpaceOnUse" gradientTransform="rotate(30 420.83 -302.22)"><stop offset="0" stop-color="#fff" stop-opacity="0"/><stop offset=".95" stop-color="#fff"/></linearGradient><linearGradient id="e" x1="374.52" y1="327.37" x2="379.77" y2="151.73" xlink:href="#a" gradientTransform="rotate(31.731 410.925 -272.914)"/><linearGradient id="f" x1="375.31" y1="301.44" x2="378.5" y2="194.31" xlink:href="#a" gradientTransform="rotate(31.731 410.925 -272.914)"/><linearGradient id="g" x1="381.9" y1="84.53" x2="341.71" y2="77.54" xlink:href="#a" gradientTransform="matrix(.86785 .51641 -.52335 .85634 -93.23 -256.188)"/><linearGradient xlink:href="#a" id="b" gradientUnits="userSpaceOnUse" x1="320.77" y1="182.33" x2="298.92" y2="397.3"/></defs><path d="M48.524 44.967C33.51 56.63 28.345 77.245 19.074 94.24c-5.313 9.765-12.133 18.506-17.708 28.104-5.574 9.598-9.902 20.44-9.47 31.654.804 21.26 17.905 37.455 26.268 56.853 2.668 6.197 4.486 12.851 8.088 18.5 2.85 4.47 6.725 8.15 10.907 11.241 16.97 12.638 39.845 16.141 59.573 9.125 13.012-4.63 24.404-13.411 37.541-17.709 19.798-6.479 42.497-2.42 60.596-13.01 8.344-4.89 14.9-12.47 21.121-20.063 12.344-15.073 24.678-32.773 23.37-52.569-.962-14.537-9.29-27.814-9.59-42.378-.173-8.453 2.392-16.722 2.697-25.171.659-17.917-9.398-35.273-23.84-44.948-14.443-9.674-32.635-12.156-49.526-9.033-11.077 2.045-21.65 6.34-32.572 9.163-26.644 6.922-53.414-8.138-78.005 10.968z" fill="#80d4ff" opacity=".24" style="opacity:1;isolation:isolate;fill:#333c4d;fill-opacity:.1;stroke:#667399;stroke-width:.482383;stroke-opacity:.30000001"/><path fill="#80d4ff" d="m81.78 145.094 11.088-37.766-18.125-.407-47.355 36.942zM125.072 170.089l27.162-28.486 9.415 15.493-8.315 59.482z"/><path fill="url(#a)" style="fill:url(#b)" transform="rotate(30 378.247 -287.73)" d="m337.91 235.34-9.28-38.25-15.9 8.71-22.54 55.67z"/><path fill="url(#c)" style="fill:url(#c)" transform="rotate(30 378.247 -287.73)" d="m387.9 235.34 9.28-38.25 15.9 8.71 22.54 55.67z"/><ellipse cx="167.53" cy="189.905" rx="27.53" ry="3.35" fill="#80d4ff" opacity=".24" style="isolation:isolate;fill:#80d4ff;fill-opacity:.1;opacity:1" transform="rotate(30)"/><ellipse cx="165.86" cy="209.675" rx="44.65" ry="5.43" fill="#80d4ff" opacity=".24" style="isolation:isolate;fill:#80d4ff;fill-opacity:.1;opacity:1" transform="rotate(30)"/><ellipse cx="166.69" cy="168.145" rx="69.94" ry="8.51" fill="none" stroke="#fff" stroke-miterlimit="10" stroke-width="6.21" style="isolation:isolate" transform="rotate(30)"/><path d="M193.121 2.004s-87.147.643-117.726 141.909l53.052 30.63s94.147-72.107 64.674-172.539z" fill="#80d4ff"/><path d="M193.121 2.004s-87.147.643-117.726 141.909l53.052 30.63s94.147-72.107 64.674-172.539z" fill="url(#d)" style="fill:url(#d)"/><circle cx="166.97" cy="-5.285" r="20.57" fill="#80d4ff" transform="rotate(30)"/><path d="m54.95 186.69 13.672-7.736a152.3 152.3 0 0 0-15.327 48.134c16.775-3.912 29.023-17.902 40.003-31.17q-2.183 13.417-5.526 26.6a56.61 56.61 0 0 0 23.104-27.57l-.21 9.275a46.78 46.78 0 0 0 14.91-31.472q-12.95-6.739-25.57-14.13-6.048-3.529-12.053-7.242c-2.628-1.625-6.83-5.646-10.055-5.794-6.188-.3-11.304 11.74-13.807 16.434a97.42 97.42 0 0 0-5.403 12.027c-.719 1.942-2.347 11.858-3.739 12.643z" fill="#80d4ff"/><path d="m54.95 186.69 13.672-7.736a152.3 152.3 0 0 0-15.327 48.134c16.775-3.912 29.023-17.902 40.003-31.17q-2.183 13.417-5.526 26.6a56.61 56.61 0 0 0 23.104-27.57l-.21 9.275a46.78 46.78 0 0 0 14.91-31.472q-12.95-6.739-25.57-14.13-6.048-3.529-12.053-7.242c-2.628-1.625-6.83-5.646-10.055-5.794-6.188-.3-11.304 11.74-13.807 16.434a97.42 97.42 0 0 0-5.403 12.027c-.719 1.942-2.347 11.858-3.739 12.643z" fill="url(#e)" style="fill:url(#e)"/><path d="m72.888 177.454 8.33-4.726a93 93 0 0 0-9.335 29.359c10.225-2.39 17.7-10.924 24.395-19.012q-1.33 8.196-3.372 16.233A34.56 34.56 0 0 0 107 182.486l-.144 5.672a28.51 28.51 0 0 0 9.121-19.238q-7.9-4.11-15.594-8.608-3.7-2.171-7.35-4.428c-1.599-.988-4.16-3.443-6.129-3.53-3.788-.168-6.906 7.157-8.453 10.057a61 61 0 0 0-3.306 7.361c-.418 1.153-1.418 7.2-2.257 7.682z" fill="url(#f)" style="fill:url(#f)"/><path d="M172.87 6.26s10.773 12.54 24.516 14.588l-3.758-18.211a3.132 3.09 0 0 0-4.126-2.292z" fill="#80d4ff" style="stroke-width:1.0067"/><path d="M172.87 6.26s10.773 12.54 24.516 14.588L193.58 2.422a2.939 2.9 0 0 0-3.869-2.15z" fill="url(#g)" style="fill:url(#g);stroke-width:1.0067"/><path d="M98.276 214.798c8.575 6.106 14.412 11.58 13.522 13.121-1.58 2.737-21.046-5.546-43.563-18.546-22.516-13-39.423-25.717-37.843-28.454 1.305-2.26 14.049 3.046 31.458 12.312" fill="none" stroke="#fff" stroke-miterlimit="10" stroke-width="4.17" style="isolation:isolate"/></svg>