<?xml version="1.0" encoding="UTF-8" standalone="no"?>
<svg
   xmlns:dc="http://purl.org/dc/elements/1.1/"
   xmlns:cc="http://creativecommons.org/ns#"
   xmlns:rdf="http://www.w3.org/1999/02/22-rdf-syntax-ns#"
   xmlns:svg="http://www.w3.org/2000/svg"
   xmlns="http://www.w3.org/2000/svg"
   xmlns:xlink="http://www.w3.org/1999/xlink"
   xmlns:sodipodi="http://sodipodi.sourceforge.net/DTD/sodipodi-0.dtd"
   xmlns:inkscape="http://www.inkscape.org/namespaces/inkscape"
   id="Layer_1"
   data-name="Layer 1"
   viewBox="0 0 231.32124 287.32863"
   width="174.54962"
   height="202.17195"
   class="illustration styles_illustrationTablet__1DWOa"
   version="1.1"
   sodipodi:docname="Startup_Monochromatic.svg"
   inkscape:version="1.0.1 (3bc2e813f5, 2020-09-07)">
  <metadata
     id="metadata123">
    <rdf:RDF>
      <cc:Work
         rdf:about="">
        <dc:format>image/svg+xml</dc:format>
        <dc:type
           rdf:resource="http://purl.org/dc/dcmitype/StillImage" />
        <dc:title>StartUP 1</dc:title>
      </cc:Work>
    </rdf:RDF>
  </metadata>
  <sodipodi:namedview
     pagecolor="#ffffff"
     bordercolor="#666666"
     borderopacity="1"
     objecttolerance="10"
     gridtolerance="10"
     guidetolerance="10"
     inkscape:pageopacity="0"
     inkscape:pageshadow="2"
     inkscape:window-width="1920"
     inkscape:window-height="1027"
     id="namedview121"
     showgrid="false"
     inkscape:zoom="3.4778709"
     inkscape:cx="47.396227"
     inkscape:cy="126.94282"
     inkscape:window-x="-8"
     inkscape:window-y="-8"
     inkscape:window-maximized="1"
     inkscape:current-layer="Layer_1"
     fit-margin-top="0"
     fit-margin-left="0"
     fit-margin-right="0"
     fit-margin-bottom="0" />
  <defs
     id="defs20">
    <linearGradient
       id="linear-gradient"
       x1="320.76999"
       y1="182.33"
       x2="298.92001"
       y2="397.29999"
       gradientUnits="userSpaceOnUse">
      <stop
         offset="0"
         stop-color="#010101"
         stop-opacity="0"
         id="stop2" />
      <stop
         offset="0.95"
         stop-color="#010101"
         id="stop4" />
    </linearGradient>
    <linearGradient
       id="linear-gradient-2"
       x1="417.47"
       y1="192.14999"
       x2="395.63"
       y2="407.12"
       xlink:href="#linear-gradient" />
    <linearGradient
       id="linear-gradient-3"
       x1="244.82001"
       y1="339.42999"
       x2="119.45"
       y2="208.67999"
       xlink:href="#linear-gradient" />
    <linearGradient
       id="linear-gradient-4"
       x1="227.2"
       y1="327.82999"
       x2="99.669998"
       y2="284.23999"
       xlink:href="#linear-gradient" />
    <linearGradient
       id="linear-gradient-5"
       x1="204.09"
       y1="200.00999"
       x2="189.03"
       y2="393.70999"
       xlink:href="#linear-gradient" />
    <linearGradient
       id="linear-gradient-6"
       x1="236.57001"
       y1="168.89"
       x2="242.31"
       y2="329.23999"
       xlink:href="#linear-gradient" />
    <linearGradient
       id="linear-gradient-7"
       x1="320.60999"
       y1="169.62"
       x2="404.94"
       y2="165.25"
       gradientUnits="userSpaceOnUse"
       gradientTransform="rotate(30,420.82964,-302.21908)">
      <stop
         offset="0"
         stop-color="#fff"
         stop-opacity="0"
         id="stop12" />
      <stop
         offset="0.95"
         stop-color="#fff"
         id="stop14" />
    </linearGradient>
    <linearGradient
       id="linear-gradient-8"
       x1="374.51999"
       y1="327.37"
       x2="379.76999"
       y2="151.73"
       xlink:href="#linear-gradient"
       gradientTransform="rotate(31.731143,410.92507,-272.91432)" />
    <linearGradient
       id="linear-gradient-9"
       x1="375.31"
       y1="301.44"
       x2="378.5"
       y2="194.31"
       xlink:href="#linear-gradient"
       gradientTransform="rotate(31.731143,410.92507,-272.91432)" />
    <linearGradient
       id="linear-gradient-10"
       x1="381.89999"
       y1="84.529999"
       x2="341.70999"
       y2="77.540001"
       xlink:href="#linear-gradient"
       gradientTransform="matrix(0.86784774,0.51641135,-0.52335062,0.85634066,-93.229129,-256.18783)" />
    <linearGradient
       inkscape:collect="always"
       xlink:href="#linear-gradient"
       id="linearGradient948"
       gradientUnits="userSpaceOnUse"
       x1="320.76999"
       y1="182.33"
       x2="298.92001"
       y2="397.29999" />
  </defs>
  <title
     id="title22">StartUP 1</title>
  <path
     d="m 48.524131,44.966624 c -15.0146,11.66487 -20.17872,32.2784 -29.45029,49.27355 -5.3124,9.764386 -12.1325296,18.506136 -17.7073996,28.104076 -5.5748804,9.59795 -9.9028404,20.43965 -9.4705904,31.65346 0.80454,21.25986 17.9052804,37.45512 26.26784,56.8534 2.66799,6.19666 4.48609,12.85088 8.08831,18.49992 2.85079,4.47075 6.7246,8.14946 10.90711,11.24136 16.97025,12.63732 39.84443,16.14106 59.57249,9.12472 13.012779,-4.63004 24.404519,-13.4115 37.541709,-17.70877 19.79734,-6.47921 42.49621,-2.42088 60.59535,-13.00947 8.3448,-4.89011 14.90094,-12.47038 21.12152,-20.0639 12.34342,-15.07285 24.67778,-32.77263 23.36919,-52.56894 -0.96185,-14.53741 -9.28885,-27.8136 -9.58848,-42.37822 -0.1738,-8.452476 2.39068,-16.722226 2.69649,-25.171166 0.65816,-17.91675 -9.3986,-35.27307 -23.84102,-44.94731 -14.44244,-9.674253 -32.63407,-12.156134 -49.52577,-9.033413 -11.0767,2.045473 -21.65026,6.339543 -32.57135,9.163463 -26.644609,6.92144 -53.414089,-8.138383 -78.005099,10.96727 z"
     fill="#80d4ff"
     opacity="0.24"
     style="opacity:1;isolation:isolate;fill:#343e50;fill-opacity:0.301961;stroke:#7a8ba9;stroke-width:0.482383;stroke-opacity:0.3"
     id="path24" />
  <polygon
     points="337.91,235.34 328.63,197.09 312.73,205.8 290.19,261.47 "
     fill="#80d4ff"
     id="polygon28"
     transform="rotate(30,378.24704,-287.72906)" />
  <polygon
     points="387.9,235.34 397.18,197.09 413.08,205.8 435.62,261.47 "
     fill="#80d4ff"
     id="polygon30"
     transform="rotate(30,378.24704,-287.72906)" />
  <polygon
     points="337.91,235.34 328.63,197.09 312.73,205.8 290.19,261.47 "
     fill="url(#linear-gradient)"
     id="polygon32"
     style="fill:url(#linearGradient948)"
     transform="rotate(30,378.24704,-287.72906)" />
  <polygon
     points="387.9,235.34 397.18,197.09 413.08,205.8 435.62,261.47 "
     fill="url(#linear-gradient-2)"
     id="polygon34"
     style="fill:url(#linear-gradient-2)"
     transform="rotate(30,378.24704,-287.72906)" />
  <ellipse
     cx="167.52998"
     cy="189.90486"
     rx="27.530001"
     ry="3.3499999"
     fill="#80d4ff"
     opacity="0.24"
     style="isolation:isolate;fill:#80d4ff;fill-opacity:0.25;opacity:1"
     id="ellipse96"
     transform="rotate(30)" />
  <ellipse
     cx="165.85997"
     cy="209.67485"
     rx="44.650002"
     ry="5.4299998"
     fill="#80d4ff"
     opacity="0.24"
     style="isolation:isolate;fill:#80d4ff;fill-opacity:0.25;opacity:1"
     id="ellipse98"
     transform="rotate(30)" />
  <ellipse
     cx="166.68999"
     cy="168.14487"
     rx="69.940002"
     ry="8.5100002"
     fill="none"
     stroke="#ffffff"
     stroke-miterlimit="10"
     stroke-width="6.21"
     style="isolation:isolate"
     id="ellipse100"
     transform="rotate(30)" />
  <path
     d="m 193.12132,2.0040058 c 0,0 -87.14682,0.642705 -117.726789,141.9087742 l 53.052709,30.63 c 0,0 94.14684,-72.10711 64.67408,-172.5387742 z"
     fill="#80d4ff"
     id="path102" />
  <path
     d="m 193.12132,2.0040058 c 0,0 -87.14682,0.642705 -117.726789,141.9087742 l 53.052709,30.63 c 0,0 94.14684,-72.10711 64.67408,-172.5387742 z"
     fill="url(#linear-gradient-7)"
     id="path104"
     style="fill:url(#linear-gradient-7)" />
  <circle
     cx="166.96999"
     cy="-5.285152"
     r="20.57"
     fill="#80d4ff"
     id="circle106"
     transform="rotate(30)" />
  <path
     d="m 54.949431,186.68939 13.672081,-7.73566 a 152.3,152.3 0 0 0 -15.326317,48.13421 c 16.775004,-3.91225 29.023253,-17.90151 40.002927,-31.17026 q -2.182992,13.41746 -5.525711,26.59984 a 56.61,56.61 0 0 0 23.103459,-27.57015 l -0.21003,9.27609 a 46.78,46.78 0 0 0 14.91106,-31.47205 q -12.95166,-6.73902 -25.57041,-14.13049 -6.048357,-3.52845 -12.053056,-7.24153 c -2.628125,-1.62514 -6.83124,-5.64685 -10.055436,-5.79465 -6.187652,-0.299 -11.303929,11.73965 -13.807468,16.43475 a 97.42,97.42 0 0 0 -5.402543,12.02623 c -0.718931,1.94221 -2.347344,11.85791 -3.738556,12.64367 z"
     fill="#80d4ff"
     id="path108" />
  <path
     d="m 54.949431,186.68939 13.672081,-7.73566 a 152.3,152.3 0 0 0 -15.326317,48.13421 c 16.775004,-3.91225 29.023253,-17.90151 40.002927,-31.17026 q -2.182992,13.41746 -5.525711,26.59984 a 56.61,56.61 0 0 0 23.103459,-27.57015 l -0.21003,9.27609 a 46.78,46.78 0 0 0 14.91106,-31.47205 q -12.95166,-6.73902 -25.57041,-14.13049 -6.048357,-3.52845 -12.053056,-7.24153 c -2.628125,-1.62514 -6.83124,-5.64685 -10.055436,-5.79465 -6.187652,-0.299 -11.303929,11.73965 -13.807468,16.43475 a 97.42,97.42 0 0 0 -5.402543,12.02623 c -0.718931,1.94221 -2.347344,11.85791 -3.738556,12.64367 z"
     fill="url(#linear-gradient-8)"
     id="path110"
     style="fill:url(#linear-gradient-8)" />
  <path
     d="m 72.88829,177.45353 8.330266,-4.72512 a 93,93 0 0 0 -9.33597,29.35821 c 10.225082,-2.38947 17.700759,-10.92332 24.395242,-19.01145 q -1.329244,8.196 -3.371578,16.23324 a 34.56,34.56 0 0 0 14.09393,-16.82198 l -0.14461,5.67174 a 28.51,28.51 0 0 0 9.12152,-19.23832 q -7.89979,-4.10894 -15.59366,-8.60791 -3.701349,-2.17121 -7.350105,-4.42745 c -1.59899,-0.98877 -4.161114,-3.44313 -6.12892,-3.53124 -3.788222,-0.16741 -6.906684,7.15739 -8.453142,10.05755 a 61,61 0 0 0 -3.305912,7.3617 c -0.418496,1.1521 -1.418818,7.20002 -2.257101,7.68103 z"
     fill="url(#linear-gradient-9)"
     id="path112"
     style="fill:url(#linear-gradient-9)" />
  <path
     d="m 172.86912,6.2592633 c 0,0 10.77347,12.5414837 24.51668,14.5886257 L 193.62771,2.6366972 a 3.1315218,3.09 0 0 0 -4.12609,-2.29175864 z"
     fill="#80d4ff"
     id="path114"
     style="stroke-width:1.0067" />
  <path
     d="m 172.86912,6.2592633 c 0,0 10.77347,12.5414837 24.51668,14.5886257 L 193.58128,2.4222142 a 2.9389686,2.9 0 0 0 -3.8692,-2.15055471 z"
     fill="url(#linear-gradient-10)"
     id="path116"
     style="fill:url(#linear-gradient-10);stroke-width:1.0067" />
  <path
     d="m 98.275517,214.7979 c 8.575953,6.10603 14.412863,11.58004 13.522863,13.12157 -1.58,2.73664 -21.046539,-5.54634 -43.563199,-18.54634 -22.51666,-13 -39.42319,-25.71702 -37.84319,-28.45367 1.305,-2.26032 14.048546,3.04576 31.457896,12.31187"
     fill="none"
     stroke="#ffffff"
     stroke-miterlimit="10"
     stroke-width="4.17"
     style="isolation:isolate"
     id="path118"
     sodipodi:nodetypes="csssc" />
</svg>
